<?xml version="1.0" encoding="UTF-8" standalone="no"?>
<svg
   xmlns:dc="http://purl.org/dc/elements/1.1/"
   xmlns:cc="http://creativecommons.org/ns#"
   xmlns:rdf="http://www.w3.org/1999/02/22-rdf-syntax-ns#"
   xmlns:svg="http://www.w3.org/2000/svg"
   xmlns="http://www.w3.org/2000/svg"
   xmlns:sodipodi="http://sodipodi.sourceforge.net/DTD/sodipodi-0.dtd"
   xmlns:inkscape="http://www.inkscape.org/namespaces/inkscape"
   width="2500"
   height="2148"
   viewBox="0 0 256 220"
   preserveAspectRatio="xMinYMin meet"
   version="1.1"
   id="svg20"
   sodipodi:docname="redis-white.svg"
   inkscape:version="0.92.1 r15371">
  <metadata
     id="metadata26">
    <rdf:RDF>
      <cc:Work
         rdf:about="">
        <dc:format>image/svg+xml</dc:format>
        <dc:type
           rdf:resource="http://purl.org/dc/dcmitype/StillImage" />
        <dc:title />
      </cc:Work>
    </rdf:RDF>
  </metadata>
  <defs
     id="defs24" />
  <sodipodi:namedview
     pagecolor="#ffffff"
     bordercolor="#666666"
     borderopacity="1"
     objecttolerance="10"
     gridtolerance="10"
     guidetolerance="10"
     inkscape:pageopacity="0"
     inkscape:pageshadow="2"
     inkscape:window-width="1842"
     inkscape:window-height="1051"
     id="namedview22"
     showgrid="false"
     inkscape:zoom="0.21973929"
     inkscape:cx="86.286336"
     inkscape:cy="441.31613"
     inkscape:window-x="1989"
     inkscape:window-y="-9"
     inkscape:window-maximized="1"
     inkscape:current-layer="svg20" />
  <path
     style="fill:#ffffff;stroke-width:9.76363659;fill-opacity:1"
     d="M 2499.4688 1312.6641 C 2499.6485 1336.9348 2467.5514 1363.9294 2401.5137 1398.3477 C 2268.1326 1467.8452 1577.1595 1751.9668 1430.0508 1828.6504 C 1282.9518 1905.3633 1201.2302 1904.6117 1085.0234 1849.0566 C 968.80687 1793.5406 233.49646 1496.4637 101.04297 1433.1855 C 33.482224 1400.8893 -0.31761614 1373.7292 0.025390625 1348.1074 C 0.025379337 1348.1074 2.040289e-018 1348.1133 0 1348.1133 L 0 1600.7578 C 1.8947806e-014 1625.987 34.816217 1652.6998 101.01367 1684.334 C 233.47693 1747.6512 968.81664 2044.6812 1085.0234 2100.2363 C 1201.24 2155.7914 1282.9616 2156.5332 1430.0703 2079.8301 C 1577.179 2003.1367 2268.1717 1719.0249 2401.5625 1649.498 C 2469.4588 1614.1146 2499.4512 1586.7176 2499.4316 1561.7422 L 2499.4902 1312.6719 C 2499.4836 1312.6694 2499.4754 1312.6665 2499.4688 1312.6641 z "
     transform="scale(0.10242086)"
     id="path2" />
  <path
     style="fill:#ffffff;stroke-width:9.76363659;fill-opacity:1"
     d="M 2499.4688 903.85156 C 2499.6624 928.12755 2467.5655 955.12901 2401.5137 989.55469 C 2268.1326 1059.0718 1577.1595 1343.1738 1430.0508 1419.8867 C 1282.9518 1496.5703 1201.2302 1495.8188 1085.0234 1440.2637 C 968.80687 1384.7476 233.49646 1087.6785 101.04297 1024.3906 C 33.474254 992.10049 -0.32571858 964.94155 0.025390625 939.31445 C 0.025379337 939.31446 2.040289e-018 939.32031 0 939.32031 L 0 1191.9941 C 1.8947806e-014 1217.2331 34.816217 1243.9068 101.01367 1275.541 C 233.47693 1338.8582 968.80687 1635.9176 1085.0234 1691.4434 C 1201.24 1746.9985 1282.9616 1747.7402 1430.0703 1671.0664 C 1577.179 1594.3438 2268.1717 1310.2417 2401.5625 1240.7051 C 2469.4588 1205.3217 2499.4512 1177.9246 2499.4316 1152.959 L 2499.4902 903.85938 C 2499.4836 903.85693 2499.4754 903.85401 2499.4688 903.85156 z "
     transform="scale(0.10242086)"
     id="path6" />
  <path
     style="fill:#ffffff;stroke-width:9.76363659;fill-opacity:1"
     d="M 1299.5391 5.7050781 C 1247.5961 5.480176 1193.9816 19.850053 1111.8828 49.306641 C 957.32447 104.7641 226.03795 391.64905 95.927734 442.5957 C 32.193947 467.5583 0.36675268 490.75537 0.03125 515.36523 C 0.031232764 515.36524 2.1973164e-017 515.37305 0 515.37305 L 0 768.05664 C 1.8947808e-014 793.26635 34.816217 819.94981 101.01367 851.61328 C 233.47695 914.90117 968.80693 1211.9703 1085.0234 1267.4961 C 1201.24 1323.0512 1282.9616 1323.8027 1430.0703 1247.1191 C 1577.179 1170.3965 2268.1717 886.2749 2401.5625 816.75781 C 2469.4588 781.36463 2499.4512 753.9676 2499.4316 729.02148 L 2499.4902 479.93164 C 2499.4836 479.9292 2499.4754 479.92627 2499.4688 479.92383 C 2499.2888 455.17276 2465.5387 433.26067 2399.8926 409.22266 C 2269.9288 361.60538 1583.0767 88.234331 1451.5508 40.050781 C 1389.9026 17.464744 1345.3711 5.9035212 1299.5391 5.7050781 z M 1095.9395 137.15039 L 1269.293 204.94922 L 1432.7168 151.44336 L 1388.5449 257.42773 L 1555.1816 319.82812 L 1340.2832 342.13672 L 1292.1777 457.89453 L 1214.4785 328.72266 L 966.33594 306.42188 L 1151.4941 239.64844 L 1095.9395 137.15039 z M 1809.1523 351.4707 L 2149.2793 485.87695 L 1809.4453 620.15625 L 1772.5488 634.58789 L 1432.8633 500.31836 L 1809.1523 351.4707 z M 723.31055 384.16992 C 892.95373 384.16992 1030.4746 437.48019 1030.4746 503.22852 C 1030.4746 568.99637 892.95373 622.29492 723.31055 622.29492 C 553.66737 622.29492 416.14648 568.98661 416.14648 503.22852 C 416.14648 437.48019 553.66737 384.16992 723.31055 384.16992 z M 1452.9746 626.85547 L 1279.3496 881.41211 L 878.28711 715.06836 L 1452.9746 626.85547 z "
     id="path10"
     transform="scale(0.10242086)" />
</svg>
