<?xml version="1.0" ?><!DOCTYPE svg  PUBLIC '-//W3C//DTD SVG 1.0//EN'  'http://www.w3.org/TR/2001/REC-SVG-20010904/DTD/svg10.dtd'><svg enable-background="new 0 0 16 16" height="100px" id="Layer_1" version="1.0" viewBox="0 0 16 16" width="100px" xml:space="preserve" xmlns="http://www.w3.org/2000/svg" xmlns:xlink="http://www.w3.org/1999/xlink"><g><defs><rect height="16" id="SVGID_1_" width="16"/></defs><path d="M8.001,4c3.866,0,7-0.896,7-2s-3.134-2-7-2C4.134,0,1,0.896,1,2   S4.134,4,8.001,4" fill="#85b4d4"/><path d="M1,3.602V6c0,1.104,3.134,2,7,2c3.866,0,7-0.896,7-2V3.602   C13.002,4.946,8.63,5,8.001,5C7.372,5,3,4.946,1,3.602" fill="#85b4d4"/><path d="M1,7.602V10c0,1.104,3.134,2,7,2c3.866,0,7-0.896,7-2V7.602   C13.002,8.945,8.63,9,8.001,9C7.372,9,3,8.945,1,7.602" fill="#85b4d4"/><path d="M1,11.602V14c0,1.104,3.134,2,7,2c3.866,0,7-0.896,7-2v-2.398   C13.002,12.945,8.63,13,8.001,13C7.372,13,3,12.945,1,11.602" fill="#85b4d4"/></g></svg>
