<?xml version="1.0" encoding="UTF-8" standalone="no"?>
<!-- Created with Inkscape (http://www.inkscape.org/) -->

<svg
   xmlns:dc="http://purl.org/dc/elements/1.1/"
   xmlns:cc="http://creativecommons.org/ns#"
   xmlns:rdf="http://www.w3.org/1999/02/22-rdf-syntax-ns#"
   xmlns:svg="http://www.w3.org/2000/svg"
   xmlns="http://www.w3.org/2000/svg"
   xmlns:sodipodi="http://sodipodi.sourceforge.net/DTD/sodipodi-0.dtd"
   xmlns:inkscape="http://www.inkscape.org/namespaces/inkscape"
   width="50"
   height="50"
   viewBox="0 0 50.000001 50.000001"
   id="svg2"
   version="1.1"
   inkscape:version="0.91 r13725"
   sodipodi:docname="search-black.svg">
  <defs
     id="defs4" />
  <sodipodi:namedview
     id="base"
     pagecolor="#ffffff"
     bordercolor="#666666"
     borderopacity="1.0"
     inkscape:pageopacity="0.0"
     inkscape:pageshadow="2"
     inkscape:zoom="7.9195959"
     inkscape:cx="0.59118698"
     inkscape:cy="12.409356"
     inkscape:document-units="px"
     inkscape:current-layer="layer1"
     showgrid="false"
     units="px"
     inkscape:window-width="1920"
     inkscape:window-height="1017"
     inkscape:window-x="-8"
     inkscape:window-y="-8"
     inkscape:window-maximized="1" />
  <metadata
     id="metadata7">
    <rdf:RDF>
      <cc:Work
         rdf:about="">
        <dc:format>image/svg+xml</dc:format>
        <dc:type
           rdf:resource="http://purl.org/dc/dcmitype/StillImage" />
        <dc:title />
      </cc:Work>
    </rdf:RDF>
  </metadata>
  <g
     inkscape:label="Layer 1"
     inkscape:groupmode="layer"
     id="layer1"
     transform="translate(0,-1002.3622)">
    <path
       style="opacity:1;fill:#ffffff;fill-opacity:1;fill-rule:evenodd;stroke:none;stroke-width:0.26785713;stroke-miterlimit:4;stroke-dasharray:none;stroke-opacity:1"
       d="M 4.2312933,48.504446 C 2.1283366,47.832049 0.90164909,45.701397 1.4361122,43.649455 1.7442799,42.466319 1.6119217,42.614378 8.242357,36.035836 l 6.216442,-6.167787 -0.46057,-0.804831 c -3.279801,-5.731353 -3.239284,-12.85676 0.105424,-18.539902 1.621319,-2.7548563 4.092166,-5.1869752 6.878467,-6.7706553 5.695543,-3.23723722 12.842067,-3.17914563 18.499405,0.1503752 4.68146,2.7551853 7.889211,7.3958261 8.888574,12.8590601 0.261235,1.428094 0.285966,4.605521 0.04649,5.973408 -0.724005,4.135582 -2.424438,7.447002 -5.274573,10.271692 -1.607735,1.593382 -3.055747,2.626188 -5.008735,3.572519 -5.37959,2.606711 -11.912096,2.413949 -17.04455,-0.502952 l -0.79455,-0.451562 -1.348307,1.325755 c -0.741569,0.729165 -3.51795,3.479523 -6.169736,6.111908 -2.99997,2.978021 -4.9828573,4.878974 -5.2487327,5.03185 -1.0038254,0.577193 -2.2772812,0.735493 -3.296116,0.409732 z M 32.772319,32.564331 c 5.133835,-1.177728 8.857166,-4.918474 10.003122,-10.049913 0.225162,-1.008249 0.281527,-3.486643 0.104646,-4.601391 -0.298295,-1.879934 -0.928817,-3.532626 -1.928111,-5.053863 -1.974531,-3.0058547 -4.758794,-4.9055044 -8.3119,-5.6710533 -1.074,-0.2314029 -4.006329,-0.2324618 -5.075965,-0.00183 -5.366729,1.1571434 -9.334403,5.2425713 -10.229743,10.5333433 -0.192565,1.137911 -0.193289,3.178377 -0.0015,4.329905 0.892768,5.361288 5.089692,9.583653 10.532595,10.596441 0.949652,0.176706 4.002123,0.125922 4.906891,-0.08164 z"
       id="path4139"
       inkscape:connector-curvature="0"
       transform="translate(0,1002.3622)" />
    <path
       transform="matrix(0.71021212,-0.70398774,0.70398774,0.71021212,0,0)"
       id="circle4153"
       style="opacity:1;fill:none;fill-opacity:0.1;fill-rule:evenodd;stroke:#ffffff;stroke-width:4;stroke-miterlimit:4;stroke-dasharray:none;stroke-opacity:1"
       sodipodi:type="arc"
       sodipodi:cx="-699.94086"
       sodipodi:cy="746.1347"
       sodipodi:rx="9.5396061"
       sodipodi:ry="9.5396061"
       sodipodi:start="0"
       sodipodi:end="0.95259987"
       sodipodi:open="true"
       d="m -690.40125,746.1347 a 9.5396061,9.5396061 0 0 1 -4.01077,7.77407" />
  </g>
</svg>
