<?xml version="1.0" standalone="no"?>
<!DOCTYPE svg PUBLIC "-//W3C//DTD SVG 20010904//EN"
 "http://www.w3.org/TR/2001/REC-SVG-20010904/DTD/svg10.dtd">
<svg version="1.0" xmlns="http://www.w3.org/2000/svg"
 width="459.000000pt" height="459.000000pt" viewBox="0 0 459.000000 459.000000"
 preserveAspectRatio="xMidYMid meet">
<metadata>
Created by potrace 1.11, written by Peter Selinger 2001-2013
</metadata>
<g transform="translate(0.000000,459.000000) scale(0.100000,-0.100000)"
fill="#000000" stroke="none">
<path d="M2108 4575 c-1 -1 -30 -6 -63 -9 -582 -63 -1137 -363 -1510 -817
-134 -163 -294 -426 -348 -574 -8 -22 -30 -83 -49 -135 -32 -87 -79 -266 -92
-350 -3 -19 -8 -46 -11 -60 -27 -129 -27 -505 0 -680 26 -167 64 -311 126
-475 53 -143 190 -408 244 -473 8 -10 37 -48 65 -87 166 -228 429 -462 685
-610 208 -120 493 -227 695 -260 19 -3 42 -8 50 -10 8 -3 38 -7 65 -11 28 -3
61 -8 75 -10 49 -9 406 -12 465 -4 33 5 83 11 110 14 42 4 89 13 215 41 176
38 440 143 590 233 19 12 49 29 65 38 57 31 190 127 272 196 70 58 120 107
259 253 12 12 58 69 102 127 247 326 404 723 450 1138 14 134 7 462 -13 575
-3 17 -8 46 -11 65 -12 73 -16 87 -35 164 -190 747 -744 1350 -1474 1603 -38
13 -77 26 -85 28 -8 2 -50 13 -94 24 -68 18 -156 35 -287 57 -37 6 -455 15
-461 9z"/>
</g>
</svg>
