<?xml version="1.0" encoding="UTF-8" standalone="no"?>
<!-- Created with Inkscape (http://www.inkscape.org/) -->

<svg
   xmlns:dc="http://purl.org/dc/elements/1.1/"
   xmlns:cc="http://creativecommons.org/ns#"
   xmlns:rdf="http://www.w3.org/1999/02/22-rdf-syntax-ns#"
   xmlns:svg="http://www.w3.org/2000/svg"
   xmlns="http://www.w3.org/2000/svg"
   xmlns:sodipodi="http://sodipodi.sourceforge.net/DTD/sodipodi-0.dtd"
   xmlns:inkscape="http://www.inkscape.org/namespaces/inkscape"
   viewBox="0 0 100 100"
   version="1.1"
   inkscape:version="0.92.1 r15371"
   sodipodi:docname="api.svg">
  <defs
     id="defs2" />
  <sodipodi:namedview
     pagecolor="#ffffff"
     bordercolor="#666666"
     borderopacity="1.0"
     inkscape:pageopacity="0.0"
     inkscape:pageshadow="2"
     inkscape:zoom="1.4"
     inkscape:cx="218.66975"
     inkscape:cy="204.36931"
     inkscape:document-units="mm"
     inkscape:current-layer="layer1"
     showgrid="false"
     inkscape:window-width="1838"
     inkscape:window-height="1051"
     inkscape:window-x="1993"
     inkscape:window-y="-9"
     inkscape:window-maximized="1" />
  <metadata
     id="metadata5">
    <rdf:RDF>
      <cc:Work
         rdf:about="">
        <dc:format>image/svg+xml</dc:format>
        <dc:type
           rdf:resource="http://purl.org/dc/dcmitype/StillImage" />
        <dc:title></dc:title>
      </cc:Work>
    </rdf:RDF>
  </metadata>
  <g
     inkscape:label="Layer 1"
     inkscape:groupmode="layer"
     id="layer1"
     transform="translate(0,-197)">
    <path
       style="opacity:1;fill-opacity:1;stroke:none;stroke-width:1.19561064;stroke-miterlimit:4;stroke-dasharray:none;stroke-opacity:1"
       d="m 58.318712,201.52239 a 8.3490336,8.3490336 0 0 0 -8.348593,8.34938 8.3490336,8.3490336 0 0 0 5.793303,7.94383 v 11.42833 a 17.665333,17.665333 0 0 0 -13.419801,10.28101 l -16.89562,-5.27752 a 10.385384,10.385384 0 0 0 0.08584,-1.26307 10.385384,10.385384 0 0 0 -10.385736,-10.38573 10.385384,10.385384 0 0 0 -10.3849488,10.38573 10.385384,10.385384 0 0 0 10.3849488,10.38495 10.385384,10.385384 0 0 0 8.532068,-4.46881 l 17.306675,5.40431 a 17.665333,17.665333 0 0 0 -0.180331,2.37418 17.665333,17.665333 0 0 0 4.96884,12.25436 l -7.770602,8.12339 a 8.7810088,8.7810088 0 0 0 -3.479761,-0.7221 8.7810088,8.7810088 0 0 0 -8.780904,8.78091 8.7810088,8.7810088 0 0 0 8.780904,8.7809 8.7810088,8.7810088 0 0 0 8.780906,-8.7809 8.7810088,8.7810088 0 0 0 -1.480414,-4.86728 l 7.892655,-8.25093 a 17.665333,17.665333 0 0 0 8.753344,2.3466 17.665333,17.665333 0 0 0 8.239925,-2.05133 l 7.713903,11.63859 a 10.400915,10.400915 0 0 0 -3.180528,7.48397 10.400915,10.400915 0 0 0 10.401482,10.40147 10.400915,10.400915 0 0 0 10.4007,-10.40147 10.400915,10.400915 0 0 0 -10.4007,-10.4007 10.400915,10.400915 0 0 0 -2.914368,0.42286 L 70.732935,259.3688 a 17.665333,17.665333 0 0 0 4.487704,-7.14379 l 5.294845,0.79848 a 7.0531085,7.0531085 0 0 0 6.998107,6.25081 7.0531085,7.0531085 0 0 0 7.05323,-7.05322 7.0531085,7.0531085 0 0 0 -7.05323,-7.05324 7.0531085,7.0531085 0 0 0 -5.77913,3.01597 l -5.62006,-0.84732 a 17.665333,17.665333 0 0 0 0.02282,-0.65751 17.665333,17.665333 0 0 0 -1.401667,-6.89339 l 9.10691,-5.62322 a 7.1682097,7.1682097 0 0 0 4.486917,1.58672 7.1682097,7.1682097 0 0 0 7.168194,-7.16818 7.1682097,7.1682097 0 0 0 -7.168194,-7.1682 7.1682097,7.1682097 0 0 0 -7.168198,7.1682 7.1682097,7.1682097 0 0 0 0.127558,1.31977 l -9.125021,5.63502 a 17.665333,17.665333 0 0 0 -11.432263,-6.35633 v -11.32281 a 8.3490336,8.3490336 0 0 0 5.936619,-7.98479 8.3490336,8.3490336 0 0 0 -8.349378,-8.34938 z m 0.152766,32.37856 a 12.778094,12.778094 0 0 1 12.778019,12.77803 12.778094,12.778094 0 0 1 -4.612118,9.81324 l -2.389137,1.58357 A 12.778094,12.778094 0 0 1 58.471478,259.457 12.778094,12.778094 0 0 1 45.693455,246.67898 12.778094,12.778094 0 0 1 58.471478,233.90095 Z"
       id="path4498"
       inkscape:connector-curvature="0" />
  </g>
</svg>
