<?xml version="1.0" encoding="UTF-8" standalone="no"?>
<svg
   xmlns:dc="http://purl.org/dc/elements/1.1/"
   xmlns:cc="http://creativecommons.org/ns#"
   xmlns:rdf="http://www.w3.org/1999/02/22-rdf-syntax-ns#"
   xmlns:svg="http://www.w3.org/2000/svg"
   xmlns="http://www.w3.org/2000/svg"
   xmlns:sodipodi="http://sodipodi.sourceforge.net/DTD/sodipodi-0.dtd"
   xmlns:inkscape="http://www.inkscape.org/namespaces/inkscape"
   viewBox="0 -12 62 62"
   version="1.1"
   id="svg2"
   inkscape:version="0.48.4 r9939"
   sodipodi:docname="1472759618_003_constellation_planets_big_dipper.svg">
  <metadata
     id="metadata10">
    <rdf:RDF>
      <cc:Work
         rdf:about="">
        <dc:format>image/svg+xml</dc:format>
        <dc:type
           rdf:resource="http://purl.org/dc/dcmitype/StillImage" />
      </cc:Work>
    </rdf:RDF>
  </metadata>
  <defs
     id="defs8" />
  <sodipodi:namedview
     pagecolor="#ffffff"
     bordercolor="#666666"
     borderopacity="1"
     objecttolerance="10"
     gridtolerance="10"
     guidetolerance="10"
     inkscape:pageopacity="0"
     inkscape:pageshadow="2"
     id="namedview6"
     showgrid="false"
     inkscape:zoom="10.157087"
     inkscape:cx="30"
     inkscape:cy="35.876274"
     inkscape:window-x="1505"
     inkscape:window-y="156"
     inkscape:window-maximized="1"
     inkscape:current-layer="svg2" />
  <path
     d="m 57.028,23.561 0.511,10.493 C 58.936,34.31 60,35.53 60,37 c 0,1.654 -1.346,3 -3,3 -1.05,0 -1.972,-0.544 -2.508,-1.362 L 41.981,41.182 C 41.885,42.75 40.592,44 39,44 c -1.654,0 -3,-1.346 -3,-3 0,-0.952 0.454,-1.792 1.148,-2.342 L 34.987,28.999 C 33.458,28.992 32.209,27.833 32.035,26.348 L 27.471,25.193 C 26.655,26.848 24.966,28 23,28 c -2.757,0 -5,-2.243 -5,-5 0,-0.256 0.038,-0.501 0.075,-0.747 L 13.384,20.8 C 12.836,21.524 11.976,22 11,22 10.679,22 10.375,21.936 10.085,21.842 L 5.569,27.475 C 5.836,27.923 6,28.441 6,29 6,30.654 4.654,32 3,32 1.345,32 0,30.654 0,29 c 0,-1.654 1.345,-3 3,-3 0.364,0 0.709,0.075 1.032,0.194 L 8.49,20.634 C 8.182,20.163 8,19.603 8,19 c 0,-1.654 1.345,-3 3,-3 1.618,0 2.932,1.29 2.989,2.894 l 4.775,1.479 C 19.648,18.954 21.209,18 23,18 c 2.757,0 5,2.243 5,5 0,0.088 -0.022,0.171 -0.026,0.258 l 4.499,1.138 C 33.006,23.56 33.936,23 35,23 c 1.021,0 1.922,0.515 2.464,1.297 L 50.036,19.356 C 50.027,19.236 50,19.122 50,19 c 0,-2.757 2.243,-5 5,-5 2.757,0 5,2.243 5,5 0,2.033 -1.225,3.78 -2.972,4.561 z M 3,28 c -0.552,0 -1,0.449 -1,1 0,0.551 0.448,1 1,1 0.551,0 1,-0.449 1,-1 0,-0.551 -0.449,-1 -1,-1 z m 8,-10 c -0.551,0 -1,0.449 -1,1 0,0.551 0.449,1 1,1 0.551,0 1,-0.449 1,-1 0,-0.551 -0.449,-1 -1,-1 z m 12,2 c -1.654,0 -3,1.346 -3,3 0,1.654 1.346,3 3,3 1.654,0 3,-1.346 3,-3 0,-1.654 -1.346,-3 -3,-3 z m 34,18 c 0.551,0 1,-0.449 1,-1 0,-0.551 -0.449,-1 -1,-1 -0.552,0 -1,0.449 -1,1 0,0.551 0.448,1 1,1 z m -18,4 c 0.551,0 1,-0.449 1,-1 0,-0.551 -0.449,-1 -1,-1 -0.552,0 -1,0.449 -1,1 0,0.551 0.448,1 1,1 z M 35,25 c -0.552,0 -1,0.449 -1,1 0,0.551 0.448,1 1,1 0.551,0 1,-0.449 1,-1 0,-0.551 -0.449,-1 -1,-1 z m 15.581,-3.71 -12.606,4.955 c -0.069,0.834 -0.483,1.565 -1.092,2.067 l 2.169,9.694 c 0.979,0.018 1.841,0.505 2.377,1.247 l 12.614,-2.565 c 0.107,-0.989 0.677,-1.836 1.509,-2.299 L 55.047,23.995 C 55.031,23.995 55.016,24 55,24 53.072,24 51.416,22.892 50.581,21.29 z M 55,16 c -1.654,0 -3,1.346 -3,3 0,1.654 1.346,3 3,3 1.654,0 3,-1.346 3,-3 0,-1.654 -1.346,-3 -3,-3 z M 45,4 c -1.103,0 -2,-0.897 -2,-2 0,-1.103 0.897,-2 2,-2 1.103,0 2,0.897 2,2 0,1.103 -0.897,2 -2,2 z M 33,18 c -1.103,0 -2,-0.897 -2,-2 0,-1.103 0.897,-2 2,-2 1.103,0 2,0.897 2,2 0,1.103 -0.897,2 -2,2 z M 16.625,8.25 C 15.729,8.25 15,7.521 15,6.625 15,5.729 15.729,5 16.625,5 c 0.896,0 1.625,0.729 1.625,1.625 0,0.896 -0.729,1.625 -1.625,1.625 z m 0,-2 C 16.418,6.25 16.25,6.418 16.25,6.625 16.25,6.831 16.418,7 16.625,7 16.831,7 17,6.831 17,6.625 17,6.418 16.831,6.25 16.625,6.25 z M 10,38 c 1.103,0 2,0.897 2,2 0,1.103 -0.897,2 -2,2 -1.103,0 -2,-0.897 -2,-2 0,-1.103 0.897,-2 2,-2 z m 39.625,8 c 0.896,0 1.625,0.729 1.625,1.625 0,0.896 -0.729,1.625 -1.625,1.625 C 48.729,49.25 48,48.521 48,47.625 48,46.729 48.729,46 49.625,46 z m 0,2 C 49.831,48 50,47.831 50,47.625 50,47.418 49.831,47.25 49.625,47.25 c -0.207,0 -0.375,0.168 -0.375,0.375 0,0.206 0.168,0.375 0.375,0.375 z"
     id="path4"
     inkscape:connector-curvature="0"
     sodipodi:nodetypes="ccssccssccccssccsccssssccssccssccsccssscssssssssssssssssssssssssssssssccccccccscssssssssssssssssssssssssssssssssssssssss" />
</svg>
