<?xml version="1.0" encoding="UTF-8" standalone="no"?>
<!-- Created with Inkscape (http://www.inkscape.org/) -->

<svg
   xmlns:dc="http://purl.org/dc/elements/1.1/"
   xmlns:cc="http://creativecommons.org/ns#"
   xmlns:rdf="http://www.w3.org/1999/02/22-rdf-syntax-ns#"
   xmlns:svg="http://www.w3.org/2000/svg"
   xmlns="http://www.w3.org/2000/svg"
   xmlns:sodipodi="http://sodipodi.sourceforge.net/DTD/sodipodi-0.dtd"
   xmlns:inkscape="http://www.inkscape.org/namespaces/inkscape"
   viewBox="0 0 100 100"
   version="1.1"
   id="svg5143"
   inkscape:version="0.92.1 r15371"
   sodipodi:docname="easy_to_import.svg">
  <defs
     id="defs5137" />
  <sodipodi:namedview
     id="base"
     pagecolor="#ffffff"
     bordercolor="#666666"
     borderopacity="1.0"
     inkscape:pageopacity="0.0"
     inkscape:pageshadow="2"
     inkscape:zoom="0.7"
     inkscape:cx="171.07037"
     inkscape:cy="509.09437"
     inkscape:document-units="mm"
     inkscape:current-layer="layer1"
     showgrid="false"
     inkscape:window-width="1838"
     inkscape:window-height="1051"
     inkscape:window-x="73"
     inkscape:window-y="-9"
     inkscape:window-maximized="1" />
  <metadata
     id="metadata5140">
    <rdf:RDF>
      <cc:Work
         rdf:about="">
        <dc:format>image/svg+xml</dc:format>
        <dc:type
           rdf:resource="http://purl.org/dc/dcmitype/StillImage" />
        <dc:title></dc:title>
      </cc:Work>
    </rdf:RDF>
  </metadata>
  <g
     inkscape:label="Layer 1"
     inkscape:groupmode="layer"
     id="layer1"
     transform="translate(0,-197)">
    <path
       style="fill-opacity:1;stroke:none;stroke-width:4.35548496;stroke-miterlimit:4;stroke-dasharray:none;stroke-opacity:1"
       d="m 10.923067,263.55921 c -2.293123,0 -4.1391462,1.84601 -4.1391462,4.13915 v 18.88537 c 0,2.29312 1.8460232,4.13914 4.1391462,4.13914 h 78.153867 c 2.293122,0 4.139145,-1.84602 4.139145,-4.13914 v -18.88537 c 0,-2.29314 -1.846023,-4.13915 -4.139145,-4.13915 H 66.346515 v 1.30317 c 0,5.32048 -4.282774,9.60401 -9.603241,9.60401 H 43.319747 c -5.320468,0 -9.60324,-4.28353 -9.60324,-9.60401 v -1.30317 z m 57.873022,15.77706 a 3.361134,3.361134 0 0 1 3.361134,3.36114 3.361134,3.361134 0 0 1 -3.361134,3.36113 3.361134,3.361134 0 0 1 -3.361134,-3.36113 3.361134,3.361134 0 0 1 3.361134,-3.36114 z m 10.755628,0 a 3.361134,3.361134 0 0 1 3.361135,3.36114 3.361134,3.361134 0 0 1 -3.361135,3.36113 3.361134,3.361134 0 0 1 -3.361134,-3.36113 3.361134,3.361134 0 0 1 3.361134,-3.36114 z"
       id="rect5699"
       inkscape:connector-curvature="0" />
    <path
       style="fill-opacity:1;stroke:none;stroke-width:4.35548496;stroke-miterlimit:4;stroke-dasharray:none;stroke-opacity:1"
       d="m 50.069772,203.27712 -29.963607,29.9636 h 19.349026 v 31.49938 c 0,2.29313 1.846016,4.13915 4.139147,4.13915 h 12.934366 c 2.293129,0 4.139145,-1.84602 4.139145,-4.13915 v -31.49938 h 19.366282 z"
       id="rect5701"
       inkscape:connector-curvature="0" />
  </g>
</svg>
