<?xml version="1.0" encoding="UTF-8" standalone="no"?>
<!-- Created with Inkscape (http://www.inkscape.org/) -->

<svg
   xmlns:dc="http://purl.org/dc/elements/1.1/"
   xmlns:cc="http://creativecommons.org/ns#"
   xmlns:rdf="http://www.w3.org/1999/02/22-rdf-syntax-ns#"
   xmlns:svg="http://www.w3.org/2000/svg"
   xmlns="http://www.w3.org/2000/svg"
   xmlns:sodipodi="http://sodipodi.sourceforge.net/DTD/sodipodi-0.dtd"
   xmlns:inkscape="http://www.inkscape.org/namespaces/inkscape"
   viewBox="0 0 100 100"
   version="1.1"
   id="svg8"
   inkscape:version="0.92.1 r15371"
   sodipodi:docname="data-storage.svg">
  <defs
     id="defs2" />
  <sodipodi:namedview
     borderopacity="1.0"
     inkscape:pageopacity="0.0"
     inkscape:pageshadow="2"
     inkscape:zoom="1.4"
     inkscape:cx="204.8806"
     inkscape:cy="118.66924"
     inkscape:document-units="mm"
     inkscape:current-layer="layer1"
     showgrid="false"
     inkscape:window-width="1838"
     inkscape:window-height="1051"
     inkscape:window-x="1993"
     inkscape:window-y="-9"
     inkscape:window-maximized="1" />
  <metadata
     id="metadata5">
    <rdf:RDF>
      <cc:Work
         rdf:about="">
        <dc:format>image/svg+xml</dc:format>
        <dc:type
           rdf:resource="http://purl.org/dc/dcmitype/StillImage" />
        <dc:title></dc:title>
      </cc:Work>
    </rdf:RDF>
  </metadata>
  <g
     inkscape:label="Layer 1"
     inkscape:groupmode="layer"
     id="layer1"
     transform="translate(0,-197)">
    <g
       id="g4517"
       transform="matrix(0.76003698,0,0,0.76003698,0.14156255,71.144399)">
      <path
         sodipodi:nodetypes="csssscsssccccccccccccccssccccccccccccscsccccccccccccccccccccccccc"
         inkscape:connector-curvature="0"
         id="path4496"
         d="m 15.844371,290.31785 c -1.91136,-1.14588 -2.165809,-1.93692 -3.201113,-9.95168 -0.509569,-3.94481 -1.700774,-13.16012 -2.6471217,-20.47846 -1.1320809,-8.75467 -1.6479215,-13.55961 -1.5080626,-14.04727 0.623048,-2.17244 1.7305053,-3.26833 3.8394893,-3.79938 l 1.250615,-0.3149 v -10.534 c 0,-8.87502 0.06474,-10.68896 0.411098,-11.5179 0.929591,-2.22483 2.385064,-3.00798 5.590257,-3.00798 h 2.280876 l 0.06838,-21.84928 0.06838,-21.84929 30.778345,-0.0679 30.778352,-0.0679 12.716301,12.89687 12.716303,12.89688 0.003,8.98846 0.003,8.98847 2.52943,0.0259 c 4.21881,0.11712 5.82962,0.50075 5.88954,3.91328 l 0.0852,7.684 0.0852,7.684 0.85028,0.002 c 3.00063,0.005 5.52749,2.24138 5.52749,4.89148 0,0.49561 -1.3742,10.27151 -3.05377,21.72423 -1.67958,11.45273 -3.18361,21.76845 -3.34227,22.92384 -0.37868,2.75748 -0.90889,3.81135 -2.3901,4.75072 l -1.20748,0.76563 -48.523911,-0.003 -48.52391,-0.003 z m 55.644109,-51.26775 1.829408,-3.00678 15.432331,-0.069 15.432331,-0.069 V 218.9359 201.96646 H 93.237071 c -11.425587,0 -11.963958,-0.05 -12.547312,-1.16542 -0.203586,-0.38928 -0.319619,-4.15554 -0.36345,-11.79716 l -0.06438,-11.22532 -26.660136,-0.0681 -26.660134,-0.0681 v 32.20727 32.20726 c 14.239138,0 28.478277,0 42.717414,0 z M 21.863534,231.63337 V 221.47713 H 20.126282 18.38903 v 10.15624 10.15624 h 1.737252 1.737252 z m 90.871636,-2.80633 v -7.08264 h -1.87089 -1.87088 v 7.08264 7.08264 h 1.87088 1.87089 z"
         style="opacity:1;fill-opacity:1;stroke:none;stroke-width:0.80812198;stroke-miterlimit:4;stroke-dasharray:none;stroke-opacity:1" />
      <path
         inkscape:connector-curvature="0"
         id="path4498"
         d="m 38.434243,191.67658 v -2.53906 h 14.83346 14.833459 v 2.53906 2.53906 H 53.267703 38.434243 Z"
         style="opacity:1;fill-opacity:1;stroke:none;stroke-width:0.80812198;stroke-miterlimit:4;stroke-dasharray:none;stroke-opacity:1" />
      <path
         inkscape:connector-curvature="0"
         id="path4500"
         d="m 38.434243,200.09557 v -2.40543 h 16.83798 16.83798 v 2.40543 2.40543 h -16.83798 -16.83798 z"
         style="opacity:1;fill-opacity:1;stroke:none;stroke-width:0.80812198;stroke-miterlimit:4;stroke-dasharray:none;stroke-opacity:1" />
      <path
         inkscape:connector-curvature="0"
         id="path4502"
         d="m 40.238313,214.04819 -1.80407,-0.079 v -2.39321 -2.39322 h 27.929668 27.929665 v 2.366 2.36599 l -2.204974,0.12575 c -2.349812,0.13402 -48.809404,0.14093 -51.850289,0.008 z"
         style="opacity:1;fill-opacity:1;stroke:none;stroke-width:0.80812198;stroke-miterlimit:4;stroke-dasharray:none;stroke-opacity:1" />
      <path
         inkscape:connector-curvature="0"
         id="path4504"
         d="m 38.491033,219.8067 0.07685,-2.47225 h 22.71791 22.717908 l 0.07685,2.47225 0.07685,2.47224 H 61.285789 38.414185 Z"
         style="opacity:1;fill-opacity:1;stroke:none;stroke-width:0.80812198;stroke-miterlimit:4;stroke-dasharray:none;stroke-opacity:1" />
      <path
         inkscape:connector-curvature="0"
         id="path4506"
         d="m 38.434243,229.36158 v -2.55036 l 5.278575,0.0725 5.278573,0.0725 v 2.40542 2.40543 l -5.278573,0.0725 -5.278575,0.0725 z"
         style="opacity:1;fill-opacity:1;stroke:none;stroke-width:0.80812198;stroke-miterlimit:4;stroke-dasharray:none;stroke-opacity:1" />
      <path
         inkscape:connector-curvature="0"
         id="path4508"
         d="m 54.919555,231.72615 c -0.100029,-0.10003 -0.18187,-1.24426 -0.18187,-2.54275 v -2.36088 h 8.696288 8.696291 l -0.07685,2.47224 -0.07685,2.47225 -8.437573,0.0705 c -4.640667,0.0388 -8.519417,-0.0113 -8.619442,-0.11136 z"
         style="opacity:1;fill-opacity:1;stroke:none;stroke-width:0.80812198;stroke-miterlimit:4;stroke-dasharray:none;stroke-opacity:1" />
    </g>
  </g>
</svg>
