<?xml version="1.0" ?><!DOCTYPE svg  PUBLIC '-//W3C//DTD SVG 1.1//EN'  'http://www.w3.org/Graphics/SVG/1.1/DTD/svg11.dtd'><svg style="enable-background:new 0 0 696 696;" version="1.1" viewBox="60 25 570 570" xml:space="preserve" xmlns="http://www.w3.org/2000/svg" xmlns:xlink="http://www.w3.org/1999/xlink"><style type="text/css">
<![CDATA[
	.st0{fill-rule:evenodd;clip-rule:evenodd;fill:#DAE7A2;}
	.st1{fill:#E7A614;}
	.st2{fill:#E8D3A2;}
	.st3{fill-rule:evenodd;clip-rule:evenodd;fill:#404041;}
	.st4{fill:#808184;}
	.st5{fill:#B3D88C;}
	.st6{fill:#886D00;}
	.st7{fill:#B95915;}
	.st8{fill:#B9E0F7;}
	.st9{fill:#EEB211;}
	.st10{fill:#EF3E42;}
	.st11{fill:#54B948;}
	.st12{fill:#58595B;}
	.st13{fill-rule:evenodd;clip-rule:evenodd;fill:#E7A614;}
	.st14{fill:#BF311A;}
	.st15{fill:#F17091;}
	.st16{fill:#F1E3C5;}
	.st17{fill:#24F400;}
	.st18{fill:#F7901E;}
	.st19{fill-rule:evenodd;clip-rule:evenodd;fill:#EEB211;}
	.st20{fill:#929497;}
	.st21{fill-rule:evenodd;clip-rule:evenodd;fill:#54B948;}
	.st22{fill:#C41230;}
	.st23{fill:#FAC5C6;}
	.st24{fill:#2D70C1;}
	.st25{fill:#FDBB30;}
	.st26{fill:#FFC425;}
	.st27{fill:#FFCF7B;}
	.st28{fill:#FFCF82;}
	.st29{fill:#FFEE00;}
	.st30{fill:#FFEF6F;}
	.st31{fill:#FFF797;}
	.st32{fill:#FFFFFF;}
	.st33{fill:none;}
	.st34{fill:#00703C;}
	.st35{fill:#0073AE;}
	.st36{fill:#008852;}
	.st37{fill:#008CB2;}
	.st38{fill:#00A94F;}
	.st39{fill:#00BCE4;}
	.st40{fill:#D0D2D3;}
	.st41{fill:#A4D7F4;}
	.st42{fill:#A6A8AB;}
	.st43{fill:#DAE7A2;}
	.st44{fill:#79BDE8;}
	.st45{fill:#DCF1F7;}
	.st46{fill:#404041;}
	.st47{fill:#449FE2;}
]]>
</style><defs/><path d="M570.3,377.2c0-24.8-20.1-44.9-44.9-44.9c-24.8,0-44.9,20.1-44.9,44.9c0,24.8,20.1,44.9,44.9,44.9  C550.2,422.1,570.3,402,570.3,377.2L570.3,377.2z"/><path d="M510.8,249.2c0-57-46.2-103.3-103.3-103.3c-57,0-103.3,46.2-103.3,103.3s46.2,103.3,103.3,103.3  C464.5,352.5,510.8,306.3,510.8,249.2L510.8,249.2z"/><path d="M508.7,228.6c23.9,5.2,42.5,13.4,42.5,20.8c0,15.8-64.3,28.6-143.7,28.6c-79.3,0-143.7-12.8-143.7-28.6  c0-7.5,18.6-15.6,42.5-20.8c1.8-8.9,4.8-17.4,8.7-25.4c-72.6,8.2-124.3,25.8-124.3,46c0,28.1,97.1,50.8,216.8,50.8  c119.7,0,216.8-22.7,216.8-50.8c0-20.2-51.6-37.8-124.3-46C503.9,211.1,506.9,219.6,508.7,228.6L508.7,228.6z"/><path d="M590.3,135.5c0-19.4-15.8-35.2-35.2-35.2s-35.2,15.8-35.2,35.2c0,19.4,15.8,35.2,35.2,35.2S590.3,155,590.3,135.5  L590.3,135.5z"/><path d="M295.1,362.9c0-19.4-15.7-35.2-35.2-35.2c-19.4,0-35.2,15.8-35.2,35.2c0,19.4,15.8,35.2,35.2,35.2  C279.3,398.1,295.1,382.3,295.1,362.9L295.1,362.9z"/><path d="M432.1,533.7l155.7-64.5c12-5,25.8,0.7,30.7,12.7l3.4,8.1c5,12-0.7,25.8-12.7,30.7l-161.6,66.9c-2.6,1.1-5.5,1.7-8.1,1.8  h-377V478l96.3,32.8l65.3-65.3c4.2-4.1,10.5-6,16.9-6l174.9,0c13,0,23.5,10.5,23.5,23.5v8.8c0,13-10.5,23.5-23.5,23.5l-98.8,0  c-8.9,0-16.1,7.2-16.1,16.1v6c0,8.9,7.2,16.1,16.1,16.1L432.1,533.7L432.1,533.7z"/><rect class="st33" height="696" id="_x3C_Slice_x3E__3_" width="696"/></svg>
