<?xml version="1.0" encoding="UTF-8" standalone="no"?>
<svg
   xmlns:dc="http://purl.org/dc/elements/1.1/"
   xmlns:cc="http://creativecommons.org/ns#"
   xmlns:rdf="http://www.w3.org/1999/02/22-rdf-syntax-ns#"
   xmlns:svg="http://www.w3.org/2000/svg"
   xmlns="http://www.w3.org/2000/svg"
   xmlns:sodipodi="http://sodipodi.sourceforge.net/DTD/sodipodi-0.dtd"
   xmlns:inkscape="http://www.inkscape.org/namespaces/inkscape"
   enable-background="new 0 0 512 512"
   id="Layer_1"
   version="1.1"
   viewBox="0 0 512 512"
   xml:space="preserve"
   inkscape:version="0.91 r13725"
   sodipodi:docname="overview.svg"><metadata
     id="metadata11"><rdf:RDF><cc:Work
         rdf:about=""><dc:format>image/svg+xml</dc:format><dc:type
           rdf:resource="http://purl.org/dc/dcmitype/StillImage" /></cc:Work></rdf:RDF></metadata><defs
     id="defs9" /><sodipodi:namedview
     pagecolor="#ffffff"
     bordercolor="#666666"
     borderopacity="1"
     objecttolerance="10"
     gridtolerance="10"
     guidetolerance="10"
     inkscape:pageopacity="0"
     inkscape:pageshadow="2"
     inkscape:window-width="1440"
     inkscape:window-height="837"
     id="namedview7"
     showgrid="false"
     inkscape:zoom="0.65186407"
     inkscape:cx="347.07491"
     inkscape:cy="119.27302"
     inkscape:window-x="-8"
     inkscape:window-y="-8"
     inkscape:window-maximized="1"
     inkscape:current-layer="Layer_1" /><path
     d="m 264.91911,191.08179 -19.05148,0 C 127.69167,198.75064 54.575204,251.4879 0.10169492,322.85409 7.2906796,330.18605 10.422795,333.39796 17.232075,340.7429 c 22.398073,23.46147 57.315089,49.82869 87.970085,66.57583 40.13542,21.92269 88.83845,38.73748 150.18929,38.73748 61.35978,0 110.0526,-16.81224 150.19058,-38.73748 30.75712,-16.80076 57.18922,-39.06798 82.50093,-60.74531 8.87748,-8.43019 16.16776,-16.96245 22.6008,-23.71933 C 456.21408,251.48536 383.09633,198.74682 264.91911,191.08179 Z M 203.63594,375.2492 c -13.28358,-11.92138 -24.31386,-28.77959 -25.40157,-51.44145 -0.0141,-0.28342 -0.008,-0.55025 -0.0192,-0.8311 -9.32722,-4.17594 -16.65649,-12.31843 -20.08174,-22.41165 -0.96132,5.49216 -1.48986,11.32264 -1.48986,17.52717 0,25.27646 8.11569,44.44285 19.68599,59.37969 11.65457,15.04408 26.37054,26.64375 45.72461,33.33852 -68.09795,-8.35698 -118.81044,-37.50169 -159.715682,-75.25104 -3.8606,-3.56314 -7.994402,-8.14505 -12.383536,-12.70398 -1.247289,-1.29197 -4.115929,-3.87975 -4.127418,-4.12486 -0.05362,-1.06345 6.18283,-7.03436 7.938228,-8.89189 29.65282,-31.36481 68.136248,-56.05018 113.039968,-71.12617 16.93225,-5.68366 34.32537,-10.02811 54.61394,-12.70014 0.66514,0.70215 -1.33027,0.76344 -2.54054,1.27026 -13.19932,5.52408 -24.99559,13.26826 -34.62283,23.03338 2.65033,-0.64343 5.40791,-0.9958 8.24462,-0.9958 7.14289,0 13.80063,2.16522 19.42683,5.89559 2.56863,-1.69156 5.29301,-3.28355 8.22038,-4.75298 8.69783,-4.36742 19.09872,-7.44544 30.80053,-8.25612 24.53344,-1.70049 44.19006,8.79359 56.83787,20.00389 12.75887,11.30986 23.5019,29.41025 24.76579,52.07468 1.39027,24.93175 -8.3225,42.51126 -20.32049,55.88548 -12.45758,13.88105 -29.17662,23.09848 -52.07595,24.76451 -23.52617,1.712 -43.10491,-7.6497 -56.51998,-19.68599 z m 253.38498,-47.94853 c -18.99276,20.36262 -42.2521,37.20933 -66.99746,50.80569 -29.40898,16.15731 -61.73767,27.92806 -101.29222,33.02063 18.69659,-7.43906 34.17856,-18.0238 45.72461,-33.33852 11.10433,-14.73385 19.97579,-34.34579 20.00387,-59.06052 0.0268,-24.81304 -8.78464,-44.1556 -20.00387,-59.06053 -11.5486,-15.34026 -26.51481,-26.50587 -45.72461,-33.3398 74.88847,9.44596 130.11138,43.36153 172.1005,87.95502 1.35452,1.43879 4.11721,3.79421 4.12614,4.12614 0.0409,1.16303 -6.34751,7.18755 -7.93696,8.89189 z"
     id="path3"
     inkscape:connector-curvature="0"
     style="clip-rule:evenodd;fill-rule:evenodd"
     sodipodi:nodetypes="cccccsscccccccsccccccccccsccccscccccccccccccc" /><path
     d="m 317.31168,312.6932 c -1.46177,-18.76168 -10.71878,-31.24736 -20.95626,-40.32436 -10.49409,-9.3017 -25.88542,-16.62968 -46.67699,-14.92407 -10.22855,0.84003 -19.4013,4.29466 -26.89908,8.8255 3.91805,6.11389 6.20581,13.47763 6.20581,21.40309 0,20.7571 -15.68751,37.65361 -35.27648,38.32513 1.70817,15.1845 8.48081,26.36287 16.59521,34.64325 10.94986,11.17072 24.92794,19.37066 45.08884,19.37066 18.57402,0 33.67173,-7.72247 45.08756,-19.37066 10.64473,-10.85921 18.47699,-26.78802 16.83139,-47.94854 z"
     id="path5"
     inkscape:connector-curvature="0"
     style="clip-rule:evenodd;fill-rule:evenodd" /></svg>