<?xml version="1.0" encoding="UTF-8" standalone="no"?>
<!-- Created with Inkscape (http://www.inkscape.org/) -->

<svg
   xmlns:dc="http://purl.org/dc/elements/1.1/"
   xmlns:cc="http://creativecommons.org/ns#"
   xmlns:rdf="http://www.w3.org/1999/02/22-rdf-syntax-ns#"
   xmlns:svg="http://www.w3.org/2000/svg"
   xmlns="http://www.w3.org/2000/svg"
   xmlns:sodipodi="http://sodipodi.sourceforge.net/DTD/sodipodi-0.dtd"
   xmlns:inkscape="http://www.inkscape.org/namespaces/inkscape"
   id="svg3536"
   version="1.1"
   viewBox="0 0 65 65"
   inkscape:version="0.48.4 r9939"
   sodipodi:docname="security.svg">
  <defs
     id="defs3538" />
  <sodipodi:namedview
     id="base"
     pagecolor="#ffffff"
     bordercolor="#666666"
     borderopacity="1.0"
     inkscape:pageopacity="0.0"
     inkscape:pageshadow="2"
     inkscape:zoom="5.6477843"
     inkscape:cx="42.525398"
     inkscape:cy="51.503796"
     inkscape:current-layer="layer1"
     showgrid="true"
     inkscape:document-units="px"
     inkscape:grid-bbox="true"
     inkscape:window-width="1301"
     inkscape:window-height="744"
     inkscape:window-x="1505"
     inkscape:window-y="156"
     inkscape:window-maximized="1" />
  <metadata
     id="metadata3541">
    <rdf:RDF>
      <cc:Work
         rdf:about="">
        <dc:format>image/svg+xml</dc:format>
        <dc:type
           rdf:resource="http://purl.org/dc/dcmitype/StillImage" />
        <dc:title />
      </cc:Work>
    </rdf:RDF>
  </metadata>
  <g
     id="layer1"
     inkscape:label="Layer 1"
     inkscape:groupmode="layer">
    <g
       id="g4293"
       transform="matrix(0.48435291,0,0,0.48435291,-278.5624,-782.12044)">
      <path
         sodipodi:nodetypes="cssssccsccccccccc"
         inkscape:connector-curvature="0"
         id="path4648"
         d="m 635.94105,1743.9804 c -14.2747,-9.0822 -23.9998,-18.7597 -32.151,-31.9932 -9.4616,-15.3608 -15.6474,-36.4822 -17.5934,-60.0722 -1.0357,-12.5563 -1.3526,-12.0719 9.5037,-14.535 4.8762,-1.1063 12.3399,-4.8799 22.2216,-11.235 4.0385,-2.5972 10.1004,-5.9834 14.8387,-8.2888 4.478,-2.1789 5.9091,-2.598 8.8944,-2.6045 3.113,-0.014 4.3286,0.3787 9.7228,3.0831 5.709,2.8622 13.9826,7.661 16.0712,9.3212 3.4152,2.7151 16.4818,9.0565 20.1607,9.7843 7.6683,1.5172 9.1133,2.3652 9.5511,5.6043 0.2852,2.1107 -0.6963,14.6609 -1.623,20.7537 -5.5073,36.2027 -19.4477,60.355 -45.1305,78.1893 -1.7088,1.1865 -3.3098,2.1634 -3.5577,2.1706 -0.248,0.014 -1.1179,0.535 -1.9332,1.1728 -2.2846,1.7868 -4.5893,1.4401 -8.9754,-1.3506 z"
         style="fill-opacity:1;stroke:#303030;stroke-width:0.00752053;stroke-linecap:butt;stroke-linejoin:miter;stroke-miterlimit:4;stroke-opacity:1;stroke-dasharray:none;stroke-dashoffset:0" />
      <path
         style="font-size:medium;font-style:normal;font-variant:normal;font-weight:normal;font-stretch:normal;text-indent:0;text-align:start;text-decoration:none;line-height:normal;letter-spacing:normal;word-spacing:normal;text-transform:none;direction:ltr;block-progression:tb;writing-mode:lr-tb;text-anchor:start;baseline-shift:baseline;color:#000000;fill:#ffffff;fill-opacity:1;stroke:none;stroke-width:15.15151501;marker:none;visibility:visible;display:inline;overflow:visible;enable-background:accumulate;font-family:Sans;-inkscape-font-specification:Sans"
         id="path15746"
         d="m 641.46625,1650.9675 c -6.6379,0 -12.7109,2.2678 -17.1102,6.6396 -4.3993,4.3714 -7.0913,10.8261 -7.0913,19.022 0,8.3284 4.4787,16.7582 9.6567,23.1598 2.589,3.2007 5.36,5.8925 7.8904,7.8082 2.5305,1.9157 4.7489,3.1182 6.6544,3.1182 1.9057,0 4.1203,-1.2025 6.6508,-3.1182 2.5304,-1.9157 5.3014,-4.6075 7.8904,-7.8082 5.1779,-6.4018 9.6567,-14.8315 9.6567,-23.1598 0,-8.1959 -2.6921,-14.6503 -7.0914,-19.022 -4.3991,-4.3719 -10.4685,-6.6396 -17.1065,-6.6396 z m 15.6353,23.2196 c 0.1127,0 0.2227,0 0.3323,0.012 0.4387,0.018 0.8565,0.078 1.251,0.1868 0.7889,0.2169 1.5049,0.6613 1.938,1.3593 0.4331,0.6979 0.5145,1.5342 0.3585,2.3375 -0.1559,0.8035 -0.5323,1.6055 -1.0642,2.405 -1.0639,1.599 -2.7779,3.2003 -4.9329,4.537 -2.1546,1.3371 -4.3498,2.1619 -6.2548,2.4049 -0.9527,0.1214 -1.8363,0.1008 -2.6252,-0.1162 -0.789,-0.2166 -1.505,-0.661 -1.9381,-1.3591 -0.4328,-0.6982 -0.5107,-1.5344 -0.3548,-2.3375 0.156,-0.8033 0.5288,-1.6055 1.0605,-2.405 1.0636,-1.5991 2.7784,-3.2005 4.933,-4.5371 2.155,-1.3372 4.3496,-2.162 6.2547,-2.4048 0.3574,-0.045 0.7054,-0.071 1.042,-0.075 z m -31.3564,0.1269 c 0.3362,-0.012 0.6837,0.012 1.0418,0.045 1.9109,0.1929 4.1294,0.9605 6.3185,2.2405 2.1888,1.2802 3.9434,2.8355 5.0485,4.4064 0.5527,0.7853 0.9471,1.5761 1.1241,2.375 0.1769,0.799 0.1194,1.6397 -0.295,2.3488 -0.4148,0.7087 -1.1178,1.1701 -1.9008,1.4077 -0.7829,0.2376 -1.6659,0.2833 -2.6213,0.1868 -1.9109,-0.1929 -4.1289,-0.9605 -6.3184,-2.2405 -2.1882,-1.2801 -3.9435,-2.8358 -5.0487,-4.4064 -0.5526,-0.7855 -0.9471,-1.5759 -1.124,-2.375 -0.1769,-0.799 -0.1195,-1.6391 0.295,-2.349 0.4147,-0.7087 1.1179,-1.1703 1.9008,-1.4077 0.3914,-0.1188 0.8092,-0.1917 1.2472,-0.2202 0.1091,-0.012 0.2202,-0.012 0.3323,-0.012 z"
         inkscape:connector-curvature="0" />
    </g>
  </g>
</svg>
