<?xml version="1.0" ?><svg enable-background="new 0 0 515.91 728.5" id="Layer_1" version="1.1" viewBox="0 0 512 512" xml:space="preserve" xmlns="http://www.w3.org/2000/svg" xmlns:cc="http://creativecommons.org/ns#" xmlns:dc="http://purl.org/dc/elements/1.1/" xmlns:inkscape="http://www.inkscape.org/namespaces/inkscape" xmlns:rdf="http://www.w3.org/1999/02/22-rdf-syntax-ns#" xmlns:sodipodi="http://sodipodi.sourceforge.net/DTD/sodipodi-0.dtd" xmlns:svg="http://www.w3.org/2000/svg"><defs id="defs7"/><g id="g16336" style="fill-opacity:1" transform="matrix(0.49180916,0.49180916,-0.49180916,0.49180916,30765.799,-24585.752)"><g id="g16304" style="fill-opacity:1" transform="matrix(1.0332104,-1.0332104,1.0332104,1.0332104,-58104.733,-7827.9625)"><g id="g16258" style="fill-opacity:1" transform="matrix(-0.70710678,-0.70710679,-0.70710679,0.70710678,30028.9,12436.833)"><path d="m -5899.7188,56409.562 a 4.0004,4.0004 0 0 0 -4,4.25 c 4.4135,67.098 60.2812,120.219 128.4688,120.219 68.1876,0 124.0553,-53.122 128.4688,-120.219 a 4.0004,4.0004 0 0 0 -4,-4.25 l -248.9376,0 z" id="path16194" style="font-size:medium;font-style:normal;font-variant:normal;font-weight:normal;font-stretch:normal;text-indent:0;text-align:start;text-decoration:none;line-height:normal;letter-spacing:normal;word-spacing:normal;text-transform:none;direction:ltr;block-progression:tb;writing-mode:lr-tb;text-anchor:start;baseline-shift:baseline;color:#000000;fill-opacity:1;fill-rule:nonzero;stroke:none;stroke-width:8;marker:none;visibility:visible;display:inline;overflow:visible;enable-background:accumulate;font-family:Sans;-inkscape-font-specification:Sans"/><path d="m -5778.9688,56675.938 c -2.8009,0 -5.0624,2.978 -5.0624,6.687 l 0,160.844 c 5.851,0.02 11.7112,0.04 17.5624,0.06 l 0,-160.906 c 0,-3.709 -2.2615,-6.687 -5.0624,-6.687 l -7.4376,0 z" id="rect16181" style="fill-opacity:1;stroke:none" transform="translate(0,-448)"/><path d="m -5775.25,56661.031 c -20.927,0 -37.9062,16.948 -37.9062,37.875 0,8.804 3.0254,16.911 8.0624,23.344 l -70.25,121.656 c 6.8061,-0.111 13.6301,-0.214 20.4376,-0.281 l 63.6874,-110.344 c 4.8519,2.258 10.265,3.531 15.9688,3.531 5.6938,0 11.0922,-1.281 15.9375,-3.531 l 63.7187,110.344 c 6.7373,-0.02 13.4824,-0.05 20.2188,-0.09 l -70.0312,-121.281 c 5.037,-6.433 8.0624,-14.54 8.0624,-23.344 0,-20.927 -16.9792,-37.875 -37.9062,-37.875 z" id="rect16186" style="fill-opacity:1;stroke:none" transform="translate(0,-448)"/></g><path d="m -5843.2188,56976.875 c -18.008,11.357 -30.3267,30.933 -31.6874,53.437 a 4.0004,4.0004 0 0 0 4,4.25 l 127.8124,0 a 4.0004,4.0004 0 0 0 4,-4.25 c -0.8046,-13.306 -5.4633,-25.586 -12.8437,-35.75 -31.2181,4.142 -63.8972,-2.155 -91.2813,-17.687 z" id="path16273" style="font-size:medium;font-style:normal;font-variant:normal;font-weight:normal;font-stretch:normal;text-indent:0;text-align:start;text-decoration:none;line-height:normal;letter-spacing:normal;word-spacing:normal;text-transform:none;direction:ltr;block-progression:tb;writing-mode:lr-tb;text-anchor:start;baseline-shift:baseline;color:#000000;fill-opacity:1;fill-rule:nonzero;stroke:none;stroke-width:8;marker:none;visibility:visible;display:inline;overflow:visible;enable-background:accumulate;font-family:Sans;-inkscape-font-specification:Sans" transform="translate(0,-448)"/></g><path d="m -5789.375,56079.594 c -46.4843,0 -88.3837,19.187 -117.125,49.812 a 12.0012,12.0012 0 1 0 17.5,16.406 c 24.1955,-25.781 59.7401,-42.218 99.625,-42.218 39.8828,0 75.4625,16.439 99.6562,42.218 a 12.0012,12.0012 0 1 0 17.5,-16.406 c -28.743,-30.626 -70.6738,-49.812 -117.1562,-49.812 z" id="path5989-1" style="font-size:medium;font-style:normal;font-variant:normal;font-weight:normal;font-stretch:normal;text-indent:0;text-align:start;text-decoration:none;line-height:normal;letter-spacing:normal;word-spacing:normal;text-transform:none;direction:ltr;block-progression:tb;writing-mode:lr-tb;text-anchor:start;baseline-shift:baseline;color:#000000;fill-opacity:1;stroke:none;stroke-width:24;marker:none;visibility:visible;display:inline;overflow:visible;enable-background:accumulate;font-family:Sans;-inkscape-font-specification:Sans"/><path d="m -5789.375,55942.844 c -86.5732,0 -164.798,34.306 -219.9688,89.468 a 12.0012,12.0012 0 1 0 16.9688,16.969 c 50.6675,-50.659 122.7648,-82.437 203,-82.437 80.2352,0 152.3668,31.779 203.0312,82.437 a 12.0012,12.0012 0 1 0 16.9688,-16.969 c -55.1698,-55.163 -133.4268,-89.468 -220,-89.468 z" id="path5989-9-8" style="font-size:medium;font-style:normal;font-variant:normal;font-weight:normal;font-stretch:normal;text-indent:0;text-align:start;text-decoration:none;line-height:normal;letter-spacing:normal;word-spacing:normal;text-transform:none;direction:ltr;block-progression:tb;writing-mode:lr-tb;text-anchor:start;baseline-shift:baseline;color:#000000;fill-opacity:1;stroke:none;stroke-width:24;marker:none;visibility:visible;display:inline;overflow:visible;enable-background:accumulate;font-family:Sans;-inkscape-font-specification:Sans"/><path d="m -5789.375,56009.719 c -66.949,0 -127.3923,26.871 -169.6562,70 a 12.0012,12.0012 0 1 0 17.125,16.781 c 37.7436,-38.516 92.0026,-62.781 152.5312,-62.781 60.5266,0 114.8201,24.267 152.5625,62.781 a 12.0012,12.0012 0 1 0 17.125,-16.781 c -42.2652,-43.13 -102.7403,-70 -169.6875,-70 z" id="path5989-98-2" style="font-size:medium;font-style:normal;font-variant:normal;font-weight:normal;font-stretch:normal;text-indent:0;text-align:start;text-decoration:none;line-height:normal;letter-spacing:normal;word-spacing:normal;text-transform:none;direction:ltr;block-progression:tb;writing-mode:lr-tb;text-anchor:start;baseline-shift:baseline;color:#000000;fill-opacity:1;stroke:none;stroke-width:24;marker:none;visibility:visible;display:inline;overflow:visible;enable-background:accumulate;font-family:Sans;-inkscape-font-specification:Sans"/></g></svg>
