<?xml version="1.0" ?><!DOCTYPE svg  PUBLIC '-//W3C//DTD SVG 1.0//EN'  'http://www.w3.org/TR/2001/REC-SVG-20010904/DTD/svg10.dtd'><svg enable-background="new 0 0 16 16" id="Layer_1" version="1.0" viewBox="0 0 16 16" xml:space="preserve" xmlns="http://www.w3.org/2000/svg" xmlns:xlink="http://www.w3.org/1999/xlink"><g><defs><rect height="16" id="SVGID_1_" width="16"/></defs><path d="M13,2.172C11.85,1.469,9.82,1,7.5,1C5.182,1,3.15,1.469,2,2.172   C1.371,2.557,1,3.012,1,3.5v9c0,0.488,0.371,0.943,1,1.328C3.15,14.531,5.182,15,7.5,15c2.32,0,4.35-0.469,5.5-1.172   c0.631-0.385,1-0.84,1-1.328v-9C14,3.012,13.631,2.557,13,2.172 M13,12.498C12.934,12.934,10.926,14,7.5,14S2.066,12.934,2,12.502   v-1.674C3.15,11.531,5.182,12,7.5,12c2.32,0,4.35-0.469,5.5-1.172V12.498z M13,9.498C12.934,9.934,10.926,11,7.5,11   S2.066,9.934,2,9.502V7.828C3.15,8.531,5.182,9,7.5,9c2.32,0,4.35-0.469,5.5-1.172V9.498z M13,6.498C12.934,6.934,10.926,8,7.5,8   S2.066,6.934,2,6.502V4.828C3.15,5.531,5.182,6,7.5,6c2.32,0,4.35-0.469,5.5-1.172V6.498z M7.5,5C4.074,5,2.066,3.934,2,3.502   C2.066,3.066,4.074,2,7.5,2s5.434,1.066,5.5,1.498C12.934,3.934,10.926,5,7.5,5" /></g></svg>
