<?xml version="1.0" ?><!DOCTYPE svg  PUBLIC '-//W3C//DTD SVG 1.1//EN'  'http://www.w3.org/Graphics/SVG/1.1/DTD/svg11.dtd'><svg enable-background="new 0 0 256 256" id="Layer_1" version="1.1" viewBox="30 0 200 230" width="256px" xml:space="preserve" xmlns="http://www.w3.org/2000/svg" xmlns:xlink="http://www.w3.org/1999/xlink"><g><g><path clip-rule="evenodd" d="M61.001,57.991C60.8,45.844,70.692,35.946,82.849,36.146v-2.313     c-12.156,0.2-22.049-9.697-21.848-21.844h-2.306c0.202,12.146-9.69,22.044-21.847,21.844v2.313     c12.156-0.2,22.049,9.697,21.847,21.845H61.001L61.001,57.991z M107.05,93.53c1.773-15.298,13.916-27.444,29.224-29.219     c2.359-0.272,2.36-3.752,0-4.024c-15.308-1.773-27.45-13.92-29.224-29.218c-0.273-2.358-3.741-2.358-4.014,0     c-1.773,15.298-13.916,27.444-29.224,29.218c-2.36,0.272-2.36,3.752,0,4.024c15.308,1.774,27.45,13.921,29.224,29.219     C103.309,95.89,106.776,95.89,107.05,93.53L107.05,93.53z M50.252,108.036c0.421,0,0.839-0.011,1.254-0.03     c-0.219-13.204,10.533-23.961,23.746-23.743v-2.514c-13.213,0.217-23.965-10.541-23.746-23.743H49     c0.218,13.202-10.534,23.96-23.747,23.743v2.514C38.466,84.045,49.218,94.802,49,108.006     C49.414,108.025,49.832,108.036,50.252,108.036L50.252,108.036z" fill-rule="evenodd"/><path clip-rule="evenodd" d="M175.021,115.985l57.974,33.304v32.001l-57.974,33.304v-23.857     l44.366-25.447l-44.366-25.446V115.985L175.021,115.985z M145.167,86.569l15.217,4.943L110.835,244.01l-15.217-4.944     L145.167,86.569L145.167,86.569z M80.987,115.985l-57.981,33.304v32.001l57.981,33.304v-23.857l-44.374-25.447l44.374-25.446     V115.985L80.987,115.985z" fill-rule="evenodd"/></g></g></svg>
