<?xml version="1.0" ?><!DOCTYPE svg  PUBLIC '-//W3C//DTD SVG 1.1//EN'  'http://www.w3.org/Graphics/SVG/1.1/DTD/svg11.dtd'><svg baseProfile="full" height="57px" version="1.1" width="57px" xmlns="http://www.w3.org/2000/svg" xmlns:ev="http://www.w3.org/2001/xml-events" xmlns:xlink="http://www.w3.org/1999/xlink"><path d="M51.0039999999999,56.004 C51.0039999999999,56.004 5.00399999999991,56.004 5.00399999999991,56.004 C2.24700000000007,56.004 0.00399999999991,53.76 0.00399999999991,51.004 C0.00399999999991,51.004 0.00399999999991,5.00399999999999 0.00399999999991,5.00399999999999 C0.00399999999991,2.24700000000001 2.24700000000007,0.00399999999999 5.00399999999991,0.00399999999999 C5.00399999999991,0.00399999999999 51.0039999999999,0.00399999999999 51.0039999999999,0.00399999999999 C53.761,0.00399999999999 56.0050000000001,2.24700000000001 56.0050000000001,5.00399999999999 C56.0050000000001,5.00399999999999 56.0050000000001,51.004 56.0050000000001,51.004 C56.0050000000001,53.76 53.761,56.004 51.0039999999999,56.004 ZM54.0050000000001,5.00399999999999 C54.0050000000001,3.34899999999999 52.6590000000001,2.00399999999999 51.0039999999999,2.00399999999999 C51.0039999999999,2.00399999999999 5.00399999999991,2.00399999999999 5.00399999999991,2.00399999999999 C3.34999999999991,2.00399999999999 2.00399999999991,3.34899999999999 2.00399999999991,5.00399999999999 C2.00399999999991,5.00399999999999 2.00399999999991,51.004 2.00399999999991,51.004 C2.00399999999991,52.658 3.34999999999991,54.003 5.00399999999991,54.003 C5.00399999999991,54.003 51.0039999999999,54.003 51.0039999999999,54.003 C52.6590000000001,54.003 54.0050000000001,52.658 54.0050000000001,51.004 C54.0050000000001,51.004 54.0050000000001,5.00399999999999 54.0050000000001,5.00399999999999 ZM44.0039999999999,35.902 C44.0039999999999,35.902 44.0039999999999,47.003 44.0039999999999,47.003 C44.0039999999999,47.556 43.557,48.004 43.0039999999999,48.004 C42.452,48.004 42.0039999999999,47.556 42.0039999999999,47.003 C42.0039999999999,47.003 42.0039999999999,35.902 42.0039999999999,35.902 C39.7249999999999,35.438 38.0039999999999,33.418 38.0039999999999,31.004 C38.0039999999999,28.589 39.7249999999999,26.569 42.0039999999999,26.105 C42.0039999999999,26.105 42.0039999999999,9.00399999999999 42.0039999999999,9.00399999999999 C42.0039999999999,8.45099999999999 42.452,8.00399999999999 43.0039999999999,8.00399999999999 C43.557,8.00399999999999 44.0039999999999,8.45099999999999 44.0039999999999,9.00399999999999 C44.0039999999999,9.00399999999999 44.0039999999999,26.105 44.0039999999999,26.105 C46.2840000000001,26.569 48.0050000000001,28.589 48.0050000000001,31.004 C48.0050000000001,33.418 46.2840000000001,35.438 44.0039999999999,35.902 ZM43.0039999999999,28.004 C41.3499999999999,28.004 40.0039999999999,29.349 40.0039999999999,31.004 C40.0039999999999,32.658 41.3499999999999,34.004 43.0039999999999,34.004 C44.6590000000001,34.004 46.0050000000001,32.658 46.0050000000001,31.004 C46.0050000000001,29.349 44.6590000000001,28.004 43.0039999999999,28.004 ZM34.0039999999999,21.903 C34.0039999999999,21.903 34.0039999999999,47.003 34.0039999999999,47.003 C34.0039999999999,47.556 33.557,48.004 33.0039999999999,48.004 C32.452,48.004 32.0039999999999,47.556 32.0039999999999,47.003 C32.0039999999999,47.003 32.0039999999999,21.902 32.0039999999999,21.902 C29.7249999999999,21.438 28.0039999999999,19.418 28.0039999999999,17.004 C28.0039999999999,14.589 29.7249999999999,12.569 32.0039999999999,12.105 C32.0039999999999,12.105 32.0039999999999,9.00399999999999 32.0039999999999,9.00399999999999 C32.0039999999999,8.45099999999999 32.452,8.00399999999999 33.0039999999999,8.00399999999999 C33.557,8.00399999999999 34.0039999999999,8.45099999999999 34.0039999999999,9.00399999999999 C34.0039999999999,9.00399999999999 34.0039999999999,12.105 34.0039999999999,12.105 C36.2840000000001,12.569 38.0039999999999,14.589 38.0039999999999,17.004 C38.0039999999999,19.418 36.2840000000001,21.438 34.0039999999999,21.903 ZM33.0039999999999,14.004 C31.3499999999999,14.004 30.0050000000001,15.349 30.0050000000001,17.004 C30.0050000000001,18.658 31.3499999999999,20.004 33.0039999999999,20.004 C34.6579999999999,20.004 36.0039999999999,18.658 36.0039999999999,17.004 C36.0039999999999,15.349 34.6579999999999,14.004 33.0039999999999,14.004 ZM24.0039999999999,43.902 C24.0039999999999,43.902 24.0039999999999,47.003 24.0039999999999,47.003 C24.0039999999999,47.556 23.556,48.004 23.0039999999999,48.004 C22.452,48.004 22.0039999999999,47.556 22.0039999999999,47.003 C22.0039999999999,47.003 22.0039999999999,43.902 22.0039999999999,43.902 C19.7249999999999,43.438 18.0039999999999,41.418 18.0039999999999,39.004 C18.0039999999999,36.589 19.7249999999999,34.569 22.0039999999999,34.105 C22.0039999999999,34.105 22.0039999999999,9.00399999999999 22.0039999999999,9.00399999999999 C22.0039999999999,8.45099999999999 22.452,8.00399999999999 23.0039999999999,8.00399999999999 C23.556,8.00399999999999 24.0039999999999,8.45099999999999 24.0039999999999,9.00399999999999 C24.0039999999999,9.00399999999999 24.0039999999999,34.105 24.0039999999999,34.105 C26.2840000000001,34.569 28.0039999999999,36.589 28.0039999999999,39.004 C28.0039999999999,41.418 26.2840000000001,43.438 24.0039999999999,43.902 ZM23.0039999999999,36.004 C21.3499999999999,36.004 20.0039999999999,37.349 20.0039999999999,39.004 C20.0039999999999,40.658 21.3499999999999,42.003 23.0039999999999,42.003 C24.6590000000001,42.003 26.0039999999999,40.658 26.0039999999999,39.004 C26.0039999999999,37.349 24.6590000000001,36.004 23.0039999999999,36.004 ZM14.0039999999999,27.902 C14.0039999999999,27.902 14.0039999999999,47.003 14.0039999999999,47.003 C14.0039999999999,47.556 13.556,48.004 13.0039999999999,48.004 C12.452,48.004 12.0039999999999,47.556 12.0039999999999,47.003 C12.0039999999999,47.003 12.0039999999999,27.902 12.0039999999999,27.902 C9.72499999999991,27.438 8.00399999999991,25.418 8.00399999999991,23.004 C8.00399999999991,20.589 9.72499999999991,18.569 12.0039999999999,18.105 C12.0039999999999,18.105 12.0039999999999,9.00399999999999 12.0039999999999,9.00399999999999 C12.0039999999999,8.45099999999999 12.452,8.00399999999999 13.0039999999999,8.00399999999999 C13.556,8.00399999999999 14.0039999999999,8.45099999999999 14.0039999999999,9.00399999999999 C14.0039999999999,9.00399999999999 14.0039999999999,18.105 14.0039999999999,18.105 C16.2829999999999,18.569 18.0039999999999,20.589 18.0039999999999,23.004 C18.0039999999999,25.418 16.2829999999999,27.438 14.0039999999999,27.902 ZM13.0039999999999,20.004 C11.3499999999999,20.004 10.0039999999999,21.349 10.0039999999999,23.004 C10.0039999999999,24.658 11.3499999999999,26.004 13.0039999999999,26.004 C14.6590000000001,26.004 16.0039999999999,24.658 16.0039999999999,23.004 C16.0039999999999,21.349 14.6590000000001,20.004 13.0039999999999,20.004 Z " fill="rgb( 80, 80, 112 )"/></svg>