<?xml version="1.0" encoding="UTF-8" standalone="no"?>
<!-- Created with Inkscape (http://www.inkscape.org/) -->

<svg
   xmlns:dc="http://purl.org/dc/elements/1.1/"
   xmlns:cc="http://creativecommons.org/ns#"
   xmlns:rdf="http://www.w3.org/1999/02/22-rdf-syntax-ns#"
   xmlns:svg="http://www.w3.org/2000/svg"
   xmlns="http://www.w3.org/2000/svg"
   xmlns:sodipodi="http://sodipodi.sourceforge.net/DTD/sodipodi-0.dtd"
   xmlns:inkscape="http://www.inkscape.org/namespaces/inkscape"
   viewBox="0 -140 640 640"
   id="svg3001"
   version="1.1"
   inkscape:version="0.48.4 r9939"
   sodipodi:docname="New document 1">
  <defs
     id="defs3003" />
  <sodipodi:namedview
     id="base"
     pagecolor="#ffffff"
     bordercolor="#666666"
     borderopacity="1.0"
     inkscape:pageopacity="0.0"
     inkscape:pageshadow="2"
     inkscape:zoom="0.66015806"
     inkscape:cx="456.25892"
     inkscape:cy="214.73555"
     inkscape:current-layer="layer1"
     inkscape:document-units="px"
     showgrid="false"
     inkscape:window-x="1505"
     inkscape:window-y="156"
     inkscape:window-maximized="1" />
  <metadata
     id="metadata3006">
    <rdf:RDF>
      <cc:Work
         rdf:about="">
        <dc:format>image/svg+xml</dc:format>
        <dc:type
           rdf:resource="http://purl.org/dc/dcmitype/StillImage" />
        <dc:title></dc:title>
      </cc:Work>
    </rdf:RDF>
  </metadata>
  <g
     id="layer1"
     inkscape:label="Layer 1"
     inkscape:groupmode="layer"
     transform="translate(0,22)">
    <g
       id="g4394"
       transform="matrix(5.3043253,0,0,5.3043253,-375.09569,-2395.6377)">
      <path
         inkscape:connector-curvature="0"
         id="rect4358"
         d="m 78.996311,447.50572 c -4.58664,0 -8.28125,3.69461 -8.28125,8.28125 l 0,67.65625 c 0,4.58664 3.69461,8.28125 8.28125,8.28125 l 25.749999,0 c 3.97971,-10.24494 13.94219,-17.5 25.59375,-17.5 11.65156,0 21.61404,7.25506 25.59375,17.5 l 27.15625,0 c 4.58664,0 8.28125,-3.69461 8.28125,-8.28125 l 0,-67.65625 c 0,-4.58664 -3.69461,-8.28125 -8.28125,-8.28125 l -104.093749,0 z"
         style="fill-opacity:1;stroke:none" />
      <path
         inkscape:connector-curvature="0"
         id="path4360"
         d="m 130.46506,520.13072 c -11.95367,0 -21.65625,9.70258 -21.65625,21.65625 0,0.11731 -0.002,0.22689 0,0.34375 l 43.28125,0 c 0.002,-0.11686 0,-0.22644 0,-0.34375 0,-11.95367 -9.67133,-21.65625 -21.625,-21.65625 z"
         style="fill-opacity:1;stroke:none" />
      <rect
         ry="0"
         y="464.30695"
         x="129.15454"
         height="11.827338"
         width="49.67482"
         id="rect4362"
         style="fill:#ffffff;fill-opacity:1;stroke:none" />
      <rect
         y="483.46722"
         x="129.15454"
         height="12.063885"
         width="35.245468"
         id="rect4364"
         style="fill:#ffffff;fill-opacity:1;stroke:none" />
      <path
         transform="translate(346.77756,957.06822)"
         d="m -258.54561,-450.89252 c 0,2.61283 -2.11812,4.73094 -4.73094,4.73094 -2.61282,0 -4.73094,-2.11811 -4.73094,-4.73094 0,-2.61282 2.11812,-4.73093 4.73094,-4.73093 2.61282,0 4.73094,2.11811 4.73094,4.73093 z"
         sodipodi:ry="4.7309356"
         sodipodi:rx="4.7309356"
         sodipodi:cy="-450.89252"
         sodipodi:cx="-263.27655"
         id="path4366"
         style="fill-opacity:0.40182651;stroke:none"
         sodipodi:type="arc" />
      <path
         transform="translate(360.77756,957.06822)"
         sodipodi:type="arc"
         style="fill:#ffffff;fill-opacity:1;stroke:none"
         id="path4368"
         sodipodi:cx="-263.27655"
         sodipodi:cy="-450.89252"
         sodipodi:rx="4.7309356"
         sodipodi:ry="4.7309356"
         d="m -258.54561,-450.89252 c 0,2.61283 -2.11812,4.73094 -4.73094,4.73094 -2.61282,0 -4.73094,-2.11811 -4.73094,-4.73094 0,-2.61282 2.11812,-4.73093 4.73094,-4.73093 2.61282,0 4.73094,2.11811 4.73094,4.73093 z" />
      <path
         d="m -258.54561,-450.89252 c 0,2.61283 -2.11812,4.73094 -4.73094,4.73094 -2.61282,0 -4.73094,-2.11811 -4.73094,-4.73094 0,-2.61282 2.11812,-4.73093 4.73094,-4.73093 2.61282,0 4.73094,2.11811 4.73094,4.73093 z"
         sodipodi:ry="4.7309356"
         sodipodi:rx="4.7309356"
         sodipodi:cy="-450.89252"
         sodipodi:cx="-263.27655"
         id="path4370"
         style="fill:#ffffff;fill-opacity:1;stroke:none"
         sodipodi:type="arc"
         transform="translate(372.77756,957.06822)" />
      <path
         transform="translate(346.77756,957.06822)"
         sodipodi:type="arc"
         style="fill:#ffffff;fill-opacity:1;stroke:none"
         id="path4372"
         sodipodi:cx="-263.27655"
         sodipodi:cy="-450.89252"
         sodipodi:rx="4.7309356"
         sodipodi:ry="4.7309356"
         d="m -258.54561,-450.89252 c 0,2.61283 -2.11812,4.73094 -4.73094,4.73094 -2.61282,0 -4.73094,-2.11811 -4.73094,-4.73094 0,-2.61282 2.11812,-4.73093 4.73094,-4.73093 2.61282,0 4.73094,2.11811 4.73094,4.73093 z" />
      <path
         inkscape:connector-curvature="0"
         id="path4374"
         d="m 95.090061,462.78697 c -7.74083,0.18723 -13.96875,6.52661 -13.96875,14.3125 0,7.90379 6.40871,14.3125 14.3125,14.3125 7.903789,0 14.312499,-6.40871 14.312499,-14.3125 0,-0.16831 -0.0255,-0.3331 -0.0312,-0.5 l -14.624999,0 0,-13.8125 z"
         style="fill:#ffffff;fill-opacity:1;stroke:none" />
      <path
         inkscape:connector-curvature="0"
         id="path4376"
         d="m 99.433811,456.78697 c -0.1934,0 -0.37096,0.0237 -0.5625,0.0312 l 0,15.0625 14.843749,0 c 0.014,-0.25924 0.0312,-0.51852 0.0312,-0.78125 0,-7.90379 -6.40871,-14.3125 -14.312499,-14.3125 z"
         style="fill:#ffffff;fill-opacity:1;stroke:none" />
    </g>
  </g>
</svg>
