<?xml version="1.0" encoding="UTF-8" standalone="no"?>
<!-- Created with Inkscape (http://www.inkscape.org/) -->

<svg
   xmlns:dc="http://purl.org/dc/elements/1.1/"
   xmlns:cc="http://creativecommons.org/ns#"
   xmlns:rdf="http://www.w3.org/1999/02/22-rdf-syntax-ns#"
   xmlns:svg="http://www.w3.org/2000/svg"
   xmlns="http://www.w3.org/2000/svg"
   xmlns:sodipodi="http://sodipodi.sourceforge.net/DTD/sodipodi-0.dtd"
   xmlns:inkscape="http://www.inkscape.org/namespaces/inkscape"
   viewBox="0 0 100 100"
   version="1.1"
   id="svg4537"
   inkscape:version="0.92.1 r15371"
   sodipodi:docname="easy_to_sync.svg">
  <defs
     id="defs4531" />
  <sodipodi:namedview
     id="base"
     pagecolor="#ffffff"
     bordercolor="#666666"
     borderopacity="1.0"
     inkscape:pageopacity="0.0"
     inkscape:pageshadow="2"
     inkscape:zoom="1.4"
     inkscape:cx="155.83798"
     inkscape:cy="116.01065"
     inkscape:document-units="mm"
     inkscape:current-layer="layer1"
     showgrid="false"
     inkscape:window-width="1838"
     inkscape:window-height="1051"
     inkscape:window-x="73"
     inkscape:window-y="-9"
     inkscape:window-maximized="1" />
  <metadata
     id="metadata4534">
    <rdf:RDF>
      <cc:Work
         rdf:about="">
        <dc:format>image/svg+xml</dc:format>
        <dc:type
           rdf:resource="http://purl.org/dc/dcmitype/StillImage" />
        <dc:title></dc:title>
      </cc:Work>
    </rdf:RDF>
  </metadata>
  <g
     inkscape:label="Layer 1"
     inkscape:groupmode="layer"
     id="layer1"
     transform="translate(0,-197)">
    <g
       id="g5135"
       transform="translate(-0.64083905,-10.52385)">
      <path
         inkscape:connector-curvature="0"
         id="path5093"
         d="m 50.522684,223.27356 a 34.250353,34.250353 0 0 0 -22.102244,8.11521 l 7.935312,7.93532 a 23.112826,23.112826 0 0 1 14.166932,-4.91289 23.112826,23.112826 0 0 1 23.093973,22.58249 H 61.674809 l 18.133068,18.13307 18.133068,-18.13307 H 84.746676 A 34.250353,34.250353 0 0 0 50.522684,223.27356 Z"
         style="fill-opacity:1;stroke:none;stroke-width:4.42529345;stroke-miterlimit:4;stroke-dasharray:none;stroke-opacity:1" />
      <path
         inkscape:connector-curvature="0"
         id="rect5098"
         d="M 21.4738,239.14495 3.3407331,257.27802 H 16.279637 a 34.250353,34.250353 0 0 0 -0.0069,0.24621 34.250353,34.250353 0 0 0 34.249904,34.24991 34.250353,34.250353 0 0 0 23.528471,-9.41719 l -7.865946,-7.86517 a 23.112826,23.112826 0 0 1 -15.662525,6.14548 23.112826,23.112826 0 0 1 -23.113026,-23.11303 23.112826,23.112826 0 0 1 0.01372,-0.24621 h 12.183486 z"
         style="fill-opacity:1;stroke:none;stroke-width:4.42529345;stroke-miterlimit:4;stroke-dasharray:none;stroke-opacity:1" />
    </g>
  </g>
</svg>
