<?xml version="1.0" encoding="UTF-8" standalone="no"?>
<!-- Created with Inkscape (http://www.inkscape.org/) -->

<svg
   xmlns:dc="http://purl.org/dc/elements/1.1/"
   xmlns:cc="http://creativecommons.org/ns#"
   xmlns:rdf="http://www.w3.org/1999/02/22-rdf-syntax-ns#"
   xmlns:svg="http://www.w3.org/2000/svg"
   xmlns="http://www.w3.org/2000/svg"
   xmlns:sodipodi="http://sodipodi.sourceforge.net/DTD/sodipodi-0.dtd"
   xmlns:inkscape="http://www.inkscape.org/namespaces/inkscape"
   viewBox="0 0 100 100"
   version="1.1"
   id="svg8"
   inkscape:version="0.92.1 r15371"
   sodipodi:docname="easy_to_versioning.svg">
  <defs
     id="defs2" />
  <sodipodi:namedview
     id="base"
     pagecolor="#ffffff"
     bordercolor="#666666"
     borderopacity="1.0"
     inkscape:pageopacity="0.0"
     inkscape:pageshadow="2"
     inkscape:zoom="1.4"
     inkscape:cx="287.16958"
     inkscape:cy="249.65283"
     inkscape:document-units="mm"
     inkscape:current-layer="layer1"
     showgrid="false"
     showguides="false"
     inkscape:window-width="1838"
     inkscape:window-height="1051"
     inkscape:window-x="73"
     inkscape:window-y="-9"
     inkscape:window-maximized="1" />
  <metadata
     id="metadata5">
    <rdf:RDF>
      <cc:Work
         rdf:about="">
        <dc:format>image/svg+xml</dc:format>
        <dc:type
           rdf:resource="http://purl.org/dc/dcmitype/StillImage" />
        <dc:title></dc:title>
      </cc:Work>
    </rdf:RDF>
  </metadata>
  <g
     inkscape:label="Layer 1"
     inkscape:groupmode="layer"
     id="layer1"
     transform="translate(0,-197)">
    <g
       id="g4529"
       transform="translate(-54.050595,123.59821)">
      <path
         inkscape:connector-curvature="0"
         id="rect4504"
         d="m 59.553988,110.03536 v 57.30555 H 147.3972 v -57.30555 z m 23.367565,19.83135 h 6.710183 c -2.62e-4,0.0134 -0.0021,0.0264 -0.0021,0.0398 v 7.07657 c 0,1.83225 1.475052,3.3073 3.307292,3.3073 h 20.686082 c 1.83224,0 3.30729,-1.47505 3.30729,-3.3073 v -7.07657 c 0,-0.0134 -0.002,-0.0264 -0.002,-0.0398 h 6.71019 c 0,0.0149 10e-4,0.0296 10e-4,0.0445 v 7.06778 c 0,5.57757 -4.49003,10.0676 -10.06761,10.0676 H 92.988563 c -5.577565,0 -10.068118,-4.49003 -10.068118,-10.0676 v -7.06778 c 0,-0.0149 0.0011,-0.0296 0.0011,-0.0445 z"
         style="fill-opacity:1;stroke:none;stroke-width:2.93338251;stroke-miterlimit:4;stroke-dasharray:none;stroke-opacity:1" />
      <path
         sodipodi:nodetypes="ccccc"
         inkscape:connector-curvature="0"
         id="rect4518"
         d="m 62.989732,99.412949 h 81.255428 l 3.35454,6.709081 H 59.625744 Z"
         style="fill-opacity:1;stroke:none;stroke-width:3;stroke-miterlimit:4;stroke-dasharray:none;stroke-opacity:1" />
      <path
         style="fill-opacity:1;stroke:none;stroke-width:3;stroke-miterlimit:4;stroke-dasharray:none;stroke-opacity:1"
         d="m 69.607002,89.358776 h 67.822788 l 3.35454,6.709048 H 66.243014 Z"
         id="path4521"
         inkscape:connector-curvature="0"
         sodipodi:nodetypes="ccccc" />
      <path
         sodipodi:nodetypes="ccccc"
         inkscape:connector-curvature="0"
         id="path4523"
         d="m 76.630548,79.420682 h 54.048342 l 3.35454,6.709048 H 73.26656 Z"
         style="fill-opacity:1;stroke:none;stroke-width:3;stroke-miterlimit:4;stroke-dasharray:none;stroke-opacity:1" />
    </g>
  </g>
</svg>
