<?xml version="1.0" encoding="UTF-8" standalone="no"?>
<svg
   xmlns:dc="http://purl.org/dc/elements/1.1/"
   xmlns:cc="http://creativecommons.org/ns#"
   xmlns:rdf="http://www.w3.org/1999/02/22-rdf-syntax-ns#"
   xmlns:svg="http://www.w3.org/2000/svg"
   xmlns="http://www.w3.org/2000/svg"
   xmlns:sodipodi="http://sodipodi.sourceforge.net/DTD/sodipodi-0.dtd"
   xmlns:inkscape="http://www.inkscape.org/namespaces/inkscape"
   enable-background="new 0 0 16 16"
   id="Layer_1"
   version="1.0"
   viewBox="0 0 16 16"
   xml:space="preserve"
   inkscape:version="0.91 r13725"
   sodipodi:docname="backend (copy).svg"><metadata
     id="metadata14"><rdf:RDF><cc:Work
         rdf:about=""><dc:format>image/svg+xml</dc:format><dc:type
           rdf:resource="http://purl.org/dc/dcmitype/StillImage" /></cc:Work></rdf:RDF></metadata><defs
     id="defs12" /><sodipodi:namedview
     pagecolor="#ffffff"
     bordercolor="#666666"
     borderopacity="1"
     objecttolerance="10"
     gridtolerance="10"
     guidetolerance="10"
     inkscape:pageopacity="0"
     inkscape:pageshadow="2"
     inkscape:window-width="1440"
     inkscape:window-height="876"
     id="namedview10"
     showgrid="false"
     inkscape:zoom="10.429825"
     inkscape:cx="-7.7733734"
     inkscape:cy="1.7508507"
     inkscape:window-x="0"
     inkscape:window-y="24"
     inkscape:window-maximized="1"
     inkscape:current-layer="Layer_1" /><g
     id="g3"><defs
       id="defs5"><rect
         height="16"
         id="SVGID_1_"
         width="16" /></defs><path
       d="M13,2.172C11.85,1.469,9.82,1,7.5,1C5.182,1,3.15,1.469,2,2.172   C1.371,2.557,1,3.012,1,3.5v9c0,0.488,0.371,0.943,1,1.328C3.15,14.531,5.182,15,7.5,15c2.32,0,4.35-0.469,5.5-1.172   c0.631-0.385,1-0.84,1-1.328v-9C14,3.012,13.631,2.557,13,2.172 M13,12.498C12.934,12.934,10.926,14,7.5,14S2.066,12.934,2,12.502   v-1.674C3.15,11.531,5.182,12,7.5,12c2.32,0,4.35-0.469,5.5-1.172V12.498z M13,9.498C12.934,9.934,10.926,11,7.5,11   S2.066,9.934,2,9.502V7.828C3.15,8.531,5.182,9,7.5,9c2.32,0,4.35-0.469,5.5-1.172V9.498z M13,6.498C12.934,6.934,10.926,8,7.5,8   S2.066,6.934,2,6.502V4.828C3.15,5.531,5.182,6,7.5,6c2.32,0,4.35-0.469,5.5-1.172V6.498z M7.5,5C4.074,5,2.066,3.934,2,3.502   C2.066,3.066,4.074,2,7.5,2s5.434,1.066,5.5,1.498C12.934,3.934,10.926,5,7.5,5"
       id="path8" /></g><path
     style="fill-opacity:1;fill-rule:evenodd;stroke:#ffffff;stroke-width:0.5;stroke-linecap:butt;stroke-linejoin:miter;stroke-miterlimit:4;stroke-dasharray:none;stroke-opacity:1"
     d="m 3.4676315,6.2125853 2.040785,0 4.3345602,3.3732 -4.3514262,3.3900657 -1.990187,0 3.1221215,-2.580166 -8.1144575,-0.01687 0.01687,-1.5692033 8.1313236,0.01687 z"
     id="path3218"
     inkscape:connector-curvature="0"
     sodipodi:nodetypes="cccccccccc" /></svg>