<?xml version="1.0" ?><svg enable-background="new 0 0 515.91 728.5" height="512" id="Layer_1" version="1.1" viewBox="0 0 512.00003 512" width="512" xml:space="preserve" xmlns="http://www.w3.org/2000/svg" xmlns:cc="http://creativecommons.org/ns#" xmlns:dc="http://purl.org/dc/elements/1.1/" xmlns:inkscape="http://www.inkscape.org/namespaces/inkscape" xmlns:rdf="http://www.w3.org/1999/02/22-rdf-syntax-ns#" xmlns:sodipodi="http://sodipodi.sourceforge.net/DTD/sodipodi-0.dtd" xmlns:svg="http://www.w3.org/2000/svg"><defs id="defs7"/><path d="m 255.71383,18.769616 c -16.4762,0 -29.8422,13.366 -29.8422,29.842 0,16.477 13.366,29.842 29.8422,29.842 16.48081,0 29.80761,-13.365 29.80761,-29.842 0,-16.476 -13.3266,-29.842 -29.80761,-29.842 z m -134.5328,48.025 c -0.5671,0 -1.133,0.01 -1.7003,0.03 -6.2113,0.258 -12.4032,2.469 -17.5931,6.696 -12.764105,10.422 -14.682505,29.218004 -4.268205,41.988014 10.411305,12.77099 29.206405,14.65899 41.987505,4.23299 12.7594,-10.405 14.6737,-29.192004 4.268,-41.952004 -5.7946,-7.108 -14.1879,-10.871 -22.6939,-11 z m 272.39711,2.187 c -8.5947,-0.09 -17.1404,3.531 -23.1104,10.617 -10.6144,12.609 -9.0247,31.438004 3.5742,42.057004 12.5975,10.608 31.4422,8.99 42.0567,-3.60899 10.6131,-12.59701 8.9899,-31.438014 -3.6088,-42.057014 -5.5213,-4.643 -12.2269,-6.943 -18.9117,-7.008 z m -137.86431,23.214 -20.1608,34.908004 16.6215,0 0,78.94301 7.0441,0 0,-78.94301 16.65621,0 -20.16101,-34.908004 z m -107.432,38.239004 6.4544,39.801 12.9085,-10.514 49.8642,61.17701 5.4479,-4.442 -49.8642,-61.17701 12.8738,-10.513 -37.6846,-14.332 z m 216.91151,1.736 -37.9274,13.706 12.735,10.723 -50.836,60.37801 5.3786,4.545 50.8358,-60.37701 12.7351,10.722 7.0789,-39.697 z M 45.360925,192.65163 c -13.872301,0.208 -26.152302,10.125 -28.836002,24.292 -3.0614,16.199 7.578901,31.822 23.769701,34.873 16.185501,3.067 31.812401,-7.563 34.873801,-23.769 3.0503,-16.181 -7.59,-31.814 -23.7698,-34.875 -2.0231,-0.382 -4.0561,-0.55 -6.0377,-0.521 z m 420.254925,3.367 c -1.4983,0.03 -3.0235,0.152 -4.5456,0.416 -16.2367,2.806 -27.12211,18.25 -24.32501,34.492 2.8071,16.231 18.26571,27.132 34.49211,24.326 16.2264,-2.807 27.1221,-18.261 24.3248,-34.493 -2.5439,-14.714 -15.4614,-25.027 -29.9463,-24.741 z m -338.88282,21.271 -38.066105,13.29 30.570805,26.303 3.0883,-16.343 77.5552,14.677 1.3186,-6.94 -77.5551,-14.643 3.0883,-16.344 z m 258.62111,2.048 2.8455,16.378 -77.7634,13.464 1.1798,6.905 77.798,-13.429 2.8108,16.413 30.9873,-25.817 -37.858,-13.914 z m -129.64031,4.649 c -21.0908,0 -38.2049,17.119 -38.2049,38.206 0,21.09 17.114,38.169 38.2049,38.169 21.08681,0 38.17031,-17.079 38.17031,-38.169 0,-21.087 -17.0836,-38.206 -38.17031,-38.206 z m -50.6623,62.669 -68.7412,38.76 -8.1893,-14.505 -20.5426,34.7 40.3565,0.418 -8.1892,-14.471 68.7758,-38.76 -3.47,-6.142 z m 100.90831,0.833 -3.574,6.073 68.1513,39.8 -8.3975,14.401 40.3218,0.209 -19.9874,-35.048 -8.3975,14.365 -68.1167,-39.8 z m -73.21741,26.025 -27.6562,73.94601 -15.5805,-5.83 6.6278,39.766 31.1261,-25.642 -15.5803,-5.83 27.656,-73.91201 -6.5929,-2.498 z m 45.11031,0.382 -6.66241,2.359 26.47621,74.32801 -15.6497,5.622 30.675,26.129 7.287,-39.662 -15.6498,5.552 -26.4763,-74.32801 z m -208.722215,23.284 c -4.8098,0.08 -9.6734,1.289 -14.1577,3.816 -14.350901,8.088 -19.428501,26.30201 -11.347,40.66901 8.0871,14.344 26.2831,19.434 40.6341,11.347 14.3553,-8.098 19.438405,-26.279 11.347,-40.63401 -5.5599,-9.863 -15.8947,-15.358 -26.4764,-15.198 z m 370.460115,2.949 c -10.0777,0.171 -19.8044,5.45 -25.2618,14.783 -8.2947,14.21901 -3.4985,32.49001 10.7224,40.80701 14.2312,8.304 32.50291,3.498 40.80751,-10.723 8.316,-14.221 3.5076,-32.50301 -10.7223,-40.80701 -4.8923,-2.855 -10.2669,-4.15 -15.54581,-4.06 z m -258.51701,92.26801 c -12.1625,-0.08 -23.6388,7.31 -28.1418,19.362 -5.7755,15.436 2.0531,32.635 17.4889,38.414 15.4312,5.77 32.639,-2.042 38.4131,-17.489 5.7697,-15.425 -2.0542,-32.645 -17.4889,-38.413 -3.3746,-1.26 -6.8658,-1.852 -10.2713,-1.874 z m 145.22071,1.145 c -2.9921,0.108 -6.0149,0.709 -8.9874,1.77 -15.5202,5.53 -23.5989,22.571 -18.0788,38.1 5.5309,15.511 22.5908,23.61 38.1008,18.08 15.5302,-5.52 23.6445,-22.572 18.1136,-38.101 -4.3195,-12.117 -15.6999,-19.743 -27.8643,-19.849 -0.4258,0 -0.8565,-0.01 -1.2839,0 z" id="path16892" style="fill:#4d4d4d;fill-opacity:1;stroke:none"/></svg>