<?xml version="1.0" encoding="UTF-8" standalone="no"?>
<svg
   xmlns="http://www.w3.org/2000/svg"
   viewBox="0 0 210 210"
   version="1.1"
   id="svg8">
  <defs
     id="defs2" />
  <g
     id="layer1"
     transform="translate(0,-87)">
    <g
       id="g838"
       transform="matrix(2.4957568,0,0,2.4957568,-3.5368871,81.808864)">
      <path
         transform="scale(0.26458333)"
         id="path826"
         d="m 122.59543,161.36065 c -0.77643,-0.92137 -8.45779,-8.63503 -17.06969,-17.14145 l -15.657981,-15.46624 -6.428572,1.34709 c -8.237686,1.72618 -14.729594,1.70519 -23.214285,-0.0751 C 39.8843,125.75711 24.433569,111.88306 17.289708,91.471141 c -2.2832,-6.523712 -2.374897,-7.1994 -2.374897,-17.5 0,-10.26596 0.0984,-10.998225 2.351682,-17.5 2.297896,-6.630517 4.121814,-9.285714 6.37858,-9.285714 0.615478,0 10.142369,8.965686 21.170869,19.923746 20.534302,20.403147 21.917904,21.496861 27.194674,21.496861 7.470678,0 14.611486,-7.152246 14.611486,-14.634893 0,-5.700422 -1.897615,-8.14105 -22.106779,-28.432819 C 53.905591,34.885223 45.224902,25.643983 45.224902,25.002231 c 0,-2.025463 2.556982,-3.600441 9.416532,-5.800132 8.01429,-2.569989 19.906284,-3.467675 27.162801,-2.050428 24.995325,4.881755 43.301655,23.636014 46.874575,48.02149 1.05996,7.234389 1.05317,8.484856 -0.0954,17.563198 l -1.23664,9.774254 16.79606,16.806997 16.79606,16.80701 -18.46588,18.45563 -18.46587,18.45563 z"
         style="fill-opacity:1;stroke-width:4.04949379;stroke-miterlimit:4;stroke-dasharray:8.09898786, 4.04949393;stroke-dashoffset:0" />
      <path
         transform="scale(0.26458333)"
         id="path828"
         d="m 138.27378,186.57853 -9.45113,-9.69955 1.95113,-2.05382 c 1.07312,-1.12961 20.70425,-20.8108 43.62475,-43.73599 28.28785,-28.29364 41.50342,-41.981593 41.14374,-42.61438 -0.29144,-0.512721 -1.1415,-1.613424 -1.88901,-2.446007 -2.64189,-2.942546 -2.70852,-5.23557 -0.28809,-9.914784 1.97595,-3.819961 2.2167,-4.953007 2.21531,-10.425921 -0.001,-5.693137 -0.19811,-6.525252 -2.70094,-11.428572 -2.57683,-5.048307 -7.8407,-11.251976 -12.51524,-14.749694 -7.72304,-5.778755 -21.02269,-11.184728 -34.02073,-13.828565 -3.90258,-0.793798 -7.73608,-1.786039 -8.51888,-2.20498 -1.36786,-0.732058 -1.34873,-0.800768 0.49148,-1.764951 1.05311,-0.551781 5.04732,-1.667984 8.87603,-2.480451 18.85494,-4.001102 41.92347,2.729779 66.24699,19.329398 15.38306,10.498191 31.889,25.447409 40.11673,36.333209 8.74103,11.564938 13.05328,20.298941 13.0806,26.493358 0.0176,4.00048 0.57794,5.27707 5.60923,12.78024 l 2.52623,3.76736 2.54789,-2.43291 c 1.40134,-1.33809 3.24997,-2.79234 4.10807,-3.23164 2.3959,-1.22658 6.77995,-0.9418 9.10594,0.5915 2.81583,1.85621 3.92109,4.0524 3.95142,7.8516 0.0253,3.16488 0.003,3.19337 -13.0104,16.30524 -7.16964,7.22415 -13.90368,13.59211 -14.96453,14.15101 -2.78101,1.46518 -5.72281,1.253 -8.49086,-0.61239 -3.37349,-2.27338 -4.36162,-4.46303 -3.91695,-8.67971 0.29574,-2.80443 0.89354,-4.05722 2.93223,-6.14504 l 2.56076,-2.62245 -8.51062,-6.84906 c -4.68084,-3.76697 -10.5125,-7.86632 -12.95923,-9.10967 -4.16821,-2.11813 -4.64096,-2.20675 -7.50052,-1.40613 -2.6978,0.75533 -3.46644,0.67616 -6.62448,-0.6824 -1.96491,-0.84528 -4.27078,-2.48125 -5.12414,-3.63549 -0.85337,-1.15423 -1.89217,-2.09861 -2.30845,-2.09861 -0.41629,0 -20.40099,19.60715 -44.41046,43.57143 -24.00947,23.96429 -43.82889,43.528 -44.04316,43.47491 -0.21427,-0.0531 -4.64259,-4.46133 -9.84071,-9.79609 z"
         style="fill-opacity:1;stroke-width:4.04949379;stroke-miterlimit:4;stroke-dasharray:8.09898786, 4.04949393;stroke-dashoffset:0" />
      <path
         transform="scale(0.26458333)"
         id="path830"
         d="m 244.15347,313.57066 c -6.16754,-1.49633 -13.67882,-4.45456 -18.33645,-7.2216 -11.57614,-6.87726 -22.10176,-20.01473 -25.30817,-31.58819 -3.48898,-12.59344 -3.85195,-21.75676 -1.23469,-31.17052 l 1.21097,-4.35564 -18.96464,-18.96464 -18.96463,-18.96464 18.12983,-18.13143 c 9.97142,-9.97229 18.36896,-18.13143 18.66121,-18.13143 0.29225,0 8.72307,8.19643 18.73514,18.21429 14.11982,14.12796 18.60564,18.21428 19.99502,18.21428 0.98518,0 4.04111,-0.47656 6.79096,-1.05902 20.1268,-4.26319 42.82321,4.45052 55.6703,21.37318 5.17517,6.81693 8.41632,13.67538 10.37461,21.95325 1.38753,5.86521 1.57939,8.18771 1.26866,15.35714 -0.54837,12.6521 -4.25637,23.78634 -8.11522,24.36804 -0.97629,0.14717 -6.96432,-5.3679 -20.74813,-19.10935 -19.80195,-19.7411 -22.7852,-22.11769 -27.80818,-22.15327 -4.84806,-0.0343 -10.65671,3.21685 -13.20044,7.38848 -1.56353,2.56411 -1.91836,10.89904 -0.57625,13.53565 0.4368,0.8581 9.59751,10.41271 20.35714,21.23245 11.69524,11.76059 19.56296,20.21235 19.56296,21.01519 0,2.40528 -2.25107,3.92201 -9.2203,6.2125 -6.01405,1.97655 -7.98565,2.27773 -16.13684,2.46506 -5.10714,0.11737 -10.57143,-0.0985 -12.14286,-0.47978 z"
         style="fill-opacity:1;stroke-width:4.04949379;stroke-miterlimit:4;stroke-dasharray:8.09898786, 4.04949393;stroke-dashoffset:0" />
      <path
         transform="scale(0.26458333)"
         id="path832"
         d="m 42.888425,311.58514 c -4.086005,-2.69428 -29.567864,-29.06643 -30.088138,-31.13937 -1.06248,-4.23326 -0.335578,-4.99386 33.074734,-34.60788 4.160291,-3.68757 7.724881,-6.91202 7.921309,-7.16545 0.196429,-0.25342 6.303572,-5.73207 13.571429,-12.17478 12.28737,-10.89234 16.412157,-14.60706 20.264935,-18.2503 0.836429,-0.79094 4.252922,-3.83956 7.592208,-6.77471 3.339285,-2.93515 8.482138,-7.56104 11.428568,-10.27976 6.39008,-5.89622 8.9663,-7.57265 11.64262,-7.57622 3.25158,-0.004 5.40567,1.58589 14.34843,10.59253 8.21262,8.27131 8.50222,8.66811 8.83216,12.10189 0.33863,3.5242 0.30566,3.59136 -4.50556,9.17654 -2.66569,3.0945 -5.5404,6.26923 -6.38825,7.05494 -0.84785,0.78571 -3.92703,4.16015 -6.84262,7.49874 -2.91558,3.3386 -9.64035,10.89274 -14.94392,16.78697 -5.30357,5.89424 -12.038971,13.44838 -14.967557,16.78698 -2.928586,3.33859 -6.142871,6.90572 -7.142857,7.92695 -0.999986,1.02122 -2.943157,3.12137 -4.318157,4.66701 -21.367345,24.01897 -32.031972,35.52669 -33.409105,36.05028 -2.471041,0.93948 -3.85611,0.78561 -6.070229,-0.67436 z"
         style="fill-opacity:1;stroke-width:4.04949379;stroke-miterlimit:4;stroke-dasharray:8.09898786, 4.04949393;stroke-dashoffset:0" />
    </g>
  </g>
</svg>
