<?xml version="1.0" ?><svg enable-background="new 0 0 515.91 728.5" height="512" id="Layer_1" version="1.1" viewBox="0 0 512.00003 512" width="512" xml:space="preserve" xmlns="http://www.w3.org/2000/svg" xmlns:cc="http://creativecommons.org/ns#" xmlns:dc="http://purl.org/dc/elements/1.1/" xmlns:inkscape="http://www.inkscape.org/namespaces/inkscape" xmlns:rdf="http://www.w3.org/1999/02/22-rdf-syntax-ns#" xmlns:sodipodi="http://sodipodi.sourceforge.net/DTD/sodipodi-0.dtd" xmlns:svg="http://www.w3.org/2000/svg"><defs id="defs7"/><g id="g15400" style="fill:#4d4d4d;fill-opacity:1" transform="matrix(0.62501294,0.62501294,-0.62501294,0.62501294,42357.562,-28163.636)"><path d="m -10945.361,56035.522 c -3.541,0 -4.137,1.006 -4.753,1.407 -0.618,0.401 -0.923,0.651 -1.172,0.87 -0.498,0.441 -0.772,0.758 -1.072,1.072 -0.592,0.634 -1.148,1.303 -1.841,2.143 -1.387,1.68 -3.176,3.959 -5.324,6.763 -4.294,5.608 -9.976,13.268 -16.071,21.796 -11.274,15.775 -23.852,34.24 -31.674,48.18 l 124.049,0 c -7.839,-13.953 -20.465,-32.403 -31.807,-48.18 -6.132,-8.529 -11.851,-16.223 -16.172,-21.83 -2.16,-2.804 -3.965,-5.085 -5.357,-6.763 -0.696,-0.839 -1.25,-1.51 -1.841,-2.142 -0.299,-0.313 -0.575,-0.603 -1.069,-1.041 -0.247,-0.219 -0.528,-0.471 -1.138,-0.871 -0.613,-0.398 -1.185,-1.406 -4.755,-1.407 z" id="path15208" style="fill:#4d4d4d;fill-opacity:1"/><path d="m -11012.307,56128.781 c -0.944,0.794 -1.689,1.792 -2.218,2.907 -41.918,88.569 -36.93,186.927 -20.656,273.937 -4.811,6.189 -15.094,18.159 -25,29.375 -11.002,12.457 -20.876,23.406 -20.876,23.406 -1.534,1.69 -2.36,4.002 -2.218,6.282 l 7.281,115.656 c 0.27,4.306 4.248,8.039 8.563,8.031 l 23.718,0 c 3.793,-0.01 7.409,-2.847 8.313,-6.531 l 17.343,-70.906 7,-3.063 c 1.365,5.028 2.751,10.143 4.094,15 0.998,3.566 4.517,6.242 8.219,6.25 l 107,0 c 3.721,0 7.261,-2.694 8.25,-6.281 1.332,-4.843 2.699,-9.946 4.063,-14.969 l 7,3.063 17.343,70.906 c 0.904,3.684 4.489,6.521 8.281,6.531 l 23.75,0 c 4.315,0.01 8.292,-3.725 8.563,-8.031 l 7.281,-115.656 c 0.142,-2.28 -0.683,-4.591 -2.218,-6.282 0,0 -9.871,-10.949 -20.876,-23.406 -9.907,-11.216 -20.197,-23.191 -25,-29.375 16.264,-87.009 21.273,-185.361 -20.656,-273.937 -0.526,-1.117 -1.304,-2.112 -2.25,-2.907 l -134.094,0 z m 67.032,45.5 c 19.796,0 35.878,16.015 35.875,35.813 0,19.796 -16.079,35.875 -35.875,35.875 -19.795,0 -35.81,-16.081 -35.813,-35.875 0,-19.795 16.017,-35.812 35.813,-35.813 z m 0,104.438 c 19.796,0 35.878,16.014 35.875,35.812 0,19.796 -16.079,35.875 -35.875,35.875 -19.795,0 -35.81,-16.081 -35.813,-35.875 0,-19.795 16.017,-35.811 35.813,-35.812 z m 0,104.437 c 19.796,0 35.878,16.015 35.875,35.813 0,19.796 -16.079,35.875 -35.875,35.875 -19.795,0 -35.81,-16.081 -35.813,-35.875 0,-19.795 16.017,-35.812 35.813,-35.813 z" id="path15205" style="fill:#4d4d4d;fill-opacity:1"/><path d="m -10870.462,56611.215 c -3.2,23.005 -13.481,45.494 -25.998,64.514 -12.193,15.802 -21.081,37.441 -41.506,44.13 -14.665,5.205 -27.486,-6.941 -36.307,-17.073 -21.491,-26.276 -40.938,-56.731 -45.878,-90.835 -3.561,10.203 -5.833,22.365 -5.292,36.583 1.341,35.227 19.067,81.483 70.312,141.27 a 13.007012,13.007012 0 0 0 19.742,0 c 63.731,-74.711 75.649,-128.679 68.655,-165.152 -0.927,-4.833 -2.218,-9.285 -3.728,-13.437 z" id="path15382" style="font-size:medium;font-style:normal;font-variant:normal;font-weight:normal;font-stretch:normal;text-indent:0;text-align:start;text-decoration:none;line-height:normal;letter-spacing:normal;word-spacing:normal;text-transform:none;direction:ltr;block-progression:tb;writing-mode:lr-tb;text-anchor:start;baseline-shift:baseline;color:#000000;fill:#4d4d4d;fill-opacity:1;fill-rule:nonzero;stroke:none;stroke-width:16;marker:none;visibility:visible;display:inline;overflow:visible;enable-background:accumulate;font-family:Sans;-inkscape-font-specification:Sans"/><path d="m -10919.417,56545.15 a 8.9796842,8.9796842 0 0 0 -8.522,8.662 c 0,0 -1.252,23.314 -15.889,37.951 -0.427,0.427 -1.214,0.934 -1.719,1.368 -14.897,-14.219 -16.658,-38.968 -16.658,-38.968 a 8.9796842,8.9796842 0 0 0 -11.89,-8.171 c 0,0 -4.861,1.949 -9.19,6.278 -7.439,7.44 -18.252,23.204 -17.326,47.524 0.926,24.321 13.164,56.266 48.541,97.54 a 8.9796842,8.9796842 0 0 0 13.643,0 c 44,-51.578 52.214,-88.845 47.384,-114.024 -4.827,-25.181 -23.218,-36.861 -23.218,-36.861 a 8.9796842,8.9796842 0 0 0 -5.156,-1.299 z" id="path15384" style="font-size:medium;font-style:normal;font-variant:normal;font-weight:normal;font-stretch:normal;text-indent:0;text-align:start;text-decoration:none;line-height:normal;letter-spacing:normal;word-spacing:normal;text-transform:none;direction:ltr;block-progression:tb;writing-mode:lr-tb;text-anchor:start;baseline-shift:baseline;color:#000000;fill:#4d4d4d;fill-opacity:1;fill-rule:nonzero;stroke:none;stroke-width:16;marker:none;visibility:visible;display:inline;overflow:visible;enable-background:accumulate;font-family:Sans;-inkscape-font-specification:Sans"/></g></svg>