<?xml version="1.0" standalone="no"?>
<!DOCTYPE svg PUBLIC "-//W3C//DTD SVG 20010904//EN"
 "http://www.w3.org/TR/2001/REC-SVG-20010904/DTD/svg10.dtd">
<svg version="1.0" xmlns="http://www.w3.org/2000/svg"
 width="300.000000pt" height="300.000000pt" viewBox="0 0 300.000000 300.000000"
 preserveAspectRatio="xMidYMid meet">
<metadata>
Created by potrace 1.11, written by Peter Selinger 2001-2013
</metadata>
<g transform="translate(0.000000,300.000000) scale(0.100000,-0.100000)"
fill="#000000" stroke="none">
<path d="M1369 2996 c-2 -2 -29 -6 -59 -10 -182 -19 -388 -89 -575 -195 -181
-104 -379 -296 -499 -484 -100 -156 -185 -374 -211 -540 -3 -17 -9 -56 -14
-86 -11 -72 -7 -330 8 -411 16 -94 19 -107 36 -169 166 -585 668 -1017 1265
-1088 71 -9 256 -9 345 -1 250 23 528 135 750 302 85 63 262 253 324 345 117
176 214 416 237 586 3 22 9 65 14 95 8 55 5 327 -4 366 -2 12 -7 39 -10 60
-20 122 -81 298 -151 431 -217 411 -597 691 -1060 779 -71 14 -386 29 -396 20z"/>
</g>
</svg>
