<?xml version="1.0" encoding="UTF-8" standalone="no"?>
<!-- Created with Inkscape (http://www.inkscape.org/) -->

<svg
   xmlns:dc="http://purl.org/dc/elements/1.1/"
   xmlns:cc="http://creativecommons.org/ns#"
   xmlns:rdf="http://www.w3.org/1999/02/22-rdf-syntax-ns#"
   xmlns:svg="http://www.w3.org/2000/svg"
   xmlns="http://www.w3.org/2000/svg"
   xmlns:sodipodi="http://sodipodi.sourceforge.net/DTD/sodipodi-0.dtd"
   xmlns:inkscape="http://www.inkscape.org/namespaces/inkscape"
   width="243"
   height="32"
   viewBox="0 0 243 32.000001"
   id="svg2"
   version="1.1"
   inkscape:version="0.91 r13725"
   sodipodi:docname="logo_text.svg">
  <defs
     id="defs4" />
  <sodipodi:namedview
     id="base"
     pagecolor="#ffffff"
     bordercolor="#666666"
     borderopacity="1.0"
     inkscape:pageopacity="0.0"
     inkscape:pageshadow="2"
     inkscape:zoom="3.959798"
     inkscape:cx="115.17286"
     inkscape:cy="10.102427"
     inkscape:document-units="px"
     inkscape:current-layer="text3336"
     showgrid="false"
     inkscape:window-width="1280"
     inkscape:window-height="961"
     inkscape:window-x="1912"
     inkscape:window-y="-8"
     inkscape:window-maximized="1"
     units="px" />
  <metadata
     id="metadata7">
    <rdf:RDF>
      <cc:Work
         rdf:about="">
        <dc:format>image/svg+xml</dc:format>
        <dc:type
           rdf:resource="http://purl.org/dc/dcmitype/StillImage" />
        <dc:title />
      </cc:Work>
    </rdf:RDF>
  </metadata>
  <g
     inkscape:label="Layer 1"
     inkscape:groupmode="layer"
     id="layer1"
     transform="translate(0,-1020.3621)">
    <g
       style="font-style:normal;font-variant:normal;font-weight:normal;font-stretch:normal;font-size:40px;line-height:125%;font-family:Lalezar;-inkscape-font-specification:Lalezar;letter-spacing:0px;word-spacing:0px;fill:black;fill-opacity:1;stroke:none;stroke-width:1px;stroke-linecap:butt;stroke-linejoin:miter;stroke-opacity:1"
       id="text3336">
      <path
         d="m 29.465076,1021.6059 -11.68,0 -1.84,9.72 c -0.16,0.84 -0.36,1.8 -0.6,2.76 -0.2,-1.08 -0.4,-2.12 -0.48,-2.64 l -1.96,-9.84 -11.4399997,0 -0.95999999,22.8 6.75999999,0 0.36,-10.8 c 0.12,-3.76 0.16,-5.28 0.32,-7.4 l 0.12,0 c 0.6,2.2 0.96,4.16 1.56,6.96 l 2.3199997,11.24 6.72,0 2.76,-12.48 c 0.32,-1.52 0.68,-3.56 1.32,-5.72 l 0.12,0 c 0.2,2.16 0.24,4.2 0.28,5.64 l 0.52,12.56 6.72,0 -0.92,-22.8 z"
         style=""
         id="path3336" />
      <path
         d="m 45.326917,1026.0059 -2.88,13.64 -0.12,0 -0.04,-0.76 -3.2,-12.88 -7.24,0 6.16,17.92 2.76,0.16 c -0.32,0.76 -0.72,1.64 -1.12,2.44 -1.96,0.08 -3.88,0 -5.08,-0.04 -0.24,1.16 -0.48,3.32 -0.4,4.68 2.56,0.76 7.36,0.56 8.84,-0.48 1.32,-0.92 2.76,-2.88 4.76,-9.28 l 4.8,-15.4 -7.24,0 z"
         style=""
         id="path3338" />
      <path
         d="m 68.527542,1021.6059 -8,0 0,22.8 8,0 c 7.84,0 13.96,-1.28 13.96,-11.6 0,-9.48 -5.48,-11.2 -13.96,-11.2 z m 5.36,17.36 c -0.48,0.48 -3.6,0.72 -6.16,0.48 l 0,-13.28 c 0.52,-0.04 0.96,-0.08 1.56,-0.08 2,0 3.32,0.44 4.12,1.32 1.08,1.08 1.36,2.72 1.36,5.4 0,1.44 -0.16,5.44 -0.88,6.16 z"
         style=""
         id="path3340" />
      <path
         d="m 101.96379,1044.4059 -0.12,-4.72 0.04,-5.88 c 0.04,-4.44 -0.56,-8.2 -7.319998,-8.2 -2.6,0 -5.96,0.48 -8.6,1.04 0.08,1.28 0.24,3.04 0.48,4.64 1.92,-0.2 3.64,-0.36 5.2,-0.44 1.16,-0.08 2.84,-0.16 3.16,0.08 0.24,0.16 0.24,1.84 0.24,2.8 -2.76,0.04 -5.12,0.2 -6.92,0.72 -2.32,0.68 -3.68,2.52 -3.68,4.72 0,3.76 2.68,5.72 6.08,5.72 2.16,0 3.88,-1 5.12,-3 l 0.64,2.52 5.679998,0 z m -9.119998,-4 c -1.12,0 -1.8,-0.36 -1.8,-1.68 0,-0.44 0.12,-1.08 0.4,-1.36 0.24,-0.24 1.92,-0.32 3.28,-0.32 l 0.32,0 0,2.96 c -0.8,0.28 -1.56,0.4 -2.2,0.4 z"
         style=""
         id="path3342" />
      <path
         d="m 113.41317,1029.9259 4.24,0 0,-3.92 -4.24,0 0,-4.68 -5,0.28 -1.8,4.4 -3,0.28 0,3.64 3,0 0,9.84 c 0,3.48 2.16,5 5.76,5 1.84,0 4.04,-0.4 5,-0.76 0,-1.04 -0.08,-2.96 -0.36,-4.44 -1.32,0.04 -3,0.08 -3.32,-0.24 -0.32,-0.32 -0.28,-1.6 -0.28,-2.48 l 0,-6.92 z"
         style=""
         id="path3344" />
      <path
         d="m 136.33879,1044.4059 -0.12,-4.72 0.04,-5.88 c 0.04,-4.44 -0.56,-8.2 -7.32,-8.2 -2.6,0 -5.96,0.48 -8.6,1.04 0.08,1.28 0.24,3.04 0.48,4.64 1.92,-0.2 3.64,-0.36 5.2,-0.44 1.16,-0.08 2.84,-0.16 3.16,0.08 0.24,0.16 0.24,1.84 0.24,2.8 -2.76,0.04 -5.12,0.2 -6.92,0.72 -2.32,0.68 -3.68,2.52 -3.68,4.72 0,3.76 2.68,5.72 6.08,5.72 2.16,0 3.88,-1 5.12,-3 l 0.64,2.52 5.68,0 z m -9.12,-4 c -1.12,0 -1.8,-0.36 -1.8,-1.68 0,-0.44 0.12,-1.08 0.4,-1.36 0.24,-0.24 1.92,-0.32 3.28,-0.32 l 0.32,0 0,2.96 c -0.8,0.28 -1.56,0.4 -2.2,0.4 z"
         style=""
         id="path3346" />
      <path
         d="m 152.24379,1027.7659 c 0,-0.48 0.2,-0.88 0.4,-1 0.44,-0.16 4.24,0.12 8.24,0.36 0.28,-1.36 0.64,-3.68 0.72,-4.76 -1.76,-0.52 -4.12,-0.84 -7.32,-0.84 -2.4,0 -5.6,0.68 -6.4,1.24 -0.96,0.68 -2.44,3.2 -2.44,5.76 0,8.68 10.6,6.72 10.6,9.88 0,0.32 -0.16,0.96 -0.52,1.2 -0.6,0.4 -7.8,-0.4 -9.48,-0.64 -0.32,1.12 -0.76,3.84 -0.84,4.88 2.64,0.64 6.08,1 8.08,1 5.48,0 9.68,-1.76 9.68,-7.44 0,-8.2 -10.72,-6.4 -10.72,-9.64 z"
         style=""
         id="path3348" />
      <path
         d="m 178.58879,1025.6059 c -2.84,0 -5.04,1.32 -6.36,3.24 l -0.68,-2.84 -5.6,0 0,24.28 6.84,-0.28 0,-5.68 c 0.8,0.04 1.56,0.08 2.28,0.08 3.04,0 6.36,-0.64 7.56,-1.6 0.96,-0.8 2.24,-3.52 2.24,-8.68 0,-6.76 -2.84,-8.52 -6.28,-8.52 z m -1.6,13.92 c -0.32,0.24 -1.64,0.24 -3.08,0.16 l -1.12,-0.12 0,-8.88 c 0.88,-0.2 1.64,-0.24 2.24,-0.24 2.44,0 2.8,1.76 2.8,4.4 0,1.36 -0.2,4.2 -0.84,4.68 z"
         style=""
         id="path3350" />
      <path
         d="m 204.15129,1044.4059 -0.12,-4.72 0.04,-5.88 c 0.04,-4.44 -0.56,-8.2 -7.32,-8.2 -2.6,0 -5.96,0.48 -8.6,1.04 0.08,1.28 0.24,3.04 0.48,4.64 1.92,-0.2 3.64,-0.36 5.2,-0.44 1.16,-0.08 2.84,-0.16 3.16,0.08 0.24,0.16 0.24,1.84 0.24,2.8 -2.76,0.04 -5.12,0.2 -6.92,0.72 -2.32,0.68 -3.68,2.52 -3.68,4.72 0,3.76 2.68,5.72 6.08,5.72 2.16,0 3.88,-1 5.12,-3 l 0.64,2.52 5.68,0 z m -9.12,-4 c -1.12,0 -1.8,-0.36 -1.8,-1.68 0,-0.44 0.12,-1.08 0.4,-1.36 0.24,-0.24 1.92,-0.32 3.28,-0.32 l 0.32,0 0,2.96 c -0.8,0.28 -1.56,0.4 -2.2,0.4 z"
         style=""
         id="path3352" />
      <path
         d="m 222.00067,1039.6059 c -6.04,0.44 -8.52,0.32 -8.52,-4.2 0,-1.56 0.36,-4.28 0.84,-4.48 0.48,-0.2 1.92,-0.28 3.56,-0.24 1.36,0 2.84,0.08 3.88,0.16 0.2,-1 0.56,-3.76 0.64,-4.72 -1.88,-0.32 -3.76,-0.48 -5.56,-0.48 -3.48,0 -7.28,0.96 -8.4,2.2 -0.88,0.96 -2,4.4 -2,7.76 0,6.48 3,9.32 8.92,9.32 2.08,0 4.6,-0.2 7.24,-1.08 l -0.6,-4.24 z"
         style=""
         id="path3354" />
      <path
         d="m 236.01504,1039.6059 c -3.2,0 -4.84,-0.24 -4.88,-2.92 l 5.68,0 c 0.76,0 3.28,-0.04 5.32,-0.16 0,-6.68 -0.8,-10.88 -8.32,-10.88 -2.92,0 -6.52,0.96 -7.64,2.16 -1.04,1.12 -2.04,4.48 -2.04,7.76 0,6.36 3.52,9.32 9.52,9.32 2.2,0 5.36,-0.2 8,-1.44 l -0.6,-4.12 c -2.4,0.16 -3.84,0.28 -5.04,0.28 z m -4.48,-9.2 c 0.56,-0.32 1.32,-0.48 2.12,-0.44 1.6,0.08 2.16,1.12 2.16,3.52 -0.84,0.04 -1.84,0.04 -2.72,0.04 l -2.08,0 c 0.04,-1.32 0.2,-2.92 0.52,-3.12 z"
         style=""
         id="path3356" />
    </g>
  </g>
</svg>
