<?xml version="1.0" encoding="UTF-8" standalone="no"?>
<!-- Created with Inkscape (http://www.inkscape.org/) -->

<svg
   xmlns:dc="http://purl.org/dc/elements/1.1/"
   xmlns:cc="http://creativecommons.org/ns#"
   xmlns:rdf="http://www.w3.org/1999/02/22-rdf-syntax-ns#"
   xmlns:svg="http://www.w3.org/2000/svg"
   xmlns="http://www.w3.org/2000/svg"
   xmlns:sodipodi="http://sodipodi.sourceforge.net/DTD/sodipodi-0.dtd"
   xmlns:inkscape="http://www.inkscape.org/namespaces/inkscape"
   height="160mm"
   width="210mm"
   viewBox="0 0 744.09449 566.92913"
   id="svg2"
   version="1.1"
   inkscape:version="0.91 r13725"
   sodipodi:docname="no-enities-background.svg">
  <defs
     id="defs8" />
  <sodipodi:namedview
     pagecolor="#ffffff"
     bordercolor="#666666"
     borderopacity="1"
     objecttolerance="10"
     gridtolerance="10"
     guidetolerance="10"
     inkscape:pageopacity="0"
     inkscape:pageshadow="2"
     inkscape:window-width="1301"
     inkscape:window-height="744"
     id="namedview6"
     showgrid="false"
     inkscape:zoom="0.70710678"
     inkscape:cx="415.67844"
     inkscape:cy="266.05373"
     inkscape:window-x="1505"
     inkscape:window-y="156"
     inkscape:window-maximized="1"
     inkscape:current-layer="svg2" />
  <metadata
     id="metadata4">
    <rdf:RDF>
      <cc:Work
         rdf:about="">
        <dc:format>image/svg+xml</dc:format>
        <dc:type
           rdf:resource="http://purl.org/dc/dcmitype/StillImage" />
        <dc:title></dc:title>
      </cc:Work>
    </rdf:RDF>
  </metadata>
  <rect
     style="fill:#ffffff;fill-opacity:1;stroke:none;stroke-width:2;stroke-miterlimit:4;stroke-dasharray:none;stroke-dashoffset:0;stroke-opacity:1"
     id="rect3819"
     width="195.16147"
     height="41.012192"
     x="265.87216"
     y="63.56543"
     ry="9.5425596" />
  <g
     style="font-style:normal;font-variant:normal;font-weight:normal;font-stretch:normal;font-size:40px;line-height:125%;font-family:Purisa;-inkscape-font-specification:Purisa;letter-spacing:0px;word-spacing:0px;fill:#616161;fill-opacity:1;stroke:none;stroke-width:1px;stroke-linecap:butt;stroke-linejoin:miter;stroke-opacity:1"
     id="text3195"
     transform="translate(0,-5.43307)">
    <path
       d="m 218.22013,32.11388 q 0,-1.155 0.28,-1.54 0.28,-0.42 0.91,-0.42 0.35,0 1.155,0.385 0.805,0.35 1.015,0.7 0.14,0.245 0.14,0.595 0,2.31 -2.24,6.755 -2.24,4.41 -3.78,6.125 -0.525,0.595 -0.77,0.875 -0.21,0.245 -0.56,0.91 -0.35,0.665 -0.56,1.155 -0.21,0.49 -0.945,2.24 -0.735,1.715 -1.505,3.43 l -3.01,6.79 q -0.525,1.12 -1.785,1.12 -0.7,0 -1.26,-0.42 -0.56,-0.42 -0.56,-0.945 0,-1.995 4.165,-10.01 l 2.03,-3.92 -5.88,-5.67 q -4.165,-4.06 -5.46,-5.495 -1.295,-1.47 -1.295,-2.31 0,-0.385 0.315,-0.7 0.315,-0.315 0.875,-0.315 0.7,0 1.995,1.085 1.295,1.05 6.265,5.705 3.85,3.325 5.005,3.85 0.315,-0.035 0.63,-0.35 0.315,-0.315 0.77,-1.015 0.455,-0.735 0.875,-1.505 0.42,-0.77 1.19,-2.1 0.77,-1.365 1.47,-2.52 0.525,-0.91 0.525,-2.485 z"
       style="font-style:normal;font-variant:normal;font-weight:bold;font-stretch:normal;font-size:35px;font-family:Purisa;-inkscape-font-specification:'Purisa Bold';text-align:center;word-spacing:-5px;text-anchor:middle;fill:#616161;fill-opacity:1"
       id="path3868"
       inkscape:connector-curvature="0" />
    <path
       d="m 228.72888,41.80888 q 2.94,-2.52 5.005,-3.325 2.1,-0.805 5.25,-0.805 4.865,0 6.09,2.73 0.7,1.54 0.7,3.815 0,3.605 -1.75,7.35 -1.715,3.745 -4.375,5.25 -2.59,1.435 -5.495,1.435 -4.27,0 -6.51,-2.52 -1.575,-1.75 -2.065,-2.975 -0.455,-1.26 -0.455,-3.465 0,-4.375 3.605,-7.49 z m 6.335,13.545 q 2.87,0 5.285,-3.64 2.45,-3.675 2.45,-8.33 0,-0.49 -0.105,-0.77 -0.07,-0.28 -0.175,-0.385 -0.105,-0.14 -0.385,-0.35 -1.26,-0.91 -2.66,-0.91 -0.21,0 -0.595,0.07 -0.35,0.035 -1.085,0.14 -0.7,0.07 -1.54,0.14 -1.155,0.105 -1.89,0.455 -0.7,0.315 -1.82,1.26 -2.1,1.785 -3.01,3.29 -0.875,1.47 -0.875,3.22 0,2.555 1.785,4.2 1.785,1.61 4.62,1.61 z"
       style="font-style:normal;font-variant:normal;font-weight:bold;font-stretch:normal;font-size:35px;font-family:Purisa;-inkscape-font-specification:'Purisa Bold';text-align:center;word-spacing:-5px;text-anchor:middle;fill:#616161;fill-opacity:1"
       id="path3870"
       inkscape:connector-curvature="0" />
    <path
       d="m 251.86825,38.72888 q 0.63,0 1.12,0.525 0.525,0.525 0.525,1.61 0,0.385 -0.07,1.155 -0.07,0.77 -0.07,1.715 0,0.91 0.105,3.29 0.105,2.345 0.455,5.495 0.385,3.15 0.945,3.57 0.175,0.105 0.35,0.105 0.7,0 2.31,-1.26 2.1,-1.61 4.06,-5.145 1.995,-3.535 2.765,-7.07 0.595,-2.695 1.05,-3.535 0.49,-0.84 1.295,-0.84 0.63,0 0.98,0.385 0.385,0.385 0.385,1.015 0,0.49 -0.525,3.92 -0.49,3.43 -0.49,4.935 0,2.03 0.875,5.18 0.91,3.115 0.91,3.57 -0.105,0.77 -0.665,1.085 -0.35,0.21 -0.77,0.21 -0.91,0 -1.54,-1.365 -0.595,-1.4 -1.05,-3.255 -0.455,-1.855 -0.77,-2.345 -0.105,0.105 -0.28,0.35 -0.14,0.21 -0.385,0.56 -0.21,0.315 -0.385,0.56 -1.61,2.38 -3.745,4.13 -2.1,1.715 -3.745,1.715 -2.52,0 -3.395,-1.575 -0.875,-1.575 -1.435,-6.755 -0.245,-2.205 -0.245,-5.81 0,-3.29 0.315,-4.69 0.315,-1.435 1.12,-1.435 z"
       style="font-style:normal;font-variant:normal;font-weight:bold;font-stretch:normal;font-size:35px;font-family:Purisa;-inkscape-font-specification:'Purisa Bold';text-align:center;word-spacing:-5px;text-anchor:middle;fill:#616161;fill-opacity:1"
       id="path3872"
       inkscape:connector-curvature="0" />
    <path
       d="m 291.76232,54.26888 q 0,-2.835 -0.7,-11.27 -0.665,-8.47 -0.665,-10.99 0,-1.995 0.28,-2.415 0.595,-0.98 1.225,-0.98 0.945,0 1.19,1.47 0.28,1.435 0.7,7.63 0.245,3.325 0.385,5.425 l 0.175,2.415 q 1.015,-1.75 3.99,-4.235 3.01,-2.52 4.2,-2.52 1.19,0 2.345,1.015 1.155,1.015 1.505,2.24 0.315,1.085 0.315,8.225 l 0,0.735 q 0,6.825 -1.4,6.825 -0.735,0 -0.945,-1.085 -0.175,-1.085 -0.28,-4.48 -0.035,-1.12 -0.07,-1.75 -0.21,-6.65 -0.91,-8.505 l -0.385,-1.085 -1.68,1.4 q -1.785,1.47 -3.22,3.395 -1.435,1.925 -1.96,3.395 -0.245,0.875 -0.525,3.395 -0.245,2.52 -0.665,4.2 -0.42,1.68 -1.225,1.68 -0.35,0 -0.875,-0.42 -0.805,-0.63 -0.805,-3.71 z"
       style="font-style:normal;font-variant:normal;font-weight:bold;font-stretch:normal;font-size:35px;font-family:Purisa;-inkscape-font-specification:'Purisa Bold';text-align:center;word-spacing:-5px;text-anchor:middle;fill:#616161;fill-opacity:1"
       id="path3874"
       inkscape:connector-curvature="0" />
    <path
       d="m 321.82185,53.56888 q 0,-0.42 1.155,-1.4 1.155,-0.98 1.19,-1.26 0,-0.14 -0.21,-0.385 -0.21,-0.245 -1.12,-0.56 -0.875,-0.315 -2.31,-0.315 -1.54,0 -2.695,0.455 -1.12,0.455 -1.68,1.12 -0.56,0.665 -0.805,1.225 -0.245,0.56 -0.245,0.98 0,0.7 0.105,0.91 0.14,0.175 0.665,0.42 0.805,0.315 1.295,0.315 0.77,0 1.925,-0.385 1.155,-0.385 1.96,-0.735 l 0.77,-0.385 z m 6.3,2.24 q -0.07,0.805 -0.63,1.4 -0.525,0.56 -0.875,0.56 -0.21,0 -0.42,-0.07 -0.175,-0.07 -0.35,-0.245 -0.14,-0.21 -0.28,-0.35 -0.105,-0.175 -0.21,-0.49 -0.07,-0.315 -0.14,-0.49 -0.07,-0.21 -0.14,-0.595 -0.07,-0.385 -0.105,-0.56 0,-0.175 -0.07,-0.56 -0.07,-0.385 -0.07,-0.49 -1.12,1.295 -3.325,2.52 -2.17,1.19 -3.71,1.19 -0.98,0 -2.345,-0.315 -1.365,-0.315 -1.995,-0.77 -1.085,-0.805 -1.085,-3.43 0,-1.54 0.875,-2.66 0.875,-1.12 3.15,-2.24 2.555,-1.295 4.795,-1.295 0.98,0 1.61,0.245 0.665,0.245 1.015,0.595 0.385,0.315 0.42,0.315 0.56,0.105 0.98,0.455 0,-2.31 -0.21,-3.85 -0.175,-1.575 -0.525,-2.31 -0.35,-0.735 -0.7,-1.015 -0.35,-0.28 -0.84,-0.28 -1.68,0 -3.64,0.665 -1.925,0.665 -3.5,1.365 -1.54,0.665 -2.24,0.665 -0.875,0 -0.875,-0.805 0,-0.49 0.21,-0.875 0.21,-0.42 0.49,-0.7 0.315,-0.28 0.945,-0.56 0.665,-0.315 1.19,-0.49 0.56,-0.21 1.61,-0.56 1.05,-0.385 1.82,-0.665 2.1,-0.735 3.675,-0.735 2.835,0 4.235,2.66 0.63,1.19 0.735,2.17 0.14,0.98 0.21,5.705 0.07,4.445 0.315,6.895 z"
       style="font-style:normal;font-variant:normal;font-weight:bold;font-stretch:normal;font-size:35px;font-family:Purisa;-inkscape-font-specification:'Purisa Bold';text-align:center;word-spacing:-5px;text-anchor:middle;fill:#616161;fill-opacity:1"
       id="path3876"
       inkscape:connector-curvature="0" />
    <path
       d="m 333.28161,55.24888 q 0,-0.595 0.315,-1.015 0.315,-0.455 0.77,-0.455 0.875,0 1.54,1.225 0.385,0.735 1.68,1.4 1.295,0.63 2.415,0.63 1.4,0 2.555,-1.54 1.19,-1.575 1.19,-2.415 0,-0.14 -0.105,-0.385 -0.105,-0.28 -0.595,-0.735 -0.455,-0.455 -1.19,-0.665 -1.19,-0.35 -2.59,-0.875 -1.4,-0.56 -2.065,-0.7 -1.05,-0.21 -2.765,-1.47 -1.715,-1.26 -1.715,-2.66 0,-1.4 1.995,-3.605 1.995,-2.205 4.935,-2.835 l 3.5,-0.315 q 0.945,0 1.435,0.245 0.49,0.21 1.225,1.05 1.19,1.365 1.19,1.995 0,0.875 -0.91,0.875 -0.77,0 -1.575,-0.805 -0.77,-0.84 -1.925,-0.84 -1.575,0 -3.29,0.91 -1.68,0.875 -2.66,1.855 -0.98,0.945 -0.98,1.365 0,0.28 0.385,0.665 0.42,0.35 1.365,0.84 0.98,0.49 2.31,0.875 3.675,1.085 5.075,2.135 1.4,1.05 1.4,2.94 0,1.645 -0.595,2.975 -0.49,1.155 -1.925,2.38 -1.435,1.26 -2.94,1.26 -1.085,0 -2.835,-0.315 -1.715,-0.28 -2.66,-0.7 -0.77,-0.385 -1.365,-1.365 -0.595,-1.015 -0.595,-1.925 z"
       style="font-style:normal;font-variant:normal;font-weight:bold;font-stretch:normal;font-size:35px;font-family:Purisa;-inkscape-font-specification:'Purisa Bold';text-align:center;word-spacing:-5px;text-anchor:middle;fill:#616161;fill-opacity:1"
       id="path3878"
       inkscape:connector-curvature="0" />
    <path
       d="m 371.45083,39.28888 q 0,-1.82 1.155,-1.82 0.77,0.035 1.015,0.945 0.245,0.91 0.7,5.11 0.105,0.945 0.175,1.47 l 0.49,3.99 0.385,-1.155 q 0.735,-2.275 1.26,-3.325 0.56,-1.05 2.03,-2.975 2.835,-3.745 4.795,-3.745 1.295,0 2.24,1.435 1.12,1.575 1.365,3.15 0.28,1.575 0.385,7.21 0.07,3.57 0.07,4.34 0,2.31 -0.315,3.15 -0.315,0.805 -1.295,0.805 -0.665,0 -0.875,-0.35 -0.21,-0.385 -0.21,-1.505 0,-0.525 0.07,-2.17 0.07,-1.645 0.07,-2.73 0,-2.975 -0.245,-5.565 -0.245,-2.59 -0.56,-3.255 -0.14,-0.28 -0.35,-0.525 -0.21,-0.28 -0.385,-0.42 -0.14,-0.14 -0.21,-0.14 -0.56,0 -2.31,2.345 -1.715,2.345 -2.905,4.795 -1.225,2.59 -1.645,3.78 -0.385,1.19 -0.63,3.22 -0.385,3.255 -0.63,3.605 -0.175,0.21 -0.385,0.21 -0.525,-0.07 -1.12,-0.735 -0.315,-0.35 -0.49,-0.875 -0.14,-0.56 -0.245,-1.68 -0.105,-1.155 -0.175,-2.45 -0.07,-1.33 -0.28,-3.815 -0.21,-2.52 -0.525,-5.215 -0.42,-4.2 -0.42,-5.11 z"
       style="font-style:normal;font-variant:normal;font-weight:bold;font-stretch:normal;font-size:35px;font-family:Purisa;-inkscape-font-specification:'Purisa Bold';text-align:center;word-spacing:-5px;text-anchor:middle;fill:#616161;fill-opacity:1"
       id="path3880"
       inkscape:connector-curvature="0" />
    <path
       d="m 396.12146,41.80888 q 2.94,-2.52 5.005,-3.325 2.1,-0.805 5.25,-0.805 4.865,0 6.09,2.73 0.7,1.54 0.7,3.815 0,3.605 -1.75,7.35 -1.715,3.745 -4.375,5.25 -2.59,1.435 -5.495,1.435 -4.27,0 -6.51,-2.52 -1.575,-1.75 -2.065,-2.975 -0.455,-1.26 -0.455,-3.465 0,-4.375 3.605,-7.49 z m 6.335,13.545 q 2.87,0 5.285,-3.64 2.45,-3.675 2.45,-8.33 0,-0.49 -0.105,-0.77 -0.07,-0.28 -0.175,-0.385 -0.105,-0.14 -0.385,-0.35 -1.26,-0.91 -2.66,-0.91 -0.21,0 -0.595,0.07 -0.35,0.035 -1.085,0.14 -0.7,0.07 -1.54,0.14 -1.155,0.105 -1.89,0.455 -0.7,0.315 -1.82,1.26 -2.1,1.785 -3.01,3.29 -0.875,1.47 -0.875,3.22 0,2.555 1.785,4.2 1.785,1.61 4.62,1.61 z"
       style="font-style:normal;font-variant:normal;font-weight:bold;font-stretch:normal;font-size:35px;font-family:Purisa;-inkscape-font-specification:'Purisa Bold';text-align:center;word-spacing:-5px;text-anchor:middle;fill:#616161;fill-opacity:1"
       id="path3882"
       inkscape:connector-curvature="0" />
    <path
       d="m 445.53279,53.56888 q 0,-0.42 1.155,-1.4 1.155,-0.98 1.19,-1.26 0,-0.14 -0.21,-0.385 -0.21,-0.245 -1.12,-0.56 -0.875,-0.315 -2.31,-0.315 -1.54,0 -2.695,0.455 -1.12,0.455 -1.68,1.12 -0.56,0.665 -0.805,1.225 -0.245,0.56 -0.245,0.98 0,0.7 0.105,0.91 0.14,0.175 0.665,0.42 0.805,0.315 1.295,0.315 0.77,0 1.925,-0.385 1.155,-0.385 1.96,-0.735 l 0.77,-0.385 z m 6.3,2.24 q -0.07,0.805 -0.63,1.4 -0.525,0.56 -0.875,0.56 -0.21,0 -0.42,-0.07 -0.175,-0.07 -0.35,-0.245 -0.14,-0.21 -0.28,-0.35 -0.105,-0.175 -0.21,-0.49 -0.07,-0.315 -0.14,-0.49 -0.07,-0.21 -0.14,-0.595 -0.07,-0.385 -0.105,-0.56 0,-0.175 -0.07,-0.56 -0.07,-0.385 -0.07,-0.49 -1.12,1.295 -3.325,2.52 -2.17,1.19 -3.71,1.19 -0.98,0 -2.345,-0.315 -1.365,-0.315 -1.995,-0.77 -1.085,-0.805 -1.085,-3.43 0,-1.54 0.875,-2.66 0.875,-1.12 3.15,-2.24 2.555,-1.295 4.795,-1.295 0.98,0 1.61,0.245 0.665,0.245 1.015,0.595 0.385,0.315 0.42,0.315 0.56,0.105 0.98,0.455 0,-2.31 -0.21,-3.85 -0.175,-1.575 -0.525,-2.31 -0.35,-0.735 -0.7,-1.015 -0.35,-0.28 -0.84,-0.28 -1.68,0 -3.64,0.665 -1.925,0.665 -3.5,1.365 -1.54,0.665 -2.24,0.665 -0.875,0 -0.875,-0.805 0,-0.49 0.21,-0.875 0.21,-0.42 0.49,-0.7 0.315,-0.28 0.945,-0.56 0.665,-0.315 1.19,-0.49 0.56,-0.21 1.61,-0.56 1.05,-0.385 1.82,-0.665 2.1,-0.735 3.675,-0.735 2.835,0 4.235,2.66 0.63,1.19 0.735,2.17 0.14,0.98 0.21,5.705 0.07,4.445 0.315,6.895 z"
       style="font-style:normal;font-variant:normal;font-weight:bold;font-stretch:normal;font-size:35px;font-family:Purisa;-inkscape-font-specification:'Purisa Bold';text-align:center;word-spacing:-5px;text-anchor:middle;fill:#616161;fill-opacity:1"
       id="path3884"
       inkscape:connector-curvature="0" />
    <path
       d="m 458.46255,39.28888 q 0,-1.82 1.155,-1.82 0.77,0.035 1.015,0.945 0.245,0.91 0.7,5.11 0.105,0.945 0.175,1.47 l 0.49,3.99 0.385,-1.155 q 0.735,-2.275 1.26,-3.325 0.56,-1.05 2.03,-2.975 2.835,-3.745 4.795,-3.745 1.295,0 2.24,1.435 1.12,1.575 1.365,3.15 0.28,1.575 0.385,7.21 0.07,3.57 0.07,4.34 0,2.31 -0.315,3.15 -0.315,0.805 -1.295,0.805 -0.665,0 -0.875,-0.35 -0.21,-0.385 -0.21,-1.505 0,-0.525 0.07,-2.17 0.07,-1.645 0.07,-2.73 0,-2.975 -0.245,-5.565 -0.245,-2.59 -0.56,-3.255 -0.14,-0.28 -0.35,-0.525 -0.21,-0.28 -0.385,-0.42 -0.14,-0.14 -0.21,-0.14 -0.56,0 -2.31,2.345 -1.715,2.345 -2.905,4.795 -1.225,2.59 -1.645,3.78 -0.385,1.19 -0.63,3.22 -0.385,3.255 -0.63,3.605 -0.175,0.21 -0.385,0.21 -0.525,-0.07 -1.12,-0.735 -0.315,-0.35 -0.49,-0.875 -0.14,-0.56 -0.245,-1.68 -0.105,-1.155 -0.175,-2.45 -0.07,-1.33 -0.28,-3.815 -0.21,-2.52 -0.525,-5.215 -0.42,-4.2 -0.42,-5.11 z"
       style="font-style:normal;font-variant:normal;font-weight:bold;font-stretch:normal;font-size:35px;font-family:Purisa;-inkscape-font-specification:'Purisa Bold';text-align:center;word-spacing:-5px;text-anchor:middle;fill:#616161;fill-opacity:1"
       id="path3886"
       inkscape:connector-curvature="0" />
    <path
       d="m 481.87318,39.95388 q 0.805,0 1.015,0.63 0.245,0.63 0.245,1.855 0,1.54 -0.035,3.15 -0.035,1.61 -0.035,2.695 0,4.585 0.805,4.585 0.49,0 2.065,-1.505 1.575,-1.505 2.275,-2.94 0.735,-1.47 1.225,-3.395 0.525,-1.925 0.735,-3.15 0.245,-1.225 0.735,-2.1 0.525,-0.91 1.365,-0.91 0.595,0 1.015,0.42 0.455,0.42 0.455,1.085 0,0.595 -0.805,3.57 -0.77,2.94 -0.77,6.195 0,1.085 0.105,1.995 l 0.105,0.385 0.63,-0.28 q 0.84,-0.42 1.54,-0.42 0.63,0 0.98,0.315 0.385,0.28 0.385,0.735 0,1.085 -1.715,1.96 l -1.19,0.56 0.175,3.5 q -0.21,6.37 -0.525,6.79 -0.42,0.63 -1.295,0.63 -0.84,0 -2.625,-0.665 -1.015,-0.42 -1.61,-0.91 -0.56,-0.49 -1.085,-1.47 -1.12,-2.1 -1.12,-3.78 0,-0.56 0.14,-0.91 0.175,-0.315 0.63,-0.91 0.49,-0.56 0.84,-1.085 0.42,-0.63 1.26,-1.015 0.84,-0.42 0.91,-0.49 0.175,-0.14 0.91,-0.595 0,-1.085 -0.385,-1.925 -0.105,0.105 -0.805,0.805 -0.7,0.665 -1.26,1.155 -0.56,0.455 -1.54,0.91 -0.945,0.455 -1.855,0.455 -1.82,0 -2.87,-1.89 -0.49,-0.875 -0.63,-1.925 -0.14,-1.05 -0.14,-3.955 0,-4.41 0.28,-6.265 0.315,-1.89 1.47,-1.89 z m 8.365,23.205 q 0.175,-0.385 0.175,-1.225 0,-0.665 -0.14,-1.575 -0.105,-0.875 -0.245,-1.505 -0.14,-0.595 -0.14,-0.63 l -0.07,-0.805 -0.315,0.42 q -1.365,1.89 -1.365,3.115 0,0.455 0.84,1.225 0.84,0.805 1.26,0.98 z"
       style="font-style:normal;font-variant:normal;font-weight:bold;font-stretch:normal;font-size:35px;font-family:Purisa;-inkscape-font-specification:'Purisa Bold';text-align:center;word-spacing:-5px;text-anchor:middle;fill:#616161;fill-opacity:1"
       id="path3888"
       inkscape:connector-curvature="0" />
    <path
       d="m 275.63169,86.92388 q -2.03,-1.19 -2.765,-1.19 -0.49,0 -3.01,2.065 -2.52,2.065 -3.045,3.15 -0.315,0.63 -0.315,2.695 0,2.345 0.42,3.045 0.315,0.49 1.645,1.12 1.365,0.63 2.59,0.63 2.345,0 6.09,-3.15 2.625,-2.205 2.905,-3.045 0,-0.875 -1.47,-2.625 -1.435,-1.75 -3.045,-2.695 z m 5.075,9.31 q -0.035,0.035 -0.735,0.77 -0.665,0.7 -1.505,1.4 -0.805,0.7 -1.96,1.505 -1.12,0.805 -2.625,1.295 -1.505,0.49 -3.045,0.49 -1.33,0 -2.905,-0.525 -4.935,-1.68 -4.935,-6.93 0,-2.135 0.735,-4.06 0.77,-1.96 1.925,-3.325 1.19,-1.4 2.555,-2.415 1.4,-1.015 2.695,-1.505 1.295,-0.525 2.24,-0.525 1.085,0 3.465,1.26 2.38,1.26 3.36,2.415 0.56,0.7 0.84,0.91 0.14,-1.225 0.245,-9.52 0.105,-8.33 0.455,-9.17 0.56,-1.365 1.785,-1.365 l 1.4,0 -0.28,14.84 q -0.105,5.11 -0.105,9.135 0,5.425 0.245,7.77 0.245,2.31 0.245,2.555 0,0.735 -0.385,1.505 -0.385,0.77 -1.295,0.77 -1.12,0 -1.575,-1.295 -0.455,-1.26 -0.595,-3.36 -0.105,-2.1 -0.245,-2.625 z"
       style="font-style:normal;font-variant:normal;font-weight:bold;font-stretch:normal;font-size:35px;font-family:Purisa;-inkscape-font-specification:'Purisa Bold';text-align:center;word-spacing:-5px;text-anchor:middle;fill:#616161;fill-opacity:1"
       id="path3890"
       inkscape:connector-curvature="0" />
    <path
       d="m 300.15193,97.31888 q 0,-0.42 1.155,-1.4 1.155,-0.98 1.19,-1.26 0,-0.14 -0.21,-0.385 -0.21,-0.245 -1.12,-0.56 -0.875,-0.315 -2.31,-0.315 -1.54,0 -2.695,0.455 -1.12,0.455 -1.68,1.12 -0.56,0.665 -0.805,1.225 -0.245,0.56 -0.245,0.98 0,0.7 0.105,0.91 0.14,0.175 0.665,0.42 0.805,0.315 1.295,0.315 0.77,0 1.925,-0.385 1.155,-0.385 1.96,-0.735 l 0.77,-0.385 z m 6.3,2.24 q -0.07,0.805 -0.63,1.4 -0.525,0.56 -0.875,0.56 -0.21,0 -0.42,-0.07 -0.175,-0.07 -0.35,-0.245 -0.14,-0.21 -0.28,-0.35 -0.105,-0.175 -0.21,-0.49 -0.07,-0.315 -0.14,-0.49 -0.07,-0.21 -0.14,-0.595 -0.07,-0.385 -0.105,-0.56 0,-0.175 -0.07,-0.56 -0.07,-0.385 -0.07,-0.49 -1.12,1.295 -3.325,2.52 -2.17,1.19 -3.71,1.19 -0.98,0 -2.345,-0.315 -1.365,-0.315 -1.995,-0.77 -1.085,-0.805 -1.085,-3.43 0,-1.54 0.875,-2.66 0.875,-1.12 3.15,-2.24 2.555,-1.295 4.795,-1.295 0.98,0 1.61,0.245 0.665,0.245 1.015,0.595 0.385,0.315 0.42,0.315 0.56,0.105 0.98,0.455 0,-2.31 -0.21,-3.85 -0.175,-1.575 -0.525,-2.31 -0.35,-0.735 -0.7,-1.015 -0.35,-0.28 -0.84,-0.28 -1.68,0 -3.64,0.665 -1.925,0.665 -3.5,1.365 -1.54,0.665 -2.24,0.665 -0.875,0 -0.875,-0.805 0,-0.49 0.21,-0.875 0.21,-0.42 0.49,-0.7 0.315,-0.28 0.945,-0.56 0.665,-0.315 1.19,-0.49 0.56,-0.21 1.61,-0.56 1.05,-0.385 1.82,-0.665 2.1,-0.735 3.675,-0.735 2.835,0 4.235,2.66 0.63,1.19 0.735,2.17 0.14,0.98 0.21,5.705 0.07,4.445 0.315,6.895 z"
       style="font-style:normal;font-variant:normal;font-weight:bold;font-stretch:normal;font-size:35px;font-family:Purisa;-inkscape-font-specification:'Purisa Bold';text-align:center;word-spacing:-5px;text-anchor:middle;fill:#616161;fill-opacity:1"
       id="path3892"
       inkscape:connector-curvature="0" />
    <path
       d="m 317.49169,82.19888 q -1.12,0.07 -3.08,0.42 -1.925,0.315 -2.59,0.315 -1.505,0 -1.505,-1.19 0,-0.945 1.33,-1.435 1.33,-0.49 3.15,-0.77 1.855,-0.28 2.38,-0.56 0.28,-0.28 0.28,-1.505 0,-1.26 -0.315,-3.29 -0.315,-2.03 -0.315,-3.675 0,-1.12 0.595,-1.645 0.595,-0.56 1.295,-0.56 0.77,0 1.085,0.63 0.175,0.525 0.595,4.585 0.42,4.025 0.525,4.655 0.28,-0.035 1.855,-0.28 1.61,-0.28 2.45,-0.28 1.19,0 1.68,0.385 0.49,0.385 0.49,0.84 0,0.665 -0.91,1.12 -0.91,0.455 -3.29,1.05 l -1.995,0.315 0.28,5.32 q 0.28,4.935 0.98,9.24 0.7,4.305 0.7,4.97 0,1.54 -1.61,1.54 -0.945,0 -1.4,-0.35 -1.05,-0.945 -1.05,-3.955 0,-1.225 -0.14,-2.485 -0.14,-1.295 -0.49,-3.99 -0.315,-2.73 -0.595,-5.635 -0.35,-3.64 -0.385,-3.78 z"
       style="font-style:normal;font-variant:normal;font-weight:bold;font-stretch:normal;font-size:35px;font-family:Purisa;-inkscape-font-specification:'Purisa Bold';text-align:center;word-spacing:-5px;text-anchor:middle;fill:#616161;fill-opacity:1"
       id="path3894"
       inkscape:connector-curvature="0" />
    <path
       d="m 342.32966,97.31888 q 0,-0.42 1.155,-1.4 1.155,-0.98 1.19,-1.26 0,-0.14 -0.21,-0.385 -0.21,-0.245 -1.12,-0.56 -0.875,-0.315 -2.31,-0.315 -1.54,0 -2.695,0.455 -1.12,0.455 -1.68,1.12 -0.56,0.665 -0.805,1.225 -0.245,0.56 -0.245,0.98 0,0.7 0.105,0.91 0.14,0.175 0.665,0.42 0.805,0.315 1.295,0.315 0.77,0 1.925,-0.385 1.155,-0.385 1.96,-0.735 l 0.77,-0.385 z m 6.3,2.24 q -0.07,0.805 -0.63,1.4 -0.525,0.56 -0.875,0.56 -0.21,0 -0.42,-0.07 -0.175,-0.07 -0.35,-0.245 -0.14,-0.21 -0.28,-0.35 -0.105,-0.175 -0.21,-0.49 -0.07,-0.315 -0.14,-0.49 -0.07,-0.21 -0.14,-0.595 -0.07,-0.385 -0.105,-0.56 0,-0.175 -0.07,-0.56 -0.07,-0.385 -0.07,-0.49 -1.12,1.295 -3.325,2.52 -2.17,1.19 -3.71,1.19 -0.98,0 -2.345,-0.315 -1.365,-0.315 -1.995,-0.77 -1.085,-0.805 -1.085,-3.43 0,-1.54 0.875,-2.66 0.875,-1.12 3.15,-2.24 2.555,-1.295 4.795,-1.295 0.98,0 1.61,0.245 0.665,0.245 1.015,0.595 0.385,0.315 0.42,0.315 0.56,0.105 0.98,0.455 0,-2.31 -0.21,-3.85 -0.175,-1.575 -0.525,-2.31 -0.35,-0.735 -0.7,-1.015 -0.35,-0.28 -0.84,-0.28 -1.68,0 -3.64,0.665 -1.925,0.665 -3.5,1.365 -1.54,0.665 -2.24,0.665 -0.875,0 -0.875,-0.805 0,-0.49 0.21,-0.875 0.21,-0.42 0.49,-0.7 0.315,-0.28 0.945,-0.56 0.665,-0.315 1.19,-0.49 0.56,-0.21 1.61,-0.56 1.05,-0.385 1.82,-0.665 2.1,-0.735 3.675,-0.735 2.835,0 4.235,2.66 0.63,1.19 0.735,2.17 0.14,0.98 0.21,5.705 0.07,4.445 0.315,6.895 z"
       style="font-style:normal;font-variant:normal;font-weight:bold;font-stretch:normal;font-size:35px;font-family:Purisa;-inkscape-font-specification:'Purisa Bold';text-align:center;word-spacing:-5px;text-anchor:middle;fill:#616161;fill-opacity:1"
       id="path3896"
       inkscape:connector-curvature="0" />
    <path
       d="m 372.78138,83.70388 q 0.805,0 1.015,0.63 0.245,0.63 0.245,1.855 0,1.54 -0.035,3.15 -0.035,1.61 -0.035,2.695 0,4.585 0.805,4.585 0.49,0 2.065,-1.505 1.575,-1.505 2.275,-2.94 0.735,-1.47 1.225,-3.395 0.525,-1.925 0.735,-3.15 0.245,-1.225 0.735,-2.1 0.525,-0.91 1.365,-0.91 0.595,0 1.015,0.42 0.455,0.42 0.455,1.085 0,0.595 -0.805,3.57 -0.77,2.94 -0.77,6.195 0,1.085 0.105,1.995 l 0.105,0.385 0.63,-0.28 q 0.84,-0.42 1.54,-0.42 0.63,0 0.98,0.315 0.385,0.28 0.385,0.735 0,1.085 -1.715,1.96 l -1.19,0.56 0.175,3.5 q -0.21,6.37 -0.525,6.79 -0.42,0.63 -1.295,0.63 -0.84,0 -2.625,-0.665 -1.015,-0.42 -1.61,-0.91 -0.56,-0.49 -1.085,-1.47 -1.12,-2.1 -1.12,-3.78 0,-0.56 0.14,-0.91 0.175,-0.315 0.63,-0.91 0.49,-0.56 0.84,-1.085 0.42,-0.63 1.26,-1.015 0.84,-0.42 0.91,-0.49 0.175,-0.14 0.91,-0.595 0,-1.085 -0.385,-1.925 -0.105,0.105 -0.805,0.805 -0.7,0.665 -1.26,1.155 -0.56,0.455 -1.54,0.91 -0.945,0.455 -1.855,0.455 -1.82,0 -2.87,-1.89 -0.49,-0.875 -0.63,-1.925 -0.14,-1.05 -0.14,-3.955 0,-4.41 0.28,-6.265 0.315,-1.89 1.47,-1.89 z m 8.365,23.205 q 0.175,-0.385 0.175,-1.225 0,-0.665 -0.14,-1.575 -0.105,-0.875 -0.245,-1.505 -0.14,-0.595 -0.14,-0.63 l -0.07,-0.805 -0.315,0.42 q -1.365,1.89 -1.365,3.115 0,0.455 0.84,1.225 0.84,0.805 1.26,0.98 z"
       style="font-style:normal;font-variant:normal;font-weight:bold;font-stretch:normal;font-size:35px;font-family:Purisa;-inkscape-font-specification:'Purisa Bold';text-align:center;word-spacing:-5px;text-anchor:middle;fill:#616161;fill-opacity:1"
       id="path3898"
       inkscape:connector-curvature="0" />
    <path
       d="m 405.44075,87.37888 q 0,-0.28 -1.54,-1.435 -1.12,-0.84 -1.61,-1.05 -0.455,-0.21 -1.33,-0.21 -1.75,0 -2.59,0.28 -0.805,0.245 -1.715,1.12 -2.695,2.625 -2.73,3.395 0.14,0.035 0.595,0.035 3.395,0 9.415,-1.19 1.505,-0.28 1.505,-0.945 z m 4.515,5.53 q 0.63,0 0.63,0.735 0,0.805 -1.015,2.31 -1.015,1.47 -2.03,2.38 -3.92,3.36 -8.085,3.36 -3.43,0 -6.195,-2.695 -2.765,-2.695 -2.765,-7.42 0,-1.33 0.385,-2.555 0.735,-2.17 3.29,-4.515 2.555,-2.38 4.9,-2.38 0.63,0 1.855,0.105 1.89,0.14 2.66,0.385 0.805,0.21 1.82,0.875 1.12,0.735 2.03,2.1 0.91,1.33 0.91,2.345 0,1.33 -1.085,1.96 -1.085,0.63 -3.675,1.155 -3.395,0.665 -7,0.875 l -3.045,0.14 0,0.91 q 0,1.295 0.56,2.275 0.595,0.98 1.89,2.065 1.855,1.54 3.78,1.54 1.54,0 3.255,-0.91 1.715,-0.945 2.905,-2.065 1.225,-1.12 2.345,-2.03 1.155,-0.945 1.68,-0.945 z"
       style="font-style:normal;font-variant:normal;font-weight:bold;font-stretch:normal;font-size:35px;font-family:Purisa;-inkscape-font-specification:'Purisa Bold';text-align:center;word-spacing:-5px;text-anchor:middle;fill:#616161;fill-opacity:1"
       id="path3900"
       inkscape:connector-curvature="0" />
    <path
       d="m 420.97802,82.19888 q -1.12,0.07 -3.08,0.42 -1.925,0.315 -2.59,0.315 -1.505,0 -1.505,-1.19 0,-0.945 1.33,-1.435 1.33,-0.49 3.15,-0.77 1.855,-0.28 2.38,-0.56 0.28,-0.28 0.28,-1.505 0,-1.26 -0.315,-3.29 -0.315,-2.03 -0.315,-3.675 0,-1.12 0.595,-1.645 0.595,-0.56 1.295,-0.56 0.77,0 1.085,0.63 0.175,0.525 0.595,4.585 0.42,4.025 0.525,4.655 0.28,-0.035 1.855,-0.28 1.61,-0.28 2.45,-0.28 1.19,0 1.68,0.385 0.49,0.385 0.49,0.84 0,0.665 -0.91,1.12 -0.91,0.455 -3.29,1.05 l -1.995,0.315 0.28,5.32 q 0.28,4.935 0.98,9.24 0.7,4.305 0.7,4.97 0,1.54 -1.61,1.54 -0.945,0 -1.4,-0.35 -1.05,-0.945 -1.05,-3.955 0,-1.225 -0.14,-2.485 -0.14,-1.295 -0.49,-3.99 -0.315,-2.73 -0.595,-5.635 -0.35,-3.64 -0.385,-3.78 z"
       style="font-style:normal;font-variant:normal;font-weight:bold;font-stretch:normal;font-size:35px;font-family:Purisa;-inkscape-font-specification:'Purisa Bold';text-align:center;word-spacing:-5px;text-anchor:middle;fill:#616161;fill-opacity:1"
       id="path3902"
       inkscape:connector-curvature="0" />
  </g>
  <g
     style="font-style:normal;font-variant:normal;font-weight:normal;font-stretch:normal;font-size:40px;line-height:125%;font-family:Purisa;-inkscape-font-specification:Purisa;letter-spacing:0px;word-spacing:0px;fill:#616161;fill-opacity:1;stroke:none;stroke-width:1px;stroke-linecap:butt;stroke-linejoin:miter;stroke-opacity:1"
     id="text3199"
     transform="translate(0,-5.43307)">
    <path
       d="m 33.015862,180.25664 q 0,-1.77 0.48,-2.55 0.48,-0.81 1.08,-0.81 0.24,0 1.02,-0.39 0.81,-0.39 1.8,-0.84 1.02,-0.48 2.79,-0.87 1.8,-0.39 3.81,-0.39 3.15,0 3.15,1.2 0,0.81 -3.24,1.29 -2.61,0.39 -4.77,1.08 -2.16,0.69 -2.85,1.29 -0.39,0.36 -0.39,0.96 0,0.06 0.15,1.53 0.15,1.47 0.33,3.06 0.18,1.59 0.24,1.8 0.75,-0.33 3.75,-0.96 3.03,-0.63 4.17,-0.63 0.63,0 0.93,0.33 0.3,0.33 0.3,0.72 0,0.48 -0.36,0.78 -0.69,0.66 -4.41,1.5 -3.72,0.81 -4.08,1.02 -0.18,0.12 -0.18,0.39 0,2.19 0.06,3.6 l 0.09,2.13 1.26,0 q 1.41,0 3.6,-0.54 2.19,-0.54 3.63,-1.26 1.02,-0.57 1.41,-0.57 0.51,0 0.9,0.48 0.42,0.48 0.42,0.93 0,0.93 -1.83,1.89 -1.8,0.96 -4.29,1.53 -2.46,0.57 -4.47,0.57 -2.37,0 -2.88,-0.87 -0.33,-0.57 -0.51,-2.55 -0.18,-1.98 -0.42,-5.7 -0.21,-3.75 -0.48,-6.45 -0.21,-2.52 -0.21,-2.7 z"
       style="font-style:normal;font-variant:normal;font-weight:bold;font-stretch:normal;font-size:30px;font-family:Purisa;-inkscape-font-specification:'Purisa Bold';fill:#616161;fill-opacity:1"
       id="path3905"
       inkscape:connector-curvature="0" />
    <path
       d="m 55.151643,198.34664 q -0.33,0 -0.81,-0.24 -0.45,-0.24 -0.45,-0.75 0,-0.66 2.13,-3.51 l 2.16,-2.85 -1.2,-1.14 q -0.39,-0.36 -1.2,-1.08 -0.81,-0.75 -1.38,-1.29 -0.57,-0.54 -1.2,-1.2 -0.63,-0.66 -0.96,-1.2 -0.33,-0.57 -0.33,-0.99 0.06,-0.69 0.45,-1.17 0.42,-0.51 0.93,-0.51 0.75,0 1.2,1.05 0.21,0.48 2.37,2.7 2.16,2.22 3.03,2.85 0.72,-0.9 1.35,-1.86 l 2.25,-3.42 q 0.87,-1.26 1.53,-1.26 0.42,0 0.84,0.42 0.42,0.39 0.42,0.84 0,0.42 -0.75,1.35 -0.72,0.9 -0.87,1.35 -0.18,0.6 -1.38,2.28 -1.17,1.68 -1.26,1.83 0.21,0.24 2.7,2.4 2.52,2.16 2.67,2.64 0.12,0.42 0.12,0.57 0,0.48 -0.3,0.78 -0.27,0.3 -0.75,0.3 -0.87,0 -1.71,-0.9 -0.75,-0.75 -2.25,-1.92 -1.47,-1.17 -2.13,-1.56 -0.45,0.39 -1.53,1.86 -1.05,1.44 -2.04,2.55 -0.99,1.08 -1.65,1.08 z"
       style="font-style:normal;font-variant:normal;font-weight:bold;font-stretch:normal;font-size:30px;font-family:Purisa;-inkscape-font-specification:'Purisa Bold';fill:#616161;fill-opacity:1"
       id="path3907"
       inkscape:connector-curvature="0" />
    <path
       d="m 70.804612,185.62664 q 0,-0.54 0.84,-1.26 0.84,-0.75 0.84,-1.14 0,-0.66 0.42,-1.56 0.42,-0.9 1.32,-0.9 0.6,0 0.96,0.48 0.39,0.45 0.54,0.45 0.27,0 2.34,-0.45 2.07,-0.48 3.72,-0.48 1.38,0 3.03,0.33 3.48,0.75 3.48,4.11 0,2.55 -1.89,6.36 -1.29,2.64 -3.3,4.08 -2.01,1.44 -4.32,1.44 -0.6,0 -0.99,-0.06 l -0.9,-0.12 0.24,1.02 q 1.17,4.92 1.17,6.39 0,1.29 -1.35,1.29 -0.87,0 -1.29,-0.51 -0.54,-0.69 -1.26,-4.2 -0.69,-3.48 -1.2,-9 -0.18,-1.92 -0.3,-2.97 -0.09,-1.08 -0.21,-1.59 -0.12,-0.54 -0.21,-0.66 -0.09,-0.12 -0.27,-0.12 -1.41,0 -1.41,-0.93 z m 13.77,-1.74 q -0.36,-0.18 -1.77,-0.18 -2.91,0 -5.19,0.66 l -1.89,0.57 0.06,1.65 q 0.09,2.28 0.36,4.89 0.3,2.61 0.54,2.61 0.6,0 1.26,0.39 0.66,0.36 0.96,0.36 1.14,0 2.7,-1.47 1.59,-1.47 2.73,-3.57 1.14,-2.13 1.14,-3.75 0,-0.6 -0.21,-1.11 -0.21,-0.54 -0.42,-0.75 -0.18,-0.24 -0.27,-0.3 z"
       style="font-style:normal;font-variant:normal;font-weight:bold;font-stretch:normal;font-size:30px;font-family:Purisa;-inkscape-font-specification:'Purisa Bold';fill:#616161;fill-opacity:1"
       id="path3909"
       inkscape:connector-curvature="0" />
    <path
       d="m 93.125549,173.98664 q 0,-2.19 0.18,-3.36 0.18,-1.17 0.42,-1.47 0.27,-0.33 0.72,-0.33 0.72,0 0.87,0.6 0.15,0.63 0.63,7.65 0.51,7.02 0.93,13.65 0.45,6.63 0.45,6.78 0,1.05 -1.14,1.05 -1.02,0 -1.32,-1.23 -0.27,-1.26 -0.69,-7.32 -0.48,-6.39 -0.87,-11.13 -0.18,-2.52 -0.18,-4.89 z"
       style="font-style:normal;font-variant:normal;font-weight:bold;font-stretch:normal;font-size:30px;font-family:Purisa;-inkscape-font-specification:'Purisa Bold';fill:#616161;fill-opacity:1"
       id="path3911"
       inkscape:connector-curvature="0" />
    <path
       d="m 104.71211,184.66664 q 2.52,-2.16 4.29,-2.85 1.8,-0.69 4.5,-0.69 4.17,0 5.22,2.34 0.6,1.32 0.6,3.27 0,3.09 -1.5,6.3 -1.47,3.21 -3.75,4.5 -2.22,1.23 -4.71,1.23 -3.66,0 -5.58,-2.16 -1.35,-1.5 -1.77,-2.55 -0.39,-1.08 -0.39,-2.97 0,-3.75 3.09,-6.42 z m 5.43,11.61 q 2.46,0 4.53,-3.12 2.1,-3.15 2.1,-7.14 0,-0.42 -0.09,-0.66 -0.06,-0.24 -0.15,-0.33 -0.09,-0.12 -0.33,-0.3 -1.08,-0.78 -2.28,-0.78 -0.18,0 -0.51,0.06 -0.3,0.03 -0.93,0.12 -0.6,0.06 -1.32,0.12 -0.99,0.09 -1.62,0.39 -0.6,0.27 -1.56,1.08 -1.8,1.53 -2.58,2.82 -0.75,1.26 -0.75,2.76 0,2.19 1.53,3.6 1.53,1.38 3.96,1.38 z"
       style="font-style:normal;font-variant:normal;font-weight:bold;font-stretch:normal;font-size:30px;font-family:Purisa;-inkscape-font-specification:'Purisa Bold';fill:#616161;fill-opacity:1"
       id="path3913"
       inkscape:connector-curvature="0" />
    <path
       d="m 134.62586,183.55664 q 0.57,0 0.99,0.27 0.42,0.24 0.54,0.48 0.15,0.24 0.15,0.42 0,0.6 -1.38,1.11 -1.83,0.69 -3.99,3.39 -2.13,2.7 -2.58,5.07 -0.57,3.03 -0.96,4.02 -0.39,1.02 -1.14,1.02 -0.3,0 -0.54,-0.09 -0.21,-0.06 -0.36,-0.27 -0.15,-0.21 -0.24,-0.36 -0.09,-0.15 -0.18,-0.48 -0.06,-0.36 -0.09,-0.51 0,-0.18 -0.06,-0.57 -0.03,-0.42 -0.03,-0.51 -0.72,-7.02 -0.72,-11.79 0,-0.99 0.12,-1.53 0.12,-0.57 0.6,-0.99 0.3,-0.27 0.66,-0.27 0.39,0 0.66,0.33 0.27,0.3 0.27,0.81 0,1.11 0.3,3.15 0.33,2.01 0.6,3.15 0.24,-0.33 0.69,-1.02 1.14,-1.86 3.18,-3.33 2.04,-1.5 3.51,-1.5 z"
       style="font-style:normal;font-variant:normal;font-weight:bold;font-stretch:normal;font-size:30px;font-family:Purisa;-inkscape-font-specification:'Purisa Bold';fill:#616161;fill-opacity:1"
       id="path3915"
       inkscape:connector-curvature="0" />
    <path
       d="m 152.71961,186.22664 q 0,-0.24 -1.32,-1.23 -0.96,-0.72 -1.38,-0.9 -0.39,-0.18 -1.14,-0.18 -1.5,0 -2.22,0.24 -0.69,0.21 -1.47,0.96 -2.31,2.25 -2.34,2.91 0.12,0.03 0.51,0.03 2.91,0 8.07,-1.02 1.29,-0.24 1.29,-0.81 z m 3.87,4.74 q 0.54,0 0.54,0.63 0,0.69 -0.87,1.98 -0.87,1.26 -1.74,2.04 -3.36,2.88 -6.93,2.88 -2.94,0 -5.31,-2.31 -2.37,-2.31 -2.37,-6.36 0,-1.14 0.33,-2.19 0.63,-1.86 2.82,-3.87 2.19,-2.04 4.2,-2.04 0.54,0 1.59,0.09 1.62,0.12 2.28,0.33 0.69,0.18 1.56,0.75 0.96,0.63 1.74,1.8 0.78,1.14 0.78,2.01 0,1.14 -0.93,1.68 -0.93,0.54 -3.15,0.99 -2.91,0.57 -6,0.75 l -2.61,0.12 0,0.78 q 0,1.11 0.48,1.95 0.51,0.84 1.62,1.77 1.59,1.32 3.24,1.32 1.32,0 2.79,-0.78 1.47,-0.81 2.49,-1.77 1.05,-0.96 2.01,-1.74 0.99,-0.81 1.44,-0.81 z"
       style="font-style:normal;font-variant:normal;font-weight:bold;font-stretch:normal;font-size:30px;font-family:Purisa;-inkscape-font-specification:'Purisa Bold';fill:#616161;fill-opacity:1"
       id="path3917"
       inkscape:connector-curvature="0" />
    <path
       d="m 179.8518,180.25664 q 0,-1.77 0.48,-2.55 0.48,-0.81 1.08,-0.81 0.24,0 1.02,-0.39 0.81,-0.39 1.8,-0.84 1.02,-0.48 2.79,-0.87 1.8,-0.39 3.81,-0.39 3.15,0 3.15,1.2 0,0.81 -3.24,1.29 -2.61,0.39 -4.77,1.08 -2.16,0.69 -2.85,1.29 -0.39,0.36 -0.39,0.96 0,0.06 0.15,1.53 0.15,1.47 0.33,3.06 0.18,1.59 0.24,1.8 0.75,-0.33 3.75,-0.96 3.03,-0.63 4.17,-0.63 0.63,0 0.93,0.33 0.3,0.33 0.3,0.72 0,0.48 -0.36,0.78 -0.69,0.66 -4.41,1.5 -3.72,0.81 -4.08,1.02 -0.18,0.12 -0.18,0.39 0,2.19 0.06,3.6 l 0.09,2.13 1.26,0 q 1.41,0 3.6,-0.54 2.19,-0.54 3.63,-1.26 1.02,-0.57 1.41,-0.57 0.51,0 0.9,0.48 0.42,0.48 0.42,0.93 0,0.93 -1.83,1.89 -1.8,0.96 -4.29,1.53 -2.46,0.57 -4.47,0.57 -2.37,0 -2.88,-0.87 -0.33,-0.57 -0.51,-2.55 -0.18,-1.98 -0.42,-5.7 -0.21,-3.75 -0.48,-6.45 -0.21,-2.52 -0.21,-2.7 z"
       style="font-style:normal;font-variant:normal;font-weight:bold;font-stretch:normal;font-size:30px;font-family:Purisa;-inkscape-font-specification:'Purisa Bold';fill:#616161;fill-opacity:1"
       id="path3919"
       inkscape:connector-curvature="0" />
    <path
       d="m 201.98758,198.34664 q -0.33,0 -0.81,-0.24 -0.45,-0.24 -0.45,-0.75 0,-0.66 2.13,-3.51 l 2.16,-2.85 -1.2,-1.14 q -0.39,-0.36 -1.2,-1.08 -0.81,-0.75 -1.38,-1.29 -0.57,-0.54 -1.2,-1.2 -0.63,-0.66 -0.96,-1.2 -0.33,-0.57 -0.33,-0.99 0.06,-0.69 0.45,-1.17 0.42,-0.51 0.93,-0.51 0.75,0 1.2,1.05 0.21,0.48 2.37,2.7 2.16,2.22 3.03,2.85 0.72,-0.9 1.35,-1.86 l 2.25,-3.42 q 0.87,-1.26 1.53,-1.26 0.42,0 0.84,0.42 0.42,0.39 0.42,0.84 0,0.42 -0.75,1.35 -0.72,0.9 -0.87,1.35 -0.18,0.6 -1.38,2.28 -1.17,1.68 -1.26,1.83 0.21,0.24 2.7,2.4 2.52,2.16 2.67,2.64 0.12,0.42 0.12,0.57 0,0.48 -0.3,0.78 -0.27,0.3 -0.75,0.3 -0.87,0 -1.71,-0.9 -0.75,-0.75 -2.25,-1.92 -1.47,-1.17 -2.13,-1.56 -0.45,0.39 -1.53,1.86 -1.05,1.44 -2.04,2.55 -0.99,1.08 -1.65,1.08 z"
       style="font-style:normal;font-variant:normal;font-weight:bold;font-stretch:normal;font-size:30px;font-family:Purisa;-inkscape-font-specification:'Purisa Bold';fill:#616161;fill-opacity:1"
       id="path3921"
       inkscape:connector-curvature="0" />
    <path
       d="m 219.41055,181.09664 q 0.51,-0.36 0.99,-0.36 0.48,0 0.81,0.39 0.48,0.9 0.78,5.22 0.33,4.32 0.33,8.07 0,2.7 -0.18,3.06 -0.6,0.48 -1.29,0.48 -1.05,0 -1.29,-0.63 -0.15,-0.48 -0.48,-6.24 -0.3,-5.79 -0.3,-7.74 0,-1.83 0.63,-2.25 z m -0.33,-7.02 q 0.06,-0.57 0.48,-0.93 0.45,-0.36 0.87,-0.36 0.42,0 1.08,0.39 0.66,0.39 0.66,1.05 0,0.72 -0.36,1.29 -0.36,0.57 -0.96,0.57 -0.63,0 -1.2,-0.57 -0.57,-0.6 -0.57,-1.44 z"
       style="font-style:normal;font-variant:normal;font-weight:bold;font-stretch:normal;font-size:30px;font-family:Purisa;-inkscape-font-specification:'Purisa Bold';fill:#616161;fill-opacity:1"
       id="path3923"
       inkscape:connector-curvature="0" />
    <path
       d="m 227.44258,196.18664 q 0,-0.51 0.27,-0.87 0.27,-0.39 0.66,-0.39 0.75,0 1.32,1.05 0.33,0.63 1.44,1.2 1.11,0.54 2.07,0.54 1.2,0 2.19,-1.32 1.02,-1.35 1.02,-2.07 0,-0.12 -0.09,-0.33 -0.09,-0.24 -0.51,-0.63 -0.39,-0.39 -1.02,-0.57 -1.02,-0.3 -2.22,-0.75 -1.2,-0.48 -1.77,-0.6 -0.9,-0.18 -2.37,-1.26 -1.47,-1.08 -1.47,-2.28 0,-1.2 1.71,-3.09 1.71,-1.89 4.23,-2.43 l 3,-0.27 q 0.81,0 1.23,0.21 0.42,0.18 1.05,0.9 1.02,1.17 1.02,1.71 0,0.75 -0.78,0.75 -0.66,0 -1.35,-0.69 -0.66,-0.72 -1.65,-0.72 -1.35,0 -2.82,0.78 -1.44,0.75 -2.28,1.59 -0.84,0.81 -0.84,1.17 0,0.24 0.33,0.57 0.36,0.3 1.17,0.72 0.84,0.42 1.98,0.75 3.15,0.93 4.35,1.83 1.2,0.9 1.2,2.52 0,1.41 -0.51,2.55 -0.42,0.99 -1.65,2.04 -1.23,1.08 -2.52,1.08 -0.93,0 -2.43,-0.27 -1.47,-0.24 -2.28,-0.6 -0.66,-0.33 -1.17,-1.17 -0.51,-0.87 -0.51,-1.65 z"
       style="font-style:normal;font-variant:normal;font-weight:bold;font-stretch:normal;font-size:30px;font-family:Purisa;-inkscape-font-specification:'Purisa Bold';fill:#616161;fill-opacity:1"
       id="path3925"
       inkscape:connector-curvature="0" />
    <path
       d="m 248.83024,181.78664 q -0.96,0.06 -2.64,0.36 -1.65,0.27 -2.22,0.27 -1.29,0 -1.29,-1.02 0,-0.81 1.14,-1.23 1.14,-0.42 2.7,-0.66 1.59,-0.24 2.04,-0.48 0.24,-0.24 0.24,-1.29 0,-1.08 -0.27,-2.82 -0.27,-1.74 -0.27,-3.15 0,-0.96 0.51,-1.41 0.51,-0.48 1.11,-0.48 0.66,0 0.93,0.54 0.15,0.45 0.51,3.93 0.36,3.45 0.45,3.99 0.24,-0.03 1.59,-0.24 1.38,-0.24 2.1,-0.24 1.02,0 1.44,0.33 0.42,0.33 0.42,0.72 0,0.57 -0.78,0.96 -0.78,0.39 -2.82,0.9 l -1.71,0.27 0.24,4.56 q 0.24,4.23 0.84,7.92 0.6,3.69 0.6,4.26 0,1.32 -1.38,1.32 -0.81,0 -1.2,-0.3 -0.9,-0.81 -0.9,-3.39 0,-1.05 -0.12,-2.13 -0.12,-1.11 -0.42,-3.42 -0.27,-2.34 -0.51,-4.83 -0.3,-3.12 -0.33,-3.24 z"
       style="font-style:normal;font-variant:normal;font-weight:bold;font-stretch:normal;font-size:30px;font-family:Purisa;-inkscape-font-specification:'Purisa Bold';fill:#616161;fill-opacity:1"
       id="path3927"
       inkscape:connector-curvature="0" />
    <path
       d="m 262.76992,181.09664 q 0.51,-0.36 0.99,-0.36 0.48,0 0.81,0.39 0.48,0.9 0.78,5.22 0.33,4.32 0.33,8.07 0,2.7 -0.18,3.06 -0.6,0.48 -1.29,0.48 -1.05,0 -1.29,-0.63 -0.15,-0.48 -0.48,-6.24 -0.3,-5.79 -0.3,-7.74 0,-1.83 0.63,-2.25 z m -0.33,-7.02 q 0.06,-0.57 0.48,-0.93 0.45,-0.36 0.87,-0.36 0.42,0 1.08,0.39 0.66,0.39 0.66,1.05 0,0.72 -0.36,1.29 -0.36,0.57 -0.96,0.57 -0.63,0 -1.2,-0.57 -0.57,-0.6 -0.57,-1.44 z"
       style="font-style:normal;font-variant:normal;font-weight:bold;font-stretch:normal;font-size:30px;font-family:Purisa;-inkscape-font-specification:'Purisa Bold';fill:#616161;fill-opacity:1"
       id="path3929"
       inkscape:connector-curvature="0" />
    <path
       d="m 272.06196,182.50664 q 0,-1.56 0.99,-1.56 0.66,0.03 0.87,0.81 0.21,0.78 0.6,4.38 0.09,0.81 0.15,1.26 l 0.42,3.42 0.33,-0.99 q 0.63,-1.95 1.08,-2.85 0.48,-0.9 1.74,-2.55 2.43,-3.21 4.11,-3.21 1.11,0 1.92,1.23 0.96,1.35 1.17,2.7 0.24,1.35 0.33,6.18 0.06,3.06 0.06,3.72 0,1.98 -0.27,2.7 -0.27,0.69 -1.11,0.69 -0.57,0 -0.75,-0.3 -0.18,-0.33 -0.18,-1.29 0,-0.45 0.06,-1.86 0.06,-1.41 0.06,-2.34 0,-2.55 -0.21,-4.77 -0.21,-2.22 -0.48,-2.79 -0.12,-0.24 -0.3,-0.45 -0.18,-0.24 -0.33,-0.36 -0.12,-0.12 -0.18,-0.12 -0.48,0 -1.98,2.01 -1.47,2.01 -2.49,4.11 -1.05,2.22 -1.41,3.24 -0.33,1.02 -0.54,2.76 -0.33,2.79 -0.54,3.09 -0.15,0.18 -0.33,0.18 -0.45,-0.06 -0.96,-0.63 -0.27,-0.3 -0.42,-0.75 -0.12,-0.48 -0.21,-1.44 -0.09,-0.99 -0.15,-2.1 -0.06,-1.14 -0.24,-3.27 -0.18,-2.16 -0.45,-4.47 -0.36,-3.6 -0.36,-4.38 z"
       style="font-style:normal;font-variant:normal;font-weight:bold;font-stretch:normal;font-size:30px;font-family:Purisa;-inkscape-font-specification:'Purisa Bold';fill:#616161;fill-opacity:1"
       id="path3931"
       inkscape:connector-curvature="0" />
    <path
       d="m 293.23821,190.63664 q 0,1.56 0.81,2.91 0.84,1.32 2.1,1.32 1.8,0 3.96,-1.59 2.19,-1.59 3.54,-4.02 0.78,-1.41 1.29,-3.18 0.54,-1.77 0.54,-2.73 0,-0.3 -0.06,-0.42 -0.54,-0.27 -2.07,-0.27 -1.35,0 -2.4,0.27 -2.64,0.72 -5.19,3.39 -2.52,2.67 -2.52,4.32 z m 11.7,12.45 q 1.11,0 1.11,-0.9 0,-2.31 -0.15,-3.81 -0.15,-1.47 -0.39,-2.52 -0.21,-1.05 -0.27,-1.68 -0.09,-1.41 -0.21,-2.19 -0.84,1.11 -2.64,2.46 -1.8,1.32 -3.06,1.77 -1.47,0.51 -3.21,0.51 -1.08,0 -1.77,-0.24 -0.66,-0.24 -1.65,-1.05 -0.93,-0.78 -1.35,-1.44 -0.39,-0.69 -0.6,-1.77 -0.21,-1.11 -0.21,-1.89 0,-1.2 1.11,-3.12 1.11,-1.95 1.89,-2.91 0.72,-0.9 2.61,-1.98 1.89,-1.11 3.33,-1.53 1.53,-0.48 3.48,-0.48 2.43,0 4.05,0.81 1.65,0.81 1.65,2.58 0,0.93 -0.45,2.22 -0.42,1.26 -0.42,2.16 0,0.54 0.06,1.56 0.09,0.99 0.27,3.36 0.21,2.34 0.36,4.68 l 0.45,6.21 -1.2,0.96 q -0.93,0.78 -1.95,0.78 -1.8,0 -4.32,-0.81 -2.49,-0.81 -4.32,-1.95 -1.8,-1.14 -1.8,-1.95 0,-1.05 0.99,-2.25 1.02,-1.2 1.77,-1.2 1.14,0 1.14,0.84 0,0.36 -0.3,0.9 -0.3,0.54 -0.3,0.96 0,0.63 1.02,1.17 1.05,0.54 1.77,0.54 0.6,0 1.68,0.6 1.11,0.6 1.83,0.6 z"
       style="font-style:normal;font-variant:normal;font-weight:bold;font-stretch:normal;font-size:30px;font-family:Purisa;-inkscape-font-specification:'Purisa Bold';fill:#616161;fill-opacity:1"
       id="path3933"
       inkscape:connector-curvature="0" />
  </g>
  <g
     style="font-style:normal;font-variant:normal;font-weight:normal;font-stretch:normal;font-size:40px;line-height:125%;font-family:Purisa;-inkscape-font-specification:Purisa;letter-spacing:0px;word-spacing:0px;fill:#616161;fill-opacity:1;stroke:none;stroke-width:1px;stroke-linecap:butt;stroke-linejoin:miter;stroke-opacity:1"
     id="text3203"
     transform="translate(0,-5.43307)">
    <path
       d="m 448.75012,177.13664 q 0,0.78 -0.84,0.78 -0.54,0 -1.02,-0.3 -0.45,-0.33 -0.63,-0.66 l -0.18,-0.3 q -0.12,-0.15 -0.45,-0.15 -1.53,0 -3.81,0.96 -2.28,0.96 -3.51,2.16 -1.02,0.99 -1.53,3.12 -0.51,2.13 -0.51,6.36 0,2.01 0.57,3.24 0.54,1.17 1.59,1.92 1.05,0.75 2.16,0.75 0.69,0 2.13,-0.63 1.44,-0.63 2.04,-1.2 l 1.65,-1.53 q 0.75,-0.69 1.56,-1.83 0.84,-1.17 1.38,-1.83 0.57,-0.66 1.02,-0.66 0.21,0.06 0.3,0.09 0.12,0.03 0.27,0.33 0.15,0.3 0.15,0.81 0,0.63 -0.87,2.13 -0.87,1.47 -2.25,3.12 -1.38,1.62 -3.42,2.85 -2.04,1.23 -4.02,1.23 -4.17,0 -6.57,-4.68 -0.33,-0.66 -0.33,-4.11 0,-6.18 0.6,-8.22 0.81,-2.79 4.02,-4.89 3.24,-2.1 6.21,-2.1 1.68,0 2.97,1.02 1.32,0.99 1.32,2.22 z"
       style="font-style:normal;font-variant:normal;font-weight:bold;font-stretch:normal;font-size:30px;font-family:Purisa;-inkscape-font-specification:'Purisa Bold';fill:#616161;fill-opacity:1"
       id="path3936"
       inkscape:connector-curvature="0" />
    <path
       d="m 466.96903,183.55664 q 0.57,0 0.99,0.27 0.42,0.24 0.54,0.48 0.15,0.24 0.15,0.42 0,0.6 -1.38,1.11 -1.83,0.69 -3.99,3.39 -2.13,2.7 -2.58,5.07 -0.57,3.03 -0.96,4.02 -0.39,1.02 -1.14,1.02 -0.3,0 -0.54,-0.09 -0.21,-0.06 -0.36,-0.27 -0.15,-0.21 -0.24,-0.36 -0.09,-0.15 -0.18,-0.48 -0.06,-0.36 -0.09,-0.51 0,-0.18 -0.06,-0.57 -0.03,-0.42 -0.03,-0.51 -0.72,-7.02 -0.72,-11.79 0,-0.99 0.12,-1.53 0.12,-0.57 0.6,-0.99 0.3,-0.27 0.66,-0.27 0.39,0 0.66,0.33 0.27,0.3 0.27,0.81 0,1.11 0.3,3.15 0.33,2.01 0.6,3.15 0.24,-0.33 0.69,-1.02 1.14,-1.86 3.18,-3.33 2.04,-1.5 3.51,-1.5 z"
       style="font-style:normal;font-variant:normal;font-weight:bold;font-stretch:normal;font-size:30px;font-family:Purisa;-inkscape-font-specification:'Purisa Bold';fill:#616161;fill-opacity:1"
       id="path3938"
       inkscape:connector-curvature="0" />
    <path
       d="m 485.06278,186.22664 q 0,-0.24 -1.32,-1.23 -0.96,-0.72 -1.38,-0.9 -0.39,-0.18 -1.14,-0.18 -1.5,0 -2.22,0.24 -0.69,0.21 -1.47,0.96 -2.31,2.25 -2.34,2.91 0.12,0.03 0.51,0.03 2.91,0 8.07,-1.02 1.29,-0.24 1.29,-0.81 z m 3.87,4.74 q 0.54,0 0.54,0.63 0,0.69 -0.87,1.98 -0.87,1.26 -1.74,2.04 -3.36,2.88 -6.93,2.88 -2.94,0 -5.31,-2.31 -2.37,-2.31 -2.37,-6.36 0,-1.14 0.33,-2.19 0.63,-1.86 2.82,-3.87 2.19,-2.04 4.2,-2.04 0.54,0 1.59,0.09 1.62,0.12 2.28,0.33 0.69,0.18 1.56,0.75 0.96,0.63 1.74,1.8 0.78,1.14 0.78,2.01 0,1.14 -0.93,1.68 -0.93,0.54 -3.15,0.99 -2.91,0.57 -6,0.75 l -2.61,0.12 0,0.78 q 0,1.11 0.48,1.95 0.51,0.84 1.62,1.77 1.59,1.32 3.24,1.32 1.32,0 2.79,-0.78 1.47,-0.81 2.49,-1.77 1.05,-0.96 2.01,-1.74 0.99,-0.81 1.44,-0.81 z"
       style="font-style:normal;font-variant:normal;font-weight:bold;font-stretch:normal;font-size:30px;font-family:Purisa;-inkscape-font-specification:'Purisa Bold';fill:#616161;fill-opacity:1"
       id="path3940"
       inkscape:connector-curvature="0" />
    <path
       d="m 501.74043,194.74664 q 0,-0.36 0.99,-1.2 0.99,-0.84 1.02,-1.08 0,-0.12 -0.18,-0.33 -0.18,-0.21 -0.96,-0.48 -0.75,-0.27 -1.98,-0.27 -1.32,0 -2.31,0.39 -0.96,0.39 -1.44,0.96 -0.48,0.57 -0.69,1.05 -0.21,0.48 -0.21,0.84 0,0.6 0.09,0.78 0.12,0.15 0.57,0.36 0.69,0.27 1.11,0.27 0.66,0 1.65,-0.33 0.99,-0.33 1.68,-0.63 l 0.66,-0.33 z m 5.4,1.92 q -0.06,0.69 -0.54,1.2 -0.45,0.48 -0.75,0.48 -0.18,0 -0.36,-0.06 -0.15,-0.06 -0.3,-0.21 -0.12,-0.18 -0.24,-0.3 -0.09,-0.15 -0.18,-0.42 -0.06,-0.27 -0.12,-0.42 -0.06,-0.18 -0.12,-0.51 -0.06,-0.33 -0.09,-0.48 0,-0.15 -0.06,-0.48 -0.06,-0.33 -0.06,-0.42 -0.96,1.11 -2.85,2.16 -1.86,1.02 -3.18,1.02 -0.84,0 -2.01,-0.27 -1.17,-0.27 -1.71,-0.66 -0.93,-0.69 -0.93,-2.94 0,-1.32 0.75,-2.28 0.75,-0.96 2.7,-1.92 2.19,-1.11 4.11,-1.11 0.84,0 1.38,0.21 0.57,0.21 0.87,0.51 0.33,0.27 0.36,0.27 0.48,0.09 0.84,0.39 0,-1.98 -0.18,-3.3 -0.15,-1.35 -0.45,-1.98 -0.3,-0.63 -0.6,-0.87 -0.3,-0.24 -0.72,-0.24 -1.44,0 -3.12,0.57 -1.65,0.57 -3,1.17 -1.32,0.57 -1.92,0.57 -0.75,0 -0.75,-0.69 0,-0.42 0.18,-0.75 0.18,-0.36 0.42,-0.6 0.27,-0.24 0.81,-0.48 0.57,-0.27 1.02,-0.42 0.48,-0.18 1.38,-0.48 0.9,-0.33 1.56,-0.57 1.8,-0.63 3.15,-0.63 2.43,0 3.63,2.28 0.54,1.02 0.63,1.86 0.12,0.84 0.18,4.89 0.06,3.81 0.27,5.91 z"
       style="font-style:normal;font-variant:normal;font-weight:bold;font-stretch:normal;font-size:30px;font-family:Purisa;-inkscape-font-specification:'Purisa Bold';fill:#616161;fill-opacity:1"
       id="path3942"
       inkscape:connector-curvature="0" />
    <path
       d="m 516.60309,181.78664 q -0.96,0.06 -2.64,0.36 -1.65,0.27 -2.22,0.27 -1.29,0 -1.29,-1.02 0,-0.81 1.14,-1.23 1.14,-0.42 2.7,-0.66 1.59,-0.24 2.04,-0.48 0.24,-0.24 0.24,-1.29 0,-1.08 -0.27,-2.82 -0.27,-1.74 -0.27,-3.15 0,-0.96 0.51,-1.41 0.51,-0.48 1.11,-0.48 0.66,0 0.93,0.54 0.15,0.45 0.51,3.93 0.36,3.45 0.45,3.99 0.24,-0.03 1.59,-0.24 1.38,-0.24 2.1,-0.24 1.02,0 1.44,0.33 0.42,0.33 0.42,0.72 0,0.57 -0.78,0.96 -0.78,0.39 -2.82,0.9 l -1.71,0.27 0.24,4.56 q 0.24,4.23 0.84,7.92 0.6,3.69 0.6,4.26 0,1.32 -1.38,1.32 -0.81,0 -1.2,-0.3 -0.9,-0.81 -0.9,-3.39 0,-1.05 -0.12,-2.13 -0.12,-1.11 -0.42,-3.42 -0.27,-2.34 -0.51,-4.83 -0.3,-3.12 -0.33,-3.24 z"
       style="font-style:normal;font-variant:normal;font-weight:bold;font-stretch:normal;font-size:30px;font-family:Purisa;-inkscape-font-specification:'Purisa Bold';fill:#616161;fill-opacity:1"
       id="path3944"
       inkscape:connector-curvature="0" />
    <path
       d="m 541.31278,186.22664 q 0,-0.24 -1.32,-1.23 -0.96,-0.72 -1.38,-0.9 -0.39,-0.18 -1.14,-0.18 -1.5,0 -2.22,0.24 -0.69,0.21 -1.47,0.96 -2.31,2.25 -2.34,2.91 0.12,0.03 0.51,0.03 2.91,0 8.07,-1.02 1.29,-0.24 1.29,-0.81 z m 3.87,4.74 q 0.54,0 0.54,0.63 0,0.69 -0.87,1.98 -0.87,1.26 -1.74,2.04 -3.36,2.88 -6.93,2.88 -2.94,0 -5.31,-2.31 -2.37,-2.31 -2.37,-6.36 0,-1.14 0.33,-2.19 0.63,-1.86 2.82,-3.87 2.19,-2.04 4.2,-2.04 0.54,0 1.59,0.09 1.62,0.12 2.28,0.33 0.69,0.18 1.56,0.75 0.96,0.63 1.74,1.8 0.78,1.14 0.78,2.01 0,1.14 -0.93,1.68 -0.93,0.54 -3.15,0.99 -2.91,0.57 -6,0.75 l -2.61,0.12 0,0.78 q 0,1.11 0.48,1.95 0.51,0.84 1.62,1.77 1.59,1.32 3.24,1.32 1.32,0 2.79,-0.78 1.47,-0.81 2.49,-1.77 1.05,-0.96 2.01,-1.74 0.99,-0.81 1.44,-0.81 z"
       style="font-style:normal;font-variant:normal;font-weight:bold;font-stretch:normal;font-size:30px;font-family:Purisa;-inkscape-font-specification:'Purisa Bold';fill:#616161;fill-opacity:1"
       id="path3946"
       inkscape:connector-curvature="0" />
    <path
       d="m 572.34497,188.71664 q 0,1.44 0.12,2.52 0.12,1.08 0.12,1.41 0,1.8 -0.48,3.21 -0.48,1.41 -1.2,1.41 -1.26,0 -1.62,-0.9 -0.36,-0.9 -0.36,-3.99 0,-3.48 0.18,-9.75 0.21,-6.3 0.42,-6.99 0.03,-0.12 0.12,-0.27 0.09,-0.18 0.51,-0.45 0.42,-0.3 0.99,-0.3 0.6,0 1.23,0.39 0.54,0.39 2.49,2.97 1.98,2.55 1.98,2.97 0.06,0.15 0.69,1.05 0.63,0.9 1.95,3 1.35,2.07 2.79,4.68 2.94,5.34 3.93,5.73 0.45,-0.72 0.9,-7.14 0.54,-7.95 0.87,-9.45 0.36,-1.74 1.29,-2.01 0.27,-0.09 0.63,-0.09 1.35,0 1.35,2.07 0,0.69 -0.15,2.1 -0.15,1.38 -0.48,4.32 -0.3,2.91 -0.57,6.21 -0.12,1.65 -0.21,2.52 -0.09,0.84 -0.24,1.86 -0.15,0.99 -0.3,1.44 -0.15,0.45 -0.42,0.9 -0.27,0.42 -0.63,0.54 -0.33,0.15 -0.84,0.15 -2.25,0 -3.99,-1.56 -1.71,-1.59 -3.48,-4.92 -0.84,-1.56 -1.5,-2.67 -0.66,-1.14 -0.9,-1.47 -0.24,-0.33 -0.42,-0.69 -0.15,-0.39 -0.3,-0.96 -0.15,-0.54 -0.81,-1.59 -0.66,-1.05 -1.8,-2.61 -1.11,-1.56 -1.29,-1.83 -0.57,2.79 -0.57,8.19 z"
       style="font-style:normal;font-variant:normal;font-weight:bold;font-stretch:normal;font-size:30px;font-family:Purisa;-inkscape-font-specification:'Purisa Bold';fill:#616161;fill-opacity:1"
       id="path3948"
       inkscape:connector-curvature="0" />
    <path
       d="m 607.23075,186.22664 q 0,-0.24 -1.32,-1.23 -0.96,-0.72 -1.38,-0.9 -0.39,-0.18 -1.14,-0.18 -1.5,0 -2.22,0.24 -0.69,0.21 -1.47,0.96 -2.31,2.25 -2.34,2.91 0.12,0.03 0.51,0.03 2.91,0 8.07,-1.02 1.29,-0.24 1.29,-0.81 z m 3.87,4.74 q 0.54,0 0.54,0.63 0,0.69 -0.87,1.98 -0.87,1.26 -1.74,2.04 -3.36,2.88 -6.93,2.88 -2.94,0 -5.31,-2.31 -2.37,-2.31 -2.37,-6.36 0,-1.14 0.33,-2.19 0.63,-1.86 2.82,-3.87 2.19,-2.04 4.2,-2.04 0.54,0 1.59,0.09 1.62,0.12 2.28,0.33 0.69,0.18 1.56,0.75 0.96,0.63 1.74,1.8 0.78,1.14 0.78,2.01 0,1.14 -0.93,1.68 -0.93,0.54 -3.15,0.99 -2.91,0.57 -6,0.75 l -2.61,0.12 0,0.78 q 0,1.11 0.48,1.95 0.51,0.84 1.62,1.77 1.59,1.32 3.24,1.32 1.32,0 2.79,-0.78 1.47,-0.81 2.49,-1.77 1.05,-0.96 2.01,-1.74 0.99,-0.81 1.44,-0.81 z"
       style="font-style:normal;font-variant:normal;font-weight:bold;font-stretch:normal;font-size:30px;font-family:Purisa;-inkscape-font-specification:'Purisa Bold';fill:#616161;fill-opacity:1"
       id="path3950"
       inkscape:connector-curvature="0" />
    <path
       d="m 614.3984,183.01664 q 0.06,-0.57 0.36,-0.99 0.33,-0.42 0.75,-0.42 0.3,0 0.57,0.18 0.75,0.54 1.05,1.62 0.3,1.08 0.36,2.25 0.09,1.14 0.33,1.53 0.21,0.39 0.6,1.86 0.39,1.44 0.84,3.27 0.45,1.83 0.66,2.58 0.93,-2.31 1.41,-3.81 0.96,-2.88 2.28,-2.88 0.81,0 2.28,1.41 1.47,1.41 2.01,2.49 0.48,1.02 1.17,1.77 0.27,-0.75 1.38,-5.91 1.14,-5.19 1.77,-5.94 0.33,-0.36 0.75,-0.36 0.45,0 0.84,0.36 0.39,0.33 0.39,0.78 0,0.24 -0.18,0.75 -0.18,0.48 -0.54,1.83 -0.33,1.35 -0.69,3.3 -0.48,2.64 -1.32,5.61 -0.84,2.94 -1.23,3.3 -0.27,0.27 -0.84,0.27 -0.75,0 -1.44,-0.93 -0.69,-0.93 -2.79,-4.62 -0.36,-0.63 -1.17,-1.26 -0.15,0.21 -0.42,0.84 -0.24,0.6 -0.87,2.16 -0.63,1.53 -1.44,3.3 -0.69,1.65 -1.68,1.65 -0.54,0 -0.9,-0.42 -0.45,-0.54 -0.99,-2.49 -0.54,-1.98 -1.11,-4.53 -0.57,-2.55 -0.84,-3.42 -0.6,-2.1 -0.6,-2.67 0,-0.57 -0.39,-1.35 -0.36,-0.78 -0.36,-1.11 z"
       style="font-style:normal;font-variant:normal;font-weight:bold;font-stretch:normal;font-size:30px;font-family:Purisa;-inkscape-font-specification:'Purisa Bold';fill:#616161;fill-opacity:1"
       id="path3952"
       inkscape:connector-curvature="0" />
  </g>
  <path
     style="fill:none;fill-rule:evenodd;stroke:#565656;stroke-width:2.5;stroke-linecap:butt;stroke-linejoin:miter;stroke-miterlimit:4;stroke-dasharray:10, 20;stroke-dashoffset:0;stroke-opacity:1"
     d="m 374.9107,158.07442 c -2.88095,187.34493 -1.20183,106.67035 6.94827,221.30522 7.42226,104.39752 -8.42991,174.06965 -8.42991,174.06965"
     id="path3207"
     inkscape:connector-curvature="0"
     sodipodi:nodetypes="csc" />
  <g
     id="g3842"
     style="stroke:#5f5f5f;stroke-width:2.5;stroke-miterlimit:4;stroke-dasharray:none;stroke-opacity:1"
     transform="translate(43,16.56693)">
    <path
       inkscape:connector-curvature="0"
       id="path3230"
       d="M 139.01989,62.428265 C 73.247247,75.805751 79.93599,122.62695 79.93599,122.62695"
       style="fill:none;fill-rule:evenodd;stroke:#5f5f5f;stroke-width:2.5;stroke-linecap:butt;stroke-linejoin:miter;stroke-miterlimit:4;stroke-dasharray:none;stroke-opacity:1" />
    <path
       inkscape:connector-curvature="0"
       id="path3248"
       d="m 93.503051,110.7823 c -4.271723,4.27172 -10.851439,5.12934 -13.656183,11.56595 -3.72403,-4.58281 -11.547014,-4.71892 -15.885765,-9.05767"
       style="fill:none;fill-rule:evenodd;stroke:#5f5f5f;stroke-width:2.5;stroke-linecap:butt;stroke-linejoin:miter;stroke-miterlimit:4;stroke-dasharray:none;stroke-opacity:1" />
  </g>
  <g
     id="g3431"
     transform="translate(-107,16.56693)"
     style="stroke:#5f5f5f;stroke-width:2.5;stroke-miterlimit:4;stroke-dasharray:none;stroke-opacity:1">
    <path
       inkscape:connector-curvature="0"
       id="path3228"
       d="m 605.59392,66.887427 c 41.24725,3.344372 36.78809,61.313473 36.78809,61.313473"
       style="fill:none;fill-rule:evenodd;stroke:#5f5f5f;stroke-width:2.5;stroke-linecap:butt;stroke-linejoin:miter;stroke-miterlimit:4;stroke-dasharray:none;stroke-opacity:1" />
    <path
       inkscape:connector-curvature="0"
       id="path3250"
       d="m 642.44486,128.30578 c 2.84373,-3.24733 7.87767,-7.0271 12.21828,-8.47397"
       style="fill:none;fill-rule:evenodd;stroke:#5f5f5f;stroke-width:2.5;stroke-linecap:butt;stroke-linejoin:miter;stroke-miterlimit:4;stroke-dasharray:none;stroke-opacity:1" />
    <path
       inkscape:connector-curvature="0"
       id="path3252"
       d="m 642.44486,127.12336 c -3.94054,-2.31517 -7.90861,-6.2206 -11.62707,-8.07983"
       style="fill:none;fill-rule:evenodd;stroke:#5f5f5f;stroke-width:2.5;stroke-linecap:butt;stroke-linejoin:miter;stroke-miterlimit:4;stroke-dasharray:none;stroke-opacity:1" />
  </g>
</svg>
