<?xml version="1.0" encoding="UTF-8" standalone="no"?>
<!-- Created with Inkscape (http://www.inkscape.org/) -->

<svg
   xmlns:dc="http://purl.org/dc/elements/1.1/"
   xmlns:cc="http://creativecommons.org/ns#"
   xmlns:rdf="http://www.w3.org/1999/02/22-rdf-syntax-ns#"
   xmlns:svg="http://www.w3.org/2000/svg"
   xmlns="http://www.w3.org/2000/svg"
   xmlns:sodipodi="http://sodipodi.sourceforge.net/DTD/sodipodi-0.dtd"
   xmlns:inkscape="http://www.inkscape.org/namespaces/inkscape"
   width="270"
   height="270"
   id="svg2"
   version="1.1"
   inkscape:version="0.91 r13725"
   sodipodi:docname="logo.svg">
  <defs
     id="defs4" />
  <sodipodi:namedview
     id="base"
     pagecolor="#ffffff"
     bordercolor="#666666"
     borderopacity="1.0"
     inkscape:pageopacity="0.0"
     inkscape:pageshadow="2"
     inkscape:zoom="2.385933"
     inkscape:cx="154.4187"
     inkscape:cy="126.70411"
     inkscape:document-units="px"
     inkscape:current-layer="layer1"
     showgrid="false"
     inkscape:window-width="1280"
     inkscape:window-height="961"
     inkscape:window-x="1912"
     inkscape:window-y="-8"
     inkscape:window-maximized="1" />
  <metadata
     id="metadata7">
    <rdf:RDF>
      <cc:Work
         rdf:about="">
        <dc:format>image/svg+xml</dc:format>
        <dc:type
           rdf:resource="http://purl.org/dc/dcmitype/StillImage" />
        <dc:title></dc:title>
      </cc:Work>
    </rdf:RDF>
  </metadata>
  <g
     inkscape:label="Layer 1"
     inkscape:groupmode="layer"
     id="layer1"
     transform="translate(0,-782.36218)">
    <circle
       style="fill:#000000;fill-opacity:1;stroke:none"
       id="path3034"
       cx="134.84604"
       cy="917.51611"
       r="134.84604" />
    <g
       id="g3813"
       transform="translate(-102.42134,363.69266)">
      <circle
         transform="translate(0,-4)"
         id="path3024"
         style="opacity:1;fill:#00ffff;fill-opacity:1;stroke:none"
         cx="258.80862"
         cy="500.5864"
         r="45.474873" />
      <circle
         transform="translate(-3.5808767,-3.1617534)"
         id="path3026"
         style="opacity:1;fill:#ffff00;fill-opacity:1;stroke:none"
         cx="216.89629"
         cy="617.52179"
         r="21.165724" />
      <path
         id="path3028"
         d="m 132.53125,469.34375 c -12.8023,15.82187 -22.11428,34.57618 -26.71875,55.125 2.85029,0.86357 5.86774,1.34375 9,1.34375 17.12918,0 31,-13.90207 31,-31.03125 0,-10.53853 -5.24754,-19.83268 -13.28125,-25.4375 z"
         style="opacity:1;fill:#ff4200;fill-opacity:1;stroke:none"
         inkscape:connector-curvature="0" />
      <path
         id="path3030"
         d="m 336.03125,600.59375 c -16.08754,0 -29.125,13.06871 -29.125,29.15625 0,12.15014 7.45941,22.53709 18.03125,26.90625 14.31576,-12.23387 26.05702,-27.40796 34.25,-44.59375 -5.32299,-6.95923 -13.71799,-11.46875 -23.15625,-11.46875 z"
         style="opacity:1;fill:#00ff00;fill-opacity:1;stroke:none"
         inkscape:connector-curvature="0" />
      <path
         id="path3032"
         d="m 103.375,569.15625 c 3.33231,29.98177 16.49088,56.9969 36.1875,77.75 4.84823,-7.83796 7.65625,-17.07536 7.65625,-26.96875 0,-25.80516 -19.04728,-47.14764 -43.84375,-50.78125 z"
         style="opacity:1;fill:#a400ff;fill-opacity:1;stroke:none"
         inkscape:connector-curvature="0" />
    </g>
  </g>
</svg>
