<?xml version="1.0" encoding="UTF-8" standalone="no"?>
<!-- Created with Inkscape (http://www.inkscape.org/) -->

<svg
   xmlns:dc="http://purl.org/dc/elements/1.1/"
   xmlns:cc="http://creativecommons.org/ns#"
   xmlns:rdf="http://www.w3.org/1999/02/22-rdf-syntax-ns#"
   xmlns:svg="http://www.w3.org/2000/svg"
   xmlns="http://www.w3.org/2000/svg"
   xmlns:xlink="http://www.w3.org/1999/xlink"
   xmlns:sodipodi="http://sodipodi.sourceforge.net/DTD/sodipodi-0.dtd"
   xmlns:inkscape="http://www.inkscape.org/namespaces/inkscape"
   width="210mm"
   height="297mm"
   viewBox="0 0 210 297"
   version="1.1"
   id="svg8"
   inkscape:version="0.92.1 r15371"
   sodipodi:docname="web20_with_lines_grad.svg">
  <defs
     id="defs2">
    <linearGradient
       inkscape:collect="always"
       id="linearGradient6443">
      <stop
         style="stop-color:#ffffff;stop-opacity:1;"
         offset="0"
         id="stop6439" />
      <stop
         style="stop-color:#ffffff;stop-opacity:0;"
         offset="1"
         id="stop6441" />
    </linearGradient>
    <linearGradient
       inkscape:collect="always"
       id="linearGradient6083">
      <stop
         style="stop-color:#ffffff;stop-opacity:1"
         offset="0"
         id="stop6079" />
      <stop
         style="stop-color:#ffffff;stop-opacity:0"
         offset="1"
         id="stop6081" />
    </linearGradient>
    <linearGradient
       inkscape:collect="always"
       id="linearGradient4712">
      <stop
         style="stop-color:#3fff09;stop-opacity:1;"
         offset="0"
         id="stop4708" />
      <stop
         style="stop-color:#3fff09;stop-opacity:0;"
         offset="1"
         id="stop4710" />
    </linearGradient>
    <linearGradient
       inkscape:collect="always"
       id="linearGradient4692">
      <stop
         style="stop-color:#00c4ff;stop-opacity:1"
         offset="0"
         id="stop4688" />
      <stop
         style="stop-color:#0042ff;stop-opacity:1"
         offset="1"
         id="stop4690" />
    </linearGradient>
    <radialGradient
       inkscape:collect="always"
       xlink:href="#linearGradient4692"
       id="radialGradient4694"
       cx="57.598049"
       cy="169.29314"
       fx="57.598049"
       fy="169.29314"
       r="36.749561"
       gradientUnits="userSpaceOnUse"
       gradientTransform="matrix(1.4771703,0.42732899,-0.50569011,1.748045,57.055249,-146.89022)" />
    <linearGradient
       inkscape:collect="always"
       xlink:href="#linearGradient4712"
       id="linearGradient4714"
       x1="37.150463"
       y1="190.35947"
       x2="117.46496"
       y2="90.40065"
       gradientUnits="userSpaceOnUse" />
    <filter
       inkscape:collect="always"
       style="color-interpolation-filters:sRGB"
       id="filter5714"
       x="-0.15748088"
       width="1.3149618"
       y="-0.17460181"
       height="1.3492036">
      <feGaussianBlur
         inkscape:collect="always"
         stdDeviation="3.2200355"
         id="feGaussianBlur5716" />
    </filter>
    <filter
       inkscape:collect="always"
       style="color-interpolation-filters:sRGB"
       id="filter6236"
       x="-0.15989866"
       width="1.3197973"
       y="-0.41988268"
       height="1.8397654">
      <feGaussianBlur
         inkscape:collect="always"
         stdDeviation="2.6452253"
         id="feGaussianBlur6238" />
    </filter>
    <radialGradient
       inkscape:collect="always"
       xlink:href="#linearGradient6443"
       id="radialGradient6445"
       cx="64.501999"
       cy="141.50494"
       fx="64.501999"
       fy="141.50494"
       r="29.771106"
       gradientTransform="matrix(1.3961174,0.46435808,-0.48324438,1.4529001,47.353897,-92.49181)"
       gradientUnits="userSpaceOnUse" />
    <radialGradient
       inkscape:collect="always"
       xlink:href="#linearGradient6083"
       id="radialGradient6481"
       gradientUnits="userSpaceOnUse"
       gradientTransform="matrix(3.7795276,0,0,3.8793335,0,-15.472315)"
       cx="67.218208"
       cy="142.89174"
       fx="67.218208"
       fy="142.89174"
       r="36.88308" />
  </defs>
  <sodipodi:namedview
     id="base"
     pagecolor="#ffffff"
     bordercolor="#666666"
     borderopacity="1.0"
     inkscape:pageopacity="0.0"
     inkscape:pageshadow="2"
     inkscape:zoom="1.4"
     inkscape:cx="307.38726"
     inkscape:cy="413.62844"
     inkscape:document-units="mm"
     inkscape:current-layer="layer1"
     showgrid="false"
     inkscape:window-width="1838"
     inkscape:window-height="1051"
     inkscape:window-x="73"
     inkscape:window-y="-9"
     inkscape:window-maximized="1" />
  <metadata
     id="metadata5">
    <rdf:RDF>
      <cc:Work
         rdf:about="">
        <dc:format>image/svg+xml</dc:format>
        <dc:type
           rdf:resource="http://purl.org/dc/dcmitype/StillImage" />
        <dc:title></dc:title>
      </cc:Work>
    </rdf:RDF>
  </metadata>
  <g
     inkscape:label="Layer 1"
     inkscape:groupmode="layer"
     id="layer1">
    <circle
       style="opacity:1;fill:url(#radialGradient4694);fill-opacity:1;stroke:none;stroke-width:0.89999998;stroke-miterlimit:4;stroke-dasharray:none;stroke-opacity:1"
       id="path4677"
       cx="79.512688"
       cy="154.94624"
       r="36.749561"
       inkscape:export-filename="D:\w20.png"
       inkscape:export-xdpi="458.87"
       inkscape:export-ydpi="458.87" />
    <path
       style="opacity:0.90499998;fill:url(#linearGradient4714);fill-opacity:1;stroke:none;stroke-width:0.26458332px;stroke-linecap:butt;stroke-linejoin:miter;stroke-opacity:1;filter:url(#filter5714)"
       d="m 76.171816,115.92489 c -0.400905,-0.0445 -0.800368,-0.10489 -1.202714,-0.13363 -0.444318,-0.0317 -0.8909,0 -1.336347,0 -0.668174,0 -1.33635,0 -2.004523,0 -1.781797,0 -3.563594,0 -5.34539,0 -0.757264,0 -1.514528,0 -2.271792,0 -0.178179,0 -0.35636,0 -0.534538,0 -0.178181,0 -0.357735,-0.0221 -0.53454,0 -0.371346,0.0464 -0.590275,0.16865 -0.935443,0.26727 -0.176596,0.0504 -0.360301,0.0755 -0.534537,0.13363 -1.836592,0.6122 0.05369,-0.0589 -0.935445,0.53454 -0.12079,0.0725 -0.270116,0.0813 -0.400905,0.13364 -0.337899,0.13516 -0.302138,0.19174 -0.668173,0.4009 -0.172964,0.0988 -0.348012,0.19732 -0.534538,0.26727 -0.171971,0.0645 -0.375076,0.0425 -0.53454,0.13364 -0.164087,0.0938 -0.25572,0.27991 -0.400905,0.4009 -0.123383,0.10282 -0.270211,0.17392 -0.400904,0.26727 -0.181237,0.12946 -0.343554,0.28631 -0.534538,0.4009 -0.0382,0.0229 -0.09042,-0.0108 -0.133636,0 -0.136657,0.0342 -0.274913,0.0706 -0.400905,0.13364 -0.453699,0.22685 -0.574018,0.51267 -0.935442,0.80181 -0.125415,0.10033 -0.275489,0.16694 -0.400904,0.26727 -0.09838,0.0787 -0.170479,0.18661 -0.267269,0.26727 -0.171104,0.14258 -0.365435,0.25595 -0.534541,0.4009 -0.570126,0.48868 -0.273682,0.33187 -0.801806,0.93544 -0.165934,0.18964 -0.367131,0.34621 -0.534541,0.53454 -0.449209,0.50536 -0.898818,1.12947 -1.202713,1.73726 -0.063,0.12599 -0.08418,0.26901 -0.133633,0.4009 -0.08423,0.22461 -0.168006,0.44979 -0.267269,0.66817 -0.123653,0.27204 -0.306412,0.51833 -0.400905,0.80181 -0.04226,0.12678 0,0.26727 0,0.4009 0,0.17819 0,0.35636 0,0.53455 0,0.48999 0,0.97998 0,1.46998 0,0.4009 0,0.8018 0,1.20271 0,0.13363 -0.02622,0.26986 0,0.4009 0.05875,0.29377 0.128381,0.21572 0.267269,0.40091 0.09636,0.12849 0.170905,0.27242 0.267269,0.4009 0.0378,0.0504 0.105463,0.0773 0.133636,0.13364 0.01992,0.0398 -0.01408,0.0914 0,0.13363 0.0315,0.0945 0.109476,0.17064 0.133633,0.26727 0.02217,0.0887 0,0.68844 0,0.80181 0,0.17489 0.03014,0.51746 0,0.66817 -0.04454,0.13364 -0.08909,0.26727 -0.133633,0.40091 -0.04455,0.0445 -0.110239,0.0751 -0.133636,0.13363 -0.06821,0.17053 -0.07556,0.3603 -0.133633,0.53454 -0.0315,0.0945 -0.117261,0.16902 -0.133636,0.26727 -0.02929,0.17576 0.06256,0.3677 0,0.53454 -0.0782,0.20855 -0.290401,0.34116 -0.400905,0.53454 -0.451448,0.79004 -0.03759,0.15035 -0.133635,0.53454 -0.03416,0.13666 -0.106008,0.26277 -0.133633,0.4009 -0.01746,0.0874 0.03309,0.18456 0,0.26727 -0.05965,0.14912 -0.195443,0.25725 -0.267272,0.40091 -0.03077,0.0615 0,0.6633 0,0.80181 0,0.75726 0,1.51452 0,2.27179 0,0.26727 0,0.53454 0,0.8018 0,0.17819 -0.02929,0.35879 0,0.53454 0.03019,0.18117 0.08909,0.35636 0.133636,0.53454 0.04454,0.17818 0.04251,0.37508 0.133636,0.53454 0.09376,0.16409 0.282844,0.25333 0.400904,0.40091 0.216347,0.27043 0.07425,0.34647 0.267269,0.66817 0.06482,0.10804 0.178178,0.17818 0.267269,0.26727 0.133636,0.13364 0.282845,0.25333 0.400904,0.4009 0.636794,0.796 -0.644744,-0.40888 0.534541,0.53454 0.09838,0.0787 0.178178,0.17818 0.267269,0.26727 0.178178,0.17818 0.356359,0.35636 0.534537,0.53454 0.04455,0.0446 0.07729,0.10546 0.133636,0.13364 0.125992,0.063 0.280114,0.0612 0.400905,0.13363 0.216074,0.12965 0.337772,0.37713 0.534537,0.53454 0.250831,0.20066 0.550982,0.33388 0.80181,0.53454 0.09838,0.0787 0.178181,0.17818 0.267268,0.26727 0.133636,0.13363 0.282845,0.25333 0.400905,0.4009 0.06222,0.0778 0.08909,0.17818 0.133636,0.26727 0.08909,0.13364 0.164449,0.27752 0.267269,0.40091 0.120988,0.14518 0.316386,0.23186 0.400904,0.4009 0.05976,0.11953 -0.05976,0.28138 0,0.40091 0.05568,0.11136 0.556811,0.51969 0.668174,0.66817 0.05976,0.0797 0.08239,0.18186 0.133635,0.26727 0.08263,0.13772 0.184637,0.26318 0.267269,0.4009 0.350301,0.58384 -0.115183,-0.0967 0.267269,0.66818 0.02817,0.0563 0.105463,0.0773 0.133636,0.13363 0.063,0.12599 0.08132,0.27012 0.133636,0.4009 0.03699,0.0925 0.09664,0.17479 0.133633,0.26728 0.05232,0.13078 0.09947,0.26424 0.133635,0.4009 0.0108,0.0432 -0.01992,0.0938 0,0.13363 0.07183,0.14366 0.207622,0.25179 0.267269,0.40091 0.03309,0.0827 -0.02162,0.18084 0,0.26727 0.02416,0.0966 0.102137,0.17277 0.133636,0.26727 0.01408,0.0423 -0.01408,0.0914 0,0.13363 0.0315,0.0945 0.102137,0.17278 0.133633,0.26727 0.02804,0.0841 0,0.54772 0,0.66818 0,0.0714 0.01913,0.62992 0,0.66817 -0.05635,0.11269 -0.210923,0.15458 -0.267269,0.26727 -0.01992,0.0398 0,0.0891 0,0.13363 0,0.0891 0,0.17818 0,0.26727 0,0.31182 0,0.62363 0,0.93545 0,0.53454 0,1.06907 0,1.60361 0,0.13364 0,0.26727 0,0.40091 0,0.0891 -0.02817,0.18275 0,0.26727 0.03984,0.11952 0.197382,0.16244 0.267269,0.26727 0.05525,0.0829 0.07387,0.18758 0.133636,0.26727 0.07559,0.10079 0.197382,0.16243 0.267269,0.26727 0.02471,0.0371 -0.0315,0.10213 0,0.13363 0.0315,0.0315 0.08909,0 0.133636,0 0.04455,0.0446 0.09869,0.0812 0.133633,0.13364 0.05525,0.0829 0.05076,0.21201 0.133635,0.26726 0.07413,0.0494 0.182751,-0.0282 0.267269,0 0.417119,0.13904 -0.04454,0.0891 0.133636,0.26728 0.0315,0.0315 0.08909,0 0.133636,0 0.04454,0 0.08909,0 0.133633,0 0.489995,0 0.979987,0 1.469982,0 0.174885,0 0.517459,0.0301 0.668174,0 0.327718,-0.0656 0.645684,-0.25603 0.935445,-0.40091 0.08909,-0.0445 0.196837,-0.0632 0.267269,-0.13363 0.0315,-0.0315 -0.0315,-0.10214 0,-0.13364 0.135218,-0.13522 0.537705,-0.18899 0.668173,-0.26727 0.108037,-0.0648 0.162438,-0.19738 0.267269,-0.26727 0.03707,-0.0247 0.08909,0 0.133636,0 0.133633,-0.0891 0.287337,-0.1537 0.400904,-0.26727 0.07043,-0.0704 0.0632,-0.19684 0.133633,-0.26727 0.11357,-0.11356 0.257252,-0.19544 0.400905,-0.26727 0.03984,-0.0199 0.102137,0.0315 0.133636,0 0.0315,-0.0315 -0.01992,-0.0938 0,-0.13363 0.02817,-0.0564 0.105463,-0.0773 0.133636,-0.13364 0.01992,-0.0398 -0.0315,-0.10213 0,-0.13363 0.07043,-0.0704 0.196836,-0.0632 0.267268,-0.13363 0.239536,-0.23954 0.03601,-0.3791 0.267269,-0.66818 0.11806,-0.14757 0.296072,-0.24366 0.400905,-0.4009 0.07814,-0.11721 0.08132,-0.27012 0.133636,-0.40091 0.03699,-0.0925 0.102134,-0.17277 0.133633,-0.26727 0.01408,-0.0423 -0.02471,-0.0966 0,-0.13363 0.06989,-0.10483 0.210926,-0.15458 0.267269,-0.26727 0.07968,-0.15937 -0.04322,-0.36168 0,-0.53454 0.02416,-0.0966 0.08909,-0.17818 0.133635,-0.26727 0.04455,-0.0891 0.07387,-0.18759 0.133636,-0.26727 0.07559,-0.10079 0.197382,-0.16244 0.267269,-0.26727 0.02471,-0.0371 -0.01408,-0.0914 0,-0.13363 0.063,-0.18899 0.204274,-0.34555 0.267269,-0.53454 0.02817,-0.0845 -0.04942,-0.19315 0,-0.26727 0.06989,-0.10484 0.202448,-0.15923 0.267269,-0.26727 0.07247,-0.12079 0.0555,-0.2837 0.133635,-0.40091 0.02471,-0.0371 0.113713,0.0399 0.133636,0 0.03984,-0.0797 -0.02817,-0.18275 0,-0.26726 0.03984,-0.11953 0.210923,-0.15458 0.267269,-0.26728 0.063,-0.12599 0.07064,-0.27491 0.133636,-0.4009 0.02817,-0.0564 0.09869,-0.0812 0.133633,-0.13363 0.110503,-0.16576 0.156768,-0.36879 0.267269,-0.53454 0.113419,-0.17013 0.411043,-0.36988 0.53454,-0.53454 0.05976,-0.0797 0.07838,-0.1844 0.133636,-0.26727 0.03494,-0.0524 0.09869,-0.0812 0.133633,-0.13364 0.05525,-0.0829 0.109477,-0.17063 0.133636,-0.26727 0.02162,-0.0864 -0.04942,-0.19314 0,-0.26727 0.05525,-0.0829 0.196836,-0.0632 0.267268,-0.13363 0.337548,-0.33755 0.05135,-0.15405 0.133636,-0.4009 0.0315,-0.0945 0.102137,-0.17278 0.133633,-0.26727 0.01408,-0.0423 -0.02471,-0.0966 0,-0.13364 -0.369421,-0.36491 0.377518,-0.24388 0.400905,-0.26727 0.0315,-0.0315 -0.0315,-0.10214 0,-0.13363 0.104465,-0.10447 0.232479,0.11624 0.267269,0.13363 0.03984,0.0199 0.0938,-0.0199 0.133636,0 0.05634,0.0282 0.07387,0.11371 0.133635,0.13364 0.120272,0.0401 0.280633,-0.0401 0.400905,0 0.436224,0.1454 0.112017,0.17457 0.668173,0.26727 0.131816,0.022 0.276826,-0.0496 0.400905,0 0.11698,0.0468 0.154577,0.21092 0.267269,0.26727 0.07968,0.0398 0.178178,0 0.267269,0 0.300326,0 0.491323,0.0216 0.801809,-0.13364 0.03984,-0.0199 -0.01992,-0.0938 0,-0.13363 0.02817,-0.0564 0.08122,-0.0987 0.133636,-0.13364 0.08288,-0.0553 0.222723,-0.0445 0.267268,-0.13363 0.05976,-0.11953 -0.02622,-0.26987 0,-0.40091 0.01953,-0.0977 0.109477,-0.17064 0.133634,-0.26727 0.03241,-0.12964 0,-0.26727 0,-0.4009 0,-0.94784 -0.09449,-0.0783 0.133635,-0.53454 0.01992,-0.0398 0,-0.0891 0,-0.13364 0,-0.0891 0,-0.17817 0,-0.26727 0,-0.35635 0,-0.71271 0,-1.06907 0,-0.13364 -0.03241,-0.27126 0,-0.40091 -0.08054,-0.24187 0.21648,-0.24853 0.267269,-0.4009 0.04733,-0.142 -0.04733,-0.39254 0,-0.53454 0.0315,-0.0945 0.109477,-0.17064 0.133636,-0.26727 0.195257,-0.78103 -0.424138,0.49966 0.133636,-0.80181 0.06326,-0.14762 0.216479,-0.24854 0.267268,-0.4009 0.04226,-0.12678 -0.02622,-0.26987 0,-0.40091 0.01953,-0.0977 0.109477,-0.17064 0.133634,-0.26727 0.02162,-0.0864 0,-0.17818 0,-0.26727 0,-0.13363 0,-0.26727 0,-0.4009 0,-0.0445 -0.0108,-0.0904 0,-0.13364 0.03417,-0.13665 0.09947,-0.26424 0.133635,-0.4009 0.04339,-0.17355 -0.04253,-0.49804 0,-0.66817 0.02416,-0.0966 0.09664,-0.17479 0.133636,-0.26727 0.05231,-0.13079 0.08909,-0.26727 0.133633,-0.40091 0.04454,-0.13363 0.106011,-0.26277 0.133636,-0.4009 0.04231,-0.21156 -0.05001,-0.60176 0,-0.80181 0.09689,-0.38757 0.104259,-0.15639 0.267269,-0.40091 0.05525,-0.0829 0.07838,-0.18439 0.133636,-0.26726 0.03494,-0.0524 0.08909,-0.0891 0.133633,-0.13364 0.04454,-0.0446 0.07729,-0.10546 0.133635,-0.13363 0.03561,-0.0178 0.741355,0 0.80181,0 0.222723,0 0.445449,0 0.668173,0 0.133636,0 0.274127,-0.0423 0.400905,0 0.399624,0.1332 0.308398,0.21999 0.534537,0.4009 0.173919,0.13914 0.349221,0.27736 0.534541,0.4009 0.946573,0.63105 -0.885934,-0.81565 0.801809,0.53454 0.02595,0.0208 0.258913,0.26449 0.267269,0.26727 0.08452,0.0282 0.18275,-0.0282 0.267269,0 0.153503,0.0512 0.185409,0.31905 0.267268,0.40091 0.0315,0.0315 0.08909,0 0.133636,0 0.04454,0.0445 0.09869,0.0812 0.133636,0.13363 0.05525,0.0829 0.0632,0.19684 0.133633,0.26727 0.0315,0.0315 0.08909,0 0.133636,0 0.08909,0 0.178178,0 0.267269,0 0.53454,0 1.069078,0 1.603618,0 0.178178,0 0.356359,0 0.534538,0 0.08909,0 0.182753,0.0282 0.267269,0 0.139104,-0.0464 0.313533,-0.13621 0.400904,-0.26727 0.129831,-0.19474 0.08343,-0.27834 0.267272,-0.4009 0.07017,-0.0468 0.357132,-0.13596 0.400902,-0.26727 0.02817,-0.0845 -0.03984,-0.18759 0,-0.26727 0.133635,-0.17818 0.267271,-0.35636 0.400904,-0.53454 0.04454,0 0.102137,0.0315 0.133636,0 0.0048,-0.005 0.253383,-0.5114 0.267269,-0.53454 0.08263,-0.13772 0.195442,-0.25725 0.267271,-0.4009 0.07564,-0.15129 -0.113273,-0.20533 0.133633,-0.53454 0.0756,-0.1008 0.188564,-0.16889 0.267269,-0.26727 0.100333,-0.12542 0.170905,-0.27242 0.267272,-0.40091 0.0378,-0.0504 0.10546,-0.0773 0.133633,-0.13363 0.01992,-0.0398 -0.01992,-0.0938 0,-0.13364 0.327028,-0.65405 0.16165,-0.17098 0.53454,-0.66817 0.05976,-0.0797 0.0632,-0.19684 0.133633,-0.26727 0.0315,-0.0315 0.102137,0.0315 0.133636,0 0.0086,-0.009 0.250674,-0.50965 0.267269,-0.53454 0.03494,-0.0524 0.08909,-0.0891 0.133636,-0.13363 0.04454,-0.0891 0.07838,-0.1844 0.133635,-0.26727 0.06989,-0.10484 0.188561,-0.16889 0.267269,-0.26727 0.139134,-0.17392 0.261768,-0.36062 0.400905,-0.53454 0.03935,-0.0492 0.07387,-0.11371 0.133633,-0.13364 0.08452,-0.0282 0.178181,0 0.267271,0 0.178179,0 0.363215,0.0489 0.534538,0 0.361776,0.14847 0.323244,-0.33047 0.534541,-0.4009 0.08451,-0.0282 0.178178,0 0.267268,0 0.271685,0 0.398495,0.0282 0.668174,-0.13363 0.543867,-0.32633 -0.0084,-0.21993 0.534538,-0.40091 0.174238,-0.0581 0.370265,-0.0515 0.53454,-0.13363 0.03168,-0.0159 0.804492,-0.62453 0.935442,-0.66818 0.126778,-0.0423 0.27413,0.0423 0.400905,0 0.152368,-0.0508 0.263183,-0.18464 0.400904,-0.26727 0.08541,-0.0512 0.174789,-0.0966 0.267269,-0.13363 0.130789,-0.0523 0.267272,-0.0891 0.400905,-0.13364 0.133636,-0.0445 0.262776,-0.10601 0.400904,-0.13363 0.08736,-0.0175 0.179912,0.0175 0.267269,0 0.138129,-0.0276 0.265462,-0.0949 0.400905,-0.13364 0.176599,-0.0504 0.354444,-0.0976 0.53454,-0.13363 0.08736,-0.0175 0.182751,0.0282 0.267269,0 0.09449,-0.0315 0.174789,-0.0966 0.267269,-0.13364 0.404767,-0.1619 0.520589,-0.0918 0.668173,-0.53453 0.01408,-0.0423 0,-0.0891 0,-0.13364 0,-0.13364 0,-0.26727 0,-0.4009 0,-0.22273 0,-0.44545 0,-0.66818 0,-0.8909 0,-1.78179 0,-2.67269 0,-0.19186 -0.03969,-0.5094 0,-0.66818 0.03056,-0.12223 0.227428,-0.14774 0.267272,-0.26727 0.02791,-0.0837 0,-0.83365 0,-0.93544 0,-0.35636 0,-0.71272 0,-1.06908 0,-0.17818 0.03494,-0.35982 0,-0.53454 -0.04454,-0.13363 -0.08909,-0.26727 -0.133636,-0.4009 -0.04454,0 -0.102137,0.0315 -0.133636,0 -0.07043,-0.0704 -0.08239,-0.18186 -0.133633,-0.26727 -0.08263,-0.13772 -0.153701,-0.28734 -0.267269,-0.40091 -0.113569,-0.11356 -0.267271,-0.17817 -0.400904,-0.26726 -0.133636,-0.0891 -0.257252,-0.19545 -0.400905,-0.26727 -0.251984,-0.12599 -0.538019,-0.16835 -0.801809,-0.26727 -0.224607,-0.0842 -0.447688,-0.17278 -0.668173,-0.26727 -0.09155,-0.0392 -0.171498,-0.10627 -0.267269,-0.13364 -0.478867,-0.13682 -0.99296,-0.12416 -1.469983,-0.26727 -0.19081,-0.0572 -0.351435,-0.18879 -0.53454,-0.26727 -0.381675,-0.16357 -0.355328,-0.0717 -0.668174,-0.26727 -0.272391,-0.17024 -0.508275,-0.40408 -0.801809,-0.53454 -0.291565,-0.12958 -0.318564,0.0432 -0.534538,0 -0.180096,-0.036 -0.352295,-0.11085 -0.53454,-0.13363 -0.353608,-0.0442 -0.719638,0.0699 -1.069078,0 -0.06177,-0.0124 -0.07252,-0.11836 -0.133633,-0.13363 -0.259292,-0.0648 -0.544822,0.0734 -0.801809,0 -0.191545,-0.0547 -0.349576,-0.19329 -0.534541,-0.26727 -0.04136,-0.0165 -0.08909,0 -0.133633,0 -0.133636,0 -0.267269,0 -0.400904,0 -0.35636,0 -0.712719,0 -1.069078,0 -0.04455,0 -0.09042,0.0108 -0.133636,0 -0.136657,-0.0342 -0.262776,-0.10601 -0.400905,-0.13364 -0.08736,-0.0175 -0.180837,0.0216 -0.267269,0 -0.09663,-0.0242 -0.172775,-0.10214 -0.267268,-0.13364 -0.04226,-0.0141 -0.08909,0 -0.133636,0 -0.178179,0 -0.35636,0 -0.534538,0 -0.623631,0 -1.247259,0 -1.870887,0 -0.35636,0 -0.712719,0 -1.069078,0 -0.08909,0 -0.178181,0 -0.267269,0 -0.04454,0 -0.09138,0.0141 -0.133636,0 -0.09449,-0.0315 -0.172775,-0.10213 -0.267269,-0.13363 -0.04226,-0.0141 -0.08909,0 -0.133635,0 -0.111903,0 -0.56655,0.0254 -0.668174,0 -0.193262,-0.0483 -0.345551,-0.20427 -0.534538,-0.26727 -0.04226,-0.0141 -0.08909,0 -0.133635,0 -0.109408,0 -0.581592,0.0289 -0.668174,0 -0.0945,-0.0315 -0.172775,-0.10213 -0.267271,-0.13363 -0.04226,-0.0141 -0.09379,0.0199 -0.133633,0 -0.05635,-0.0282 -0.07387,-0.11372 -0.133636,-0.13364 -0.165968,-0.0553 -0.492469,0.0439 -0.668174,0 -0.09663,-0.0242 -0.172775,-0.10214 -0.267268,-0.13363 -0.08452,-0.0282 -0.187585,0.0398 -0.267269,0 -0.05635,-0.0282 -0.07729,-0.10546 -0.133636,-0.13364 -0.03984,-0.0199 -0.09379,0.0199 -0.133636,0 -0.05634,-0.0282 -0.07729,-0.10546 -0.133633,-0.13363 -0.03984,-0.0199 -0.09379,0.0199 -0.133636,0 -0.05634,-0.0282 -0.07729,-0.10546 -0.133635,-0.13364 -0.03984,-0.0199 -0.09379,0.0199 -0.133633,0 -0.05635,-0.0282 -0.08909,-0.0891 -0.133636,-0.13363 -0.04454,-0.0446 -0.10546,-0.0773 -0.133633,-0.13364 -0.01992,-0.0398 0.0315,-0.10213 0,-0.13363 -0.0315,-0.0315 -0.08909,0 -0.133636,0 -0.447953,0 -0.38748,-0.003 -0.935442,0.13363 z"
       id="path4706"
       inkscape:connector-curvature="0"
       inkscape:export-filename="D:\w20.png"
       inkscape:export-xdpi="458.87"
       inkscape:export-ydpi="458.87" />
    <text
       xml:space="preserve"
       style="font-style:normal;font-variant:normal;font-weight:normal;font-stretch:normal;font-size:45.24766159px;line-height:1.25;font-family:Arial;-inkscape-font-specification:Arial;letter-spacing:0px;word-spacing:0px;opacity:1;fill:url(#radialGradient6445);fill-opacity:1;stroke:none;stroke-width:0.53024602"
       x="61.523621"
       y="170.3949"
       id="text4681"><tspan
         sodipodi:role="line"
         id="tspan4679"
         x="61.523621"
         y="170.3949"
         style="font-style:normal;font-variant:normal;font-weight:bold;font-stretch:normal;font-family:Arial;-inkscape-font-specification:'Arial Bold';fill:url(#radialGradient6445);fill-opacity:1;stroke-width:0.53024602">2.0</tspan></text>
    <path
       style="opacity:1;fill:#ffffff;fill-opacity:1;stroke:none;stroke-width:3.40157461;stroke-miterlimit:4;stroke-dasharray:none;stroke-opacity:1"
       d="M 68.689453,366.92578 V 810.38281 H 642.45703 V 366.92578 Z M 300.51953,446.72852 A 138.89598,138.89598 0 0 1 439.41602,585.62305 138.89598,138.89598 0 0 1 300.51953,724.51953 138.89598,138.89598 0 0 1 161.625,585.62305 138.89598,138.89598 0 0 1 300.51953,446.72852 Z"
       id="rect4683"
       inkscape:connector-curvature="0"
       transform="scale(0.26458333)" />
    <path
       style="opacity:0.68900003;fill:#ffffff;fill-opacity:1;stroke:none;stroke-width:0.26458332px;stroke-linecap:butt;stroke-linejoin:miter;stroke-opacity:1;filter:url(#filter6236)"
       d="m 97.687012,190.35946 c -0.133635,-0.26727 -0.242533,-0.54842 -0.400904,-0.80181 -0.251339,-0.40214 -0.834306,-0.57156 -1.202714,-0.80181 -0.18887,-0.11805 -0.34567,-0.28286 -0.534538,-0.4009 -0.168931,-0.10559 -0.356359,-0.17819 -0.53454,-0.26728 -0.435248,-0.21762 -1.287785,-0.66351 -1.737252,-0.8018 -0.258974,-0.0797 -0.544758,-0.048 -0.801809,-0.13364 -0.818991,-0.273 -1.4528,-0.92971 -2.271792,-1.20271 -0.25705,-0.0857 -0.559456,-0.0125 -0.801806,-0.13363 -0.225383,-0.1127 -0.314267,-0.41217 -0.534541,-0.53455 -0.198551,-0.1103 -0.44782,-0.0785 -0.668173,-0.13363 -0.136657,-0.0342 -0.272182,-0.0764 -0.400905,-0.13363 -0.27306,-0.12137 -0.534537,-0.26727 -0.801809,-0.40091 -0.08909,-0.0445 -0.168664,-0.11955 -0.267269,-0.13363 -0.220485,-0.0315 -0.446812,0.0246 -0.668173,0 -0.15258,-0.017 -0.75806,-0.19125 -0.935442,-0.26727 -0.183105,-0.0785 -0.349578,-0.19329 -0.534541,-0.26727 -0.04136,-0.0165 -0.08909,0 -0.133635,0 -0.178179,0 -0.35636,0 -0.534538,0 -0.08909,0 -0.179909,0.0175 -0.267269,0 -0.138128,-0.0276 -0.261459,-0.11372 -0.400905,-0.13364 -0.176389,-0.0252 -0.356359,0 -0.53454,0 -0.178178,0 -0.356359,0 -0.534538,0 -0.133635,0 -0.271261,0.0324 -0.400904,0 -1.41283,-0.56513 0.0019,-0.0952 -1.202714,-0.26727 -0.139446,-0.0199 -0.265459,-0.0949 -0.400905,-0.13363 -0.443505,-0.12672 -0.534929,-0.10707 -0.935442,-0.26727 -0.700244,-0.2801 0.293812,-0.1016 -1.202714,-0.40091 -0.131037,-0.0262 -0.267269,0 -0.400904,0 -0.222724,0 -0.447686,0.0315 -0.668174,0 -0.0986,-0.0141 -0.169598,-0.11409 -0.267269,-0.13363 -0.13104,-0.0262 -0.267269,0 -0.400904,0 -0.133633,-0.0445 -0.264248,-0.0995 -0.400905,-0.13363 -0.04321,-0.0108 -0.09042,0.0108 -0.133633,0 -0.136657,-0.0342 -0.264247,-0.0995 -0.400905,-0.13364 -0.04321,-0.0108 -0.102137,0.0315 -0.133635,0 -0.07043,-0.0704 -0.0632,-0.19684 -0.133633,-0.26727 -0.01638,-0.0164 -0.352399,0.0121 -0.400905,0 -0.136657,-0.0342 -0.264247,-0.0995 -0.400905,-0.13364 -0.04321,-0.0108 -0.08909,0 -0.133635,0 -0.08909,0 -0.178179,0 -0.267269,0 -0.267269,0 -0.534541,0 -0.801809,0 -0.14735,0 -0.705774,-0.024 -0.80181,0 -0.06111,0.0153 -0.08122,0.0987 -0.133633,0.13364 -0.08288,0.0553 -0.184393,0.0784 -0.267271,0.13364 -0.05241,0.0349 -0.07387,0.11371 -0.133633,0.13363 -0.08452,0.0282 -0.184552,-0.0331 -0.267269,0 -0.149122,0.0596 -0.257252,0.19544 -0.400905,0.26727 -0.03984,0.0199 -0.09138,-0.0141 -0.133636,0 -0.09449,0.0315 -0.178178,0.0891 -0.267268,0.13363 -0.08909,0.0446 -0.181859,0.0824 -0.267269,0.13364 -0.137721,0.0826 -0.272418,0.1709 -0.400905,0.26727 -0.0504,0.0378 -0.07729,0.10546 -0.133636,0.13363 -0.173553,0.29519 -0.457284,0.0493 -0.668173,0.13364 -0.149122,0.0597 -0.257252,0.19544 -0.400905,0.26727 -0.126113,0.33138 -0.360301,0.0755 -0.534537,0.13363 -0.0945,0.0315 -0.174789,0.0966 -0.267272,0.13364 -0.130789,0.0523 -0.274912,0.0706 -0.400904,0.13363 -0.30497,0.15249 -0.368144,0.3009 -0.668174,0.40091 -0.04226,0.0141 -0.08909,0 -0.133633,0 -0.133636,0.0445 -0.274913,0.0706 -0.400905,0.13363 -0.143652,0.0718 -0.272417,0.17091 -0.400904,0.26727 -0.0504,0.0378 -0.07729,0.10546 -0.133636,0.13364 -0.214556,0.10727 -0.453617,0.15999 -0.668173,0.26726 -0.05635,0.0282 -0.08122,0.0987 -0.133636,0.13364 -0.08288,0.0553 -0.181856,0.0824 -0.267269,0.13363 -0.137721,0.0826 -0.261456,0.18759 -0.400905,0.26728 -0.178178,0.0891 -0.356359,0.17817 -0.534537,0.26726 -0.04455,0.0446 -0.07962,0.10123 -0.133636,0.13364 -0.17082,0.10249 -0.368784,0.15677 -0.534538,0.26727 -0.104833,0.0699 -0.162438,0.19738 -0.267271,0.26727 -0.178179,0.0891 -0.35636,0.17818 -0.534538,0.26727 -0.133636,0 -0.281379,-0.0598 -0.400905,0 -0.08909,0.0445 -0.07838,0.18439 -0.133635,0.26727 -0.03494,0.0524 -0.08909,0.0891 -0.133633,0.13363 -0.04455,0.0446 -0.07729,0.10546 -0.133636,0.13364 -0.03984,0.0199 -0.102137,-0.0315 -0.133633,0 -0.492945,0.49294 0.320019,0.0539 -0.400905,0.53453 -0.03706,0.0247 -0.119549,-0.0422 -0.133636,0 0,0.94784 0.09449,0.0783 -0.133635,0.53454 -0.01992,0.0399 0.02471,0.0966 0,0.13364 -0.06989,0.10483 -0.191672,0.16647 -0.267269,0.26727 -0.05976,0.0797 -0.07838,0.18439 -0.133633,0.26727 -0.03495,0.0524 -0.113716,0.0739 -0.133636,0.13363 -0.02817,0.0845 0.02162,0.18084 0,0.26727 -0.02416,0.0966 -0.102137,0.17278 -0.133636,0.26727 -0.01408,0.0423 0.01408,0.0914 0,0.13364 -0.322656,0.96797 0.03853,-0.21069 -0.267269,0.4009 -0.01992,0.0398 0.01992,0.0938 0,0.13364 -0.02817,0.0563 -0.105463,0.0773 -0.133635,0.13363 -0.01992,0.0398 0,0.0891 0,0.13363 0,0.0891 0.02817,0.18276 0,0.26728 -0.03016,0.0905 -0.349862,0.29882 -0.400902,0.4009 -0.01992,0.0398 0,0.0891 0,0.13363 0,0.19891 0.01992,0.17057 -0.133636,0.40091 -0.102796,0.15419 -0.298109,0.24671 -0.400905,0.4009 -0.189251,0.28388 0.299138,-0.0212 -0.133635,0.26727 -0.08288,0.0553 -0.212019,0.0508 -0.267269,0.13364 -0.04942,0.0741 0.02817,0.18275 0,0.26727 -0.01992,0.0598 -0.105463,0.0773 -0.133633,0.13363 -0.01992,0.0398 0.01992,0.0938 0,0.13363 -0.02817,0.0563 -0.09869,0.0812 -0.133636,0.13364 -0.153556,0.23033 -0.133636,0.202 -0.133636,0.4009 0,0.40091 0,0.80181 0,1.20272 0,0.0445 -0.0315,0.10213 0,0.13363 0.07043,0.0704 0.181859,0.0824 0.267272,0.13364 0.137721,0.0826 0.272415,0.1709 0.400902,0.26727 0.0504,0.0378 0.08324,0.0958 0.133635,0.13363 0.128487,0.0964 0.267269,0.17818 0.400905,0.26727 0.133636,0.0891 0.25328,0.204 0.400905,0.26727 0.168812,0.0724 0.360299,0.0755 0.534537,0.13364 0.0945,0.0315 0.169021,0.11725 0.267272,0.13363 0.175755,0.0293 0.357447,-0.0197 0.534537,0 0.891395,0.099 0.412952,0.13564 1.202714,0.26727 0.08788,0.0146 0.17939,-0.0147 0.267269,0 0.181166,0.0302 0.352721,0.10766 0.534538,0.13363 0.132291,0.0189 0.267271,0 0.400904,0 0.44545,0 0.8909,0 1.33635,0 0.890897,0 1.781797,0 2.672694,0 0.668173,0 1.336347,0 2.004523,0 0.356359,0 0.712718,0 1.069078,0 0.08909,0 0.179075,0.0126 0.267269,0 0.22485,-0.0321 0.44279,-0.10546 0.668173,-0.13363 0.353608,-0.0442 0.713949,0.0296 1.069078,0 2.572467,-0.21437 -0.968851,-0.0529 1.603619,-0.26727 0.310737,-0.0259 0.631613,0.0701 0.935442,0 0.291163,-0.0672 0.513522,-0.32228 0.801809,-0.4009 0.214876,-0.0586 0.446363,0.0202 0.668173,0 0.269844,-0.0245 0.531966,-0.10911 0.80181,-0.13364 0.221808,-0.0202 0.446553,0.0222 0.668173,0 0.226007,-0.0226 0.442164,-0.11103 0.668174,-0.13363 0.221617,-0.0222 0.445449,0 0.668173,0 0.222724,0 0.44545,0 0.668173,0 1.336347,0 2.672697,0 4.009044,0 0.311814,0 0.623628,0 0.935442,0 0.08909,0 0.18084,0.0216 0.267272,0 0.09663,-0.0242 0.169598,-0.1141 0.267268,-0.13364 0.131041,-0.0262 0.276829,0.0496 0.400905,0 0.11698,-0.0468 0.150289,-0.22048 0.267269,-0.26727 0.124076,-0.0496 0.267269,0 0.400905,0 0.222723,0 0.446809,0.0246 0.668173,0 0.182541,-0.0203 0.352721,-0.10766 0.53454,-0.13363 0.132292,-0.0189 0.267269,0 0.400902,0 0.311817,0 0.623631,0 0.935445,0 0.178179,0 0.35745,0.0197 0.534538,0 2.225474,-0.24728 -0.510627,0.0504 1.069078,-0.40091 0.242522,-0.0693 0.675598,0.052 0.935445,0 0.09767,-0.0195 0.172775,-0.10213 0.267269,-0.13363 0.508598,-0.16953 0.485007,-0.0742 0.935442,-0.26727 0.183105,-0.0785 0.351436,-0.1888 0.53454,-0.26727 0.129474,-0.0555 0.270116,-0.0813 0.400905,-0.13364 0.09248,-0.037 0.170638,-0.10947 0.267269,-0.13363 0.562377,-0.14059 -0.02685,0.35422 0.801809,-0.26727 0.03563,-0.0267 -0.0315,-0.10214 0,-0.13363 0.0315,-0.0315 0.09379,0.0199 0.133633,0 0.112691,-0.0564 0.166476,-0.19168 0.267272,-0.26728 0.133633,-0.0891 0.267269,-0.17817 0.400904,-0.26726 0.04454,0 0.09379,0.0199 0.133633,0 0.160362,-0.0802 0.240544,-0.32073 0.400905,-0.40091 0.03984,-0.0199 0.102137,0.0315 0.133636,0 0.276495,-0.27649 -0.422521,0.0108 0.133633,-0.26727 0.329136,-0.16457 -0.120637,0.38791 0.400904,-0.13363 0.249352,-0.24935 0.06211,-0.39149 0.133636,-0.53454 0.02817,-0.0564 0.10546,-0.0773 0.133633,-0.13364 0.05976,-0.11952 -0.05976,-0.28137 0,-0.4009 0.01992,-0.0398 0.0938,0.0199 0.133636,0 0.05635,-0.0282 0.105463,-0.0773 0.133636,-0.13363 0.01992,-0.0399 0,-0.0891 0,-0.13364 0,-0.0445 0,-0.0891 0,-0.13364 0,-0.39987 -0.08042,-0.21365 0.400904,-0.53453 z"
       id="path5930"
       inkscape:connector-curvature="0"
       inkscape:export-filename="D:\w20.png"
       inkscape:export-xdpi="458.87"
       inkscape:export-ydpi="458.87" />
    <path
       style="color:#000000;font-style:normal;font-variant:normal;font-weight:normal;font-stretch:normal;font-size:medium;line-height:normal;font-family:sans-serif;font-variant-ligatures:normal;font-variant-position:normal;font-variant-caps:normal;font-variant-numeric:normal;font-variant-alternates:normal;font-feature-settings:normal;text-indent:0;text-align:start;text-decoration:none;text-decoration-line:none;text-decoration-style:solid;text-decoration-color:#000000;letter-spacing:normal;word-spacing:normal;text-transform:none;writing-mode:lr-tb;direction:ltr;text-orientation:mixed;dominant-baseline:auto;baseline-shift:baseline;text-anchor:start;white-space:normal;shape-padding:0;clip-rule:nonzero;display:inline;overflow:visible;visibility:visible;opacity:1;isolation:auto;mix-blend-mode:normal;color-interpolation:sRGB;color-interpolation-filters:linearRGB;solid-color:#000000;solid-opacity:1;vector-effect:none;fill:url(#radialGradient6481);fill-opacity:1;fill-rule:nonzero;stroke:none;stroke-width:3.77952766;stroke-linecap:butt;stroke-linejoin:miter;stroke-miterlimit:4;stroke-dasharray:none;stroke-dashoffset:0;stroke-opacity:1;color-rendering:auto;image-rendering:auto;shape-rendering:auto;text-rendering:auto;enable-background:accumulate"
       d="m 301.02539,442.83203 c -24.27662,0 -46.03857,16.36095 -61.60937,42.27539 -3.54409,5.89842 -6.77178,12.30369 -9.6504,19.13477 h -68.64843 v 3.77929 h 67.11133 c -8.65337,21.99547 -13.72533,48.13386 -13.91993,76.21875 h -53.1914 v 3.7793 h 53.19531 c 0.28281,32.49893 7.09333,62.38233 18.42578,86.2207 h -71.62109 v 3.7793 h 73.48633 c 1.53317,3.00895 3.13517,5.91937 4.8125,8.71094 15.5708,25.91444 37.33275,42.26758 61.60937,42.26758 24.27662,0 46.03857,-16.35314 61.60938,-42.26758 1.67732,-2.79157 3.28143,-5.70199 4.81445,-8.71094 h 72.47461 v -3.7793 H 369.3125 c 11.3309,-23.83839 18.13732,-53.72172 18.41992,-86.2207 h 52.19141 v -3.7793 h -52.1875 c -0.19445,-28.08489 -5.26278,-54.22328 -13.91406,-76.21875 h 66.10156 v -3.77929 h -67.63867 c -2.87803,-6.83108 -6.10631,-13.23635 -9.65039,-19.13477 -15.57081,-25.91444 -37.33276,-42.27539 -61.60938,-42.27539 z m 0,3.7793 c 22.57687,0 43.23545,15.25054 58.36914,40.4375 3.19195,5.31235 6.12708,11.0657 8.77735,17.19336 h -65.76563 v -57.51172 h -3.7793 v 57.51172 h -64.74804 c 2.6508,-6.12773 5.58732,-11.88096 8.77929,-17.19336 15.1337,-25.18696 35.79033,-40.4375 58.36719,-40.4375 z m -68.72656,61.41015 h 66.32812 v 76.21875 h -80.53906 c 0.19972,-28.22698 5.42556,-54.43352 14.21094,-76.21875 z m 70.10742,0 h 67.3457 c 8.78334,21.78523 14.00552,47.99177 14.20508,76.21875 h -81.55078 z m -84.31445,79.99805 h 80.53515 v 86.2207 h -61.68554 c -11.51104,-23.50488 -18.55895,-53.49316 -18.84961,-86.2207 z m 84.31445,0 h 81.54687 c -0.29043,32.72754 -7.33415,62.71582 -18.84374,86.2207 h -62.70313 z m -63.54492,90 h 59.76562 v 47.13672 c -21.63824,-1.03937 -41.37308,-16.08344 -55.96875,-40.375 -1.30988,-2.18004 -2.57462,-4.43868 -3.79687,-6.76172 z m 63.54492,0 h 60.78516 c -1.22219,2.32311 -2.48696,4.58162 -3.79688,6.76172 -14.82439,24.67222 -34.95115,39.79971 -56.98828,40.4082 z"
       transform="scale(0.26458333)"
       id="path4740"
       inkscape:connector-curvature="0" />
    <text
       id="text6461"
       y="170.3949"
       x="61.523621"
       style="font-style:normal;font-variant:normal;font-weight:normal;font-stretch:normal;font-size:45.24766159px;line-height:1.25;font-family:Arial;-inkscape-font-specification:Arial;letter-spacing:0px;word-spacing:0px;opacity:1;fill:url(#radialGradient6445);fill-opacity:1;stroke:none;stroke-width:0.53024602"
       xml:space="preserve"><tspan
         style="font-style:normal;font-variant:normal;font-weight:bold;font-stretch:normal;font-family:Arial;-inkscape-font-specification:'Arial Bold';fill:url(#radialGradient6445);fill-opacity:1;stroke-width:0.53024602"
         y="170.3949"
         x="61.523621"
         id="tspan6459"
         sodipodi:role="line">2.0</tspan></text>
    <text
       xml:space="preserve"
       style="font-style:normal;font-variant:normal;font-weight:normal;font-stretch:normal;font-size:45.24766159px;line-height:1.25;font-family:Arial;-inkscape-font-specification:Arial;letter-spacing:0px;word-spacing:0px;opacity:1;fill:url(#radialGradient6445);fill-opacity:1;stroke:none;stroke-width:0.53024602"
       x="61.523621"
       y="170.3949"
       id="text6465"
       inkscape:export-filename="D:\w20.png"
       inkscape:export-xdpi="458.87"
       inkscape:export-ydpi="458.87"><tspan
         sodipodi:role="line"
         id="tspan6463"
         x="61.523621"
         y="170.3949"
         style="font-style:normal;font-variant:normal;font-weight:bold;font-stretch:normal;font-family:Arial;-inkscape-font-specification:'Arial Bold';fill:url(#radialGradient6445);fill-opacity:1;stroke-width:0.53024602">2.0</tspan></text>
  </g>
</svg>
