<?xml version="1.0" encoding="UTF-8" standalone="no"?>
<!-- Created with Inkscape (http://www.inkscape.org/) -->

<svg
   xmlns:dc="http://purl.org/dc/elements/1.1/"
   xmlns:cc="http://creativecommons.org/ns#"
   xmlns:rdf="http://www.w3.org/1999/02/22-rdf-syntax-ns#"
   xmlns:svg="http://www.w3.org/2000/svg"
   xmlns="http://www.w3.org/2000/svg"
   xmlns:sodipodi="http://sodipodi.sourceforge.net/DTD/sodipodi-0.dtd"
   xmlns:inkscape="http://www.inkscape.org/namespaces/inkscape"
   width="120"
   height="42"
   id="svg2759"
   sodipodi:version="0.32"
   inkscape:version="0.92.1 r15371"
   version="1.0"
   sodipodi:docname="cc-by.svg"
   inkscape:output_extension="org.inkscape.output.svg.inkscape"
   inkscape:export-filename="C:\src\mydataspace.github.io\images\licenses\сс-by.png"
   inkscape:export-xdpi="300.23013"
   inkscape:export-ydpi="300.23013">
  <defs
     id="defs2761" />
  <sodipodi:namedview
     id="base"
     pagecolor="#ffffff"
     bordercolor="#8b8b8b"
     borderopacity="1"
     gridtolerance="10000"
     guidetolerance="10"
     objecttolerance="10"
     inkscape:pageopacity="0.0"
     inkscape:pageshadow="2"
     inkscape:zoom="4"
     inkscape:cx="30.194933"
     inkscape:cy="-2.2207323"
     inkscape:document-units="px"
     inkscape:current-layer="layer1"
     width="120px"
     height="42px"
     inkscape:showpageshadow="false"
     inkscape:window-width="1842"
     inkscape:window-height="1051"
     inkscape:window-x="69"
     inkscape:window-y="-9"
     showgrid="false"
     inkscape:window-maximized="1" />
  <metadata
     id="metadata2764">
    <rdf:RDF>
      <cc:Work
         rdf:about="">
        <dc:format>image/svg+xml</dc:format>
        <dc:type
           rdf:resource="http://purl.org/dc/dcmitype/StillImage" />
      </cc:Work>
    </rdf:RDF>
  </metadata>
  <g
     inkscape:label="Layer 1"
     inkscape:groupmode="layer"
     id="layer1">
    <path
       style="stroke-width:0.99372119;fill:#337ab7;fill-opacity:1"
       d="M 0 29.525391 L 0 41.492188 C 0 41.772144 0.22782695 42 0.5078125 42 L 119.49219 42 C 119.77218 42 120 41.772135 120 41.492188 L 120 29.525391 L 36.158203 29.525391 C 33.131645 34.994307 27.302222 38.707031 20.613281 38.707031 C 13.921429 38.707031 8.0934572 34.997702 5.0683594 29.525391 L 0 29.525391 z "
       id="path263" />
    <g
       id="g265"
       enable-background="new    "
       transform="matrix(0.9937728,0,0,0.9936696,-177.69267,6.25128e-7)">
      <path
         inkscape:connector-curvature="0"
         style="fill:#ffffff"
         id="path267"
         d="m 253.07761,32.95605 c 0.31738,0 0.60742,0.02832 0.87012,0.08398 0.26172,0.05566 0.48535,0.14746 0.67285,0.27539 0.18652,0.12695 0.33203,0.29688 0.43457,0.50781 0.10254,0.21191 0.1543,0.47266 0.1543,0.78418 0,0.33594 -0.0762,0.61523 -0.22949,0.83887 -0.15234,0.22461 -0.37891,0.40723 -0.67773,0.55078 0.41211,0.11816 0.71973,0.3252 0.92285,0.62109 0.20312,0.29589 0.30469,0.65234 0.30469,1.06934 0,0.33594 -0.0654,0.62695 -0.19629,0.87305 -0.13086,0.24512 -0.30762,0.44629 -0.52832,0.60156 -0.22168,0.15625 -0.47461,0.27148 -0.75781,0.3457 -0.28418,0.0752 -0.5752,0.1123 -0.875,0.1123 H 249.936 v -6.66406 h 3.14161 z m -0.1875,2.69532 c 0.26172,0 0.47656,-0.0625 0.64551,-0.18652 0.16797,-0.12402 0.25195,-0.3252 0.25195,-0.60449 0,-0.15527 -0.0283,-0.2832 -0.084,-0.38184 -0.0566,-0.09961 -0.13086,-0.17676 -0.22461,-0.2334 -0.0937,-0.05566 -0.20117,-0.09473 -0.32227,-0.11621 -0.1211,-0.02148 -0.24805,-0.03223 -0.37793,-0.03223 h -1.37402 v 1.55469 z m 0.0859,2.82812 c 0.14355,0 0.28027,-0.01367 0.41113,-0.04199 0.13086,-0.02832 0.24609,-0.0752 0.34668,-0.13965 0.0996,-0.06543 0.17871,-0.1543 0.23828,-0.2666 0.0596,-0.11133 0.0889,-0.25488 0.0889,-0.42871 0,-0.3418 -0.0967,-0.58594 -0.29004,-0.73242 -0.19336,-0.14551 -0.44922,-0.21875 -0.7666,-0.21875 h -1.59961 v 1.82812 z" />
      <path
         inkscape:connector-curvature="0"
         style="fill:#ffffff"
         id="path269"
         d="m 255.78854,32.95605 h 1.64355 l 1.56055,2.63184 1.55078,-2.63184 h 1.63379 l -2.47363,4.10645 v 2.55762 h -1.46875 v -2.59473 z" />
    </g>
    <path
       id="path5906_1_"
       cx="296.35416"
       ry="22.939548"
       cy="264.3577"
       type="arc"
       rx="22.939548"
       d="m 34.254088,19.606077 c 0.0052,7.529675 -6.096564,13.636752 -13.626526,13.641618 -7.529962,0.0052 -13.6386533,-6.09548 -13.6430254,-13.625102 0,-0.0052 0,-0.01067 0,-0.01648 -0.00434,-7.529674 6.0965644,-13.6367513 13.6265264,-13.6411403 7.530942,-0.0052 13.638653,6.0954803 13.643025,13.6251543 0,0.0052 0,0.01067 0,0.01596 z"
       style="fill:#ffffff;stroke-width:0.8674401"
       inkscape:connector-curvature="0" />
    <g
       id="g5706_1_"
       transform="matrix(0.86748515,0,0,0.86739506,-379.11677,228.23655)"
       style="fill:#337ab7;fill-opacity:1">
      <path
         id="path5708_1_"
         d="m 473.57574,-253.32751 c 3.48541,3.48541 5.22839,7.75391 5.22839,12.80219 0,5.04938 -1.71277,9.27203 -5.13831,12.66791 -3.63531,3.5766 -7.93182,5.36432 -12.88947,5.36432 -4.89777,0 -9.11987,-1.77319 -12.66513,-5.31952 -3.54581,-3.54584 -5.31845,-7.78302 -5.31845,-12.71271 0,-4.92859 1.77264,-9.19598 5.31845,-12.80219 3.4552,-3.48651 7.67728,-5.22949 12.66513,-5.22949 5.0483,-10e-6 9.31404,1.74297 12.79939,5.22949 z m -23.11798,2.34484 c -2.94672,2.97638 -4.41953,6.46289 -4.41953,10.46234 0,3.99835 1.45828,7.45526 4.37424,10.37067 2.9165,2.9165 6.38849,4.37421 10.41705,4.37421 4.02856,0 7.53015,-1.47223 10.50653,-4.4184 2.82593,-2.73645 4.23944,-6.17706 4.23944,-10.32648 0,-4.11804 -1.43646,-7.61346 -4.30768,-10.48468 -2.87067,-2.87067 -6.34991,-4.30658 -10.43829,-4.30658 -4.0884,1e-5 -7.54638,1.44318 -10.37176,4.32892 z m 7.75449,8.70319 c -0.45029,-0.98169 -1.1243,-1.47284 -2.02322,-1.47284 -1.58917,0 -2.38345,1.07007 -2.38345,3.20911 0,2.13953 0.79428,3.2085 2.38345,3.2085 1.04938,0 1.79892,-0.52075 2.24866,-1.56451 l 2.20276,1.17297 c -1.04993,1.86548 -2.62509,2.79846 -4.72549,2.79846 -1.6199,0 -2.91763,-0.4967 -3.89206,-1.48901 -0.9761,-0.99341 -1.46274,-2.36273 -1.46274,-4.10852 0,-1.71503 0.50229,-3.07654 1.50748,-4.08502 1.00519,-1.00854 2.25702,-1.51257 3.75781,-1.51257 2.22012,0 3.80981,0.87488 4.77081,2.62286 z m 10.36337,0 c -0.45087,-0.98169 -1.11145,-1.47284 -1.98242,-1.47284 -1.62103,0 -2.43213,1.07007 -2.43213,3.20911 0,2.13953 0.8111,3.2085 2.43213,3.2085 1.05109,0 1.78717,-0.52075 2.20728,-1.56451 l 2.25201,1.17297 c -1.04828,1.86548 -2.62122,2.79846 -4.71771,2.79846 -1.61768,0 -2.9126,-0.4967 -3.88647,-1.48901 -0.97217,-0.99341 -1.45935,-2.36273 -1.45935,-4.10852 0,-1.71503 0.49445,-3.07654 1.48285,-4.08502 0.98785,-1.00854 2.2453,-1.51257 3.7735,-1.51257 2.21619,0 3.80365,0.87488 4.76129,2.62286 z"
         inkscape:connector-curvature="0"
         style="fill:#337ab7;fill-opacity:1" />
    </g>
    <ellipse
       cx="76.267197"
       cy="15.21654"
       id="circle277"
       style="fill:#ffffff;stroke-width:0.99372119"
       rx="10.739345"
       ry="10.73823" />
    <g
       id="g279"
       transform="matrix(0.9937728,0,0,0.9936696,-177.69267,6.25128e-7)"
       style="fill:#337ab7;fill-opacity:1">
      <path
         d="m 258.67819,12.18701 c 0,-0.4165 -0.33789,-0.75391 -0.75293,-0.75391 h -4.77344 c -0.41504,0 -0.75293,0.3374 -0.75293,0.75391 v 4.77295 h 1.33105 v 5.65186 h 3.61719 v -5.65186 h 1.33105 v -4.77295 z"
         id="path281"
         inkscape:connector-curvature="0"
         style="fill:#337ab7;fill-opacity:1" />
      <circle
         cx="255.53854"
         cy="9.1723604"
         r="1.63281"
         id="circle283"
         style="fill:#337ab7;fill-opacity:1" />
    </g>
    <path
       d="m 76.240032,3.3856615 c -3.212292,0 -5.931582,1.1207897 -8.156898,3.3623693 -2.28354,2.318728 -3.424829,5.0634422 -3.424829,8.2322242 0,3.168783 1.141289,5.894091 3.424829,8.174483 2.283541,2.279905 5.002832,3.420102 8.156898,3.420102 3.192882,0 5.960699,-1.148931 8.301501,-3.449216 2.205907,-2.183361 3.309342,-4.898484 3.309342,-8.145378 0,-3.246895 -1.122844,-5.9906457 -3.366604,-8.2322252 C 82.238573,4.5064512 79.491139,3.3856615 76.240032,3.3856615 Z m 0.02912,2.0863186 c 2.631948,0 4.866963,0.9281669 6.705055,2.7835369 1.8575,1.835477 2.78625,4.077056 2.78625,6.724738 0,2.666602 -0.909341,4.879554 -2.728025,6.637892 -1.9167,1.894183 -4.170159,2.840792 -6.76328,2.840792 -2.594095,0 -4.82912,-0.936901 -6.705055,-2.811677 -1.877882,-1.874777 -2.815368,-4.09695 -2.815368,-6.666997 0,-2.570533 0.948159,-4.811636 2.844476,-6.7247381 1.818694,-1.8553799 4.043999,-2.7835468 6.675947,-2.7835468 z"
       id="path285"
       style="clip-rule:evenodd;fill-rule:evenodd;stroke-width:0.99372119;fill:#337ab7;fill-opacity:1"
       inkscape:connector-curvature="0" />
  </g>
</svg>
