<?xml version="1.0" encoding="UTF-8" standalone="no"?>
<!-- Created with Inkscape (http://www.inkscape.org/) -->

<svg
   xmlns:dc="http://purl.org/dc/elements/1.1/"
   xmlns:cc="http://creativecommons.org/ns#"
   xmlns:rdf="http://www.w3.org/1999/02/22-rdf-syntax-ns#"
   xmlns:svg="http://www.w3.org/2000/svg"
   xmlns="http://www.w3.org/2000/svg"
   xmlns:sodipodi="http://sodipodi.sourceforge.net/DTD/sodipodi-0.dtd"
   xmlns:inkscape="http://www.inkscape.org/namespaces/inkscape"
   width="35mm"
   height="12mm"
   viewBox="0 0 35 12"
   version="1.1"
   id="svg8"
   sodipodi:docname="custom.svg"
   inkscape:version="0.92.1 r15371">
  <defs
     id="defs2" />
  <sodipodi:namedview
     id="base"
     pagecolor="#ffffff"
     bordercolor="#666666"
     borderopacity="1.0"
     inkscape:pageopacity="0.0"
     inkscape:pageshadow="2"
     inkscape:zoom="4"
     inkscape:cx="73.55265"
     inkscape:cy="-9.595462"
     inkscape:document-units="mm"
     inkscape:current-layer="layer1"
     showgrid="false"
     inkscape:window-width="1842"
     inkscape:window-height="1051"
     inkscape:window-x="69"
     inkscape:window-y="-9"
     inkscape:window-maximized="1"
     showguides="false" />
  <metadata
     id="metadata5">
    <rdf:RDF>
      <cc:Work
         rdf:about="">
        <dc:format>image/svg+xml</dc:format>
        <dc:type
           rdf:resource="http://purl.org/dc/dcmitype/StillImage" />
        <dc:title></dc:title>
      </cc:Work>
    </rdf:RDF>
  </metadata>
  <g
     inkscape:label="Layer 1"
     inkscape:groupmode="layer"
     id="layer1"
     transform="translate(0,-285)">
    <text
       xml:space="preserve"
       style="font-style:normal;font-variant:normal;font-weight:normal;font-stretch:normal;font-size:3.52777767px;line-height:1.25;font-family:Arial;-inkscape-font-specification:Arial;letter-spacing:0px;word-spacing:0px;fill:#000000;fill-opacity:1;stroke:none;stroke-width:0.26458332"
       x="49.703869"
       y="31.660713"
       id="text4498"><tspan
         sodipodi:role="line"
         id="tspan4496"
         x="49.703869"
         y="34.838375"
         style="font-style:normal;font-variant:normal;font-weight:normal;font-stretch:normal;font-family:Arial;-inkscape-font-specification:Arial;stroke-width:0.26458332" /></text>
    <text
       xml:space="preserve"
       style="font-style:normal;font-variant:normal;font-weight:normal;font-stretch:normal;font-size:5.12693071px;line-height:1.25;font-family:'Showcard Gothic';-inkscape-font-specification:'Showcard Gothic';letter-spacing:0px;word-spacing:0px;fill:#337ab7;fill-opacity:1;stroke:none;stroke-width:0.38451982"
       x="13.095704"
       y="290.19455"
       id="text4502"><tspan
         sodipodi:role="line"
         x="13.095704"
         y="290.19455"
         style="font-style:normal;font-variant:normal;font-weight:normal;font-stretch:normal;font-family:Arial;-inkscape-font-specification:Arial;fill:#337ab7;fill-opacity:1;stroke-width:0.38451982"
         id="tspan5242">Custom</tspan></text>
    <g
       id="g4512"
       transform="matrix(0.75597078,0,0,0.75597078,1.3064279,70.968615)">
      <path
         inkscape:connector-curvature="0"
         id="path5257"
         d="m 8.8978881,294.05051 c -0.026396,-0.0114 -0.076882,-0.0511 -0.1121928,-0.0882 -0.0795,-0.0834 -0.1340083,-0.11288 -0.2089118,-0.11288 -0.075774,0 -0.1095464,0.0189 -0.2192417,0.12256 -0.075237,0.0711 -0.101104,0.0861 -0.1485718,0.0861 -0.069441,0 -0.1153463,-0.0462 -0.1571451,-0.15829 -0.042558,-0.11409 -0.1053297,-0.16649 -0.2098286,-0.17515 -0.070533,-0.006 -0.101113,6.9e-4 -0.1726022,0.0369 -0.1760254,0.0892 -0.2720485,0.0498 -0.2720485,-0.11168 0,-0.13077 -0.040517,-0.22858 -0.1138672,-0.27489 -0.054629,-0.0345 -0.080444,-0.0392 -0.2158994,-0.0392 -0.084618,0 -0.1675124,-0.007 -0.1842072,-0.0162 -0.044305,-0.0237 -0.05439,-0.10764 -0.023771,-0.19782 0.074579,-0.21967 -0.014915,-0.36021 -0.2567442,-0.4032 -0.090341,-0.0161 -0.1203771,-0.0483 -0.1203771,-0.12925 0,-0.0508 0.01284,-0.0849 0.052163,-0.13834 0.078982,-0.10735 0.092294,-0.13655 0.092229,-0.20234 -7.83e-5,-0.0785 -0.044319,-0.14912 -0.1295297,-0.20672 -0.1000485,-0.0676 -0.1593151,-0.13282 -0.1593151,-0.17524 0,-0.0419 0.074042,-0.12226 0.1719448,-0.1865 0.075747,-0.0497 0.1169603,-0.12257 0.1169603,-0.20678 0,-0.0446 -0.018386,-0.0867 -0.072226,-0.16535 -0.056412,-0.0824 -0.072226,-0.11975 -0.072226,-0.17063 0,-0.0555 0.00729,-0.0696 0.049336,-0.0951 0.027134,-0.0165 0.078451,-0.0347 0.1140366,-0.0403 0.1482828,-0.0237 0.2413886,-0.11889 0.240337,-0.2457 -3.852e-4,-0.0422 -0.011877,-0.10356 -0.02562,-0.13638 -0.033468,-0.0799 -0.031488,-0.14544 0.00578,-0.19134 0.029326,-0.0361 0.038666,-0.0377 0.199618,-0.033 l 0.1688542,0.005 0.062495,-0.0565 c 0.070809,-0.064 0.1000279,-0.14134 0.1000279,-0.26486 0,-0.0669 0.0077,-0.0908 0.039396,-0.12253 0.049737,-0.0497 0.090913,-0.0494 0.2005503,0.002 0.1771887,0.0825 0.301233,0.0645 0.3763728,-0.0545 0.022253,-0.0353 0.044798,-0.0814 0.0501,-0.1025 0.0053,-0.0211 0.025709,-0.0585 0.04535,-0.0832 0.02773,-0.0348 0.049232,-0.0448 0.096207,-0.0448 0.051534,0 0.074442,0.0133 0.154631,0.0898 0.1014969,0.0968 0.1494615,0.12207 0.2317751,0.12207 0.058943,0 0.1471876,-0.0575 0.2304693,-0.15017 0.042741,-0.0476 0.063717,-0.0584 0.112352,-0.0582 0.083831,3.5e-4 0.100521,0.0152 0.1641264,0.1465 0.030897,0.0638 0.076591,0.13085 0.1015418,0.14911 0.062909,0.046 0.2032711,0.0437 0.2939991,-0.005 0.190319,-0.1019 0.275337,-0.0344 0.277873,0.22076 6.42e-4,0.0615 0.0097,0.0794 0.07303,0.14266 l 0.07234,0.0723 0.1480437,-0.008 c 0.172313,-0.01 0.20877,1.8e-4 0.235459,0.0646 0.01605,0.0387 0.01477,0.0658 -0.0071,0.14982 -0.03976,0.15291 -0.02601,0.24786 0.04535,0.31326 0.05181,0.0475 0.08682,0.062 0.225414,0.0933 0.05423,0.0122 0.123022,0.0817 0.123022,0.12424 0,0.0328 -0.02904,0.0842 -0.09963,0.17607 -0.09449,0.12304 -0.07152,0.27748 0.05425,0.36481 0.150442,0.10446 0.157726,0.11273 0.157726,0.17913 0,0.068 -0.01079,0.0813 -0.157261,0.19316 -0.14478,0.11059 -0.152453,0.2152 -0.02926,0.39882 0.04079,0.0608 0.07417,0.12432 0.07417,0.14116 0,0.0492 -0.0811,0.11342 -0.167794,0.1328 -0.227124,0.0508 -0.293082,0.16859 -0.224211,0.40051 0.02711,0.0913 0.02183,0.14404 -0.01845,0.18433 -0.01954,0.0195 -0.06129,0.0252 -0.186089,0.0252 -0.2433327,0 -0.3054197,0.0517 -0.3245617,0.27038 -0.01206,0.13769 -0.02828,0.17464 -0.0864,0.19674 -0.05047,0.0192 -0.09338,0.01 -0.209325,-0.0449 -0.067932,-0.0321 -0.1032033,-0.0392 -0.1655581,-0.0332 -0.100051,0.01 -0.1412463,0.0471 -0.207959,0.1893 -0.045452,0.0969 -0.071053,0.12436 -0.143243,0.15377 -0.00449,0.002 -0.02978,-0.006 -0.056176,-0.0175 z m -0.031941,-0.77798 c 0.1975957,-0.042 0.3215745,-0.0929 0.4895337,-0.20086 0.2993605,-0.19241 0.5156575,-0.49027 0.6123605,-0.84328 0.05382,-0.19647 0.05389,-0.52687 1.29e-4,-0.72226 -0.0929,-0.33777 -0.308204,-0.64381 -0.5837633,-0.82979 -0.071738,-0.0484 -0.2660239,-0.14541 -0.3577725,-0.17862 -0.1641405,-0.0594 -0.5604785,-0.0791 -0.7543634,-0.0375 -0.4173421,0.0895 -0.7995919,0.38858 -0.9843923,0.77008 -0.3426441,0.70735 -0.069558,1.53898 0.6272118,1.91005 0.2833992,0.15093 0.6339362,0.19965 0.9510411,0.13219 z"
         style="opacity:1;fill:#337ab7;fill-opacity:1;stroke:none;stroke-width:0.0606625;stroke-miterlimit:4;stroke-dasharray:none;stroke-opacity:1" />
      <path
         inkscape:connector-curvature="0"
         id="path5259"
         d="m 7.5529717,296.4292 c -0.01459,-0.0285 -0.050569,-0.0951 -0.079951,-0.14811 -0.029381,-0.053 -0.082698,-0.15047 -0.1184781,-0.21668 -0.035782,-0.0662 -0.090462,-0.16712 -0.1215122,-0.22424 -0.03105,-0.0571 -0.066796,-0.11039 -0.079436,-0.11837 -0.016281,-0.0103 -0.1341933,0.0427 -0.4044865,0.18152 -0.2098273,0.10781 -0.3845507,0.19297 -0.3882744,0.18925 -0.00372,-0.004 0.00788,-0.0531 0.025787,-0.10975 0.038314,-0.1212 0.07093,-0.22629 0.1515147,-0.48819 0.032595,-0.10594 0.065271,-0.20705 0.072614,-0.22471 0.00734,-0.0177 0.029622,-0.0863 0.049512,-0.15247 0.019888,-0.0662 0.055757,-0.18177 0.07971,-0.25681 0.023953,-0.075 0.070492,-0.2231 0.103419,-0.32903 0.032929,-0.10593 0.069299,-0.22149 0.080822,-0.2568 0.01153,-0.0353 0.058316,-0.18338 0.1039827,-0.32904 0.1152295,-0.36753 0.1153862,-0.36783 0.1300022,-0.24775 0.02014,0.16547 0.088834,0.26196 0.2376033,0.33375 0.093481,0.0451 0.2540555,0.0235 0.3622357,-0.0488 0.038537,-0.0257 0.072668,-0.0274 0.072668,-0.004 0,0.0335 0.053785,0.13507 0.1064455,0.201 0.064272,0.0805 0.1729155,0.13447 0.2705616,0.13447 0.03982,0 0.072401,0.005 0.072401,0.0108 0,0.006 -0.017264,0.0619 -0.038363,0.12439 -0.021099,0.0625 -0.054386,0.16773 -0.07397,0.23394 -0.019584,0.0662 -0.055954,0.18177 -0.080824,0.2568 -0.02487,0.075 -0.071732,0.2231 -0.1041381,0.32903 -0.032406,0.10593 -0.075438,0.24316 -0.095624,0.30496 -0.020186,0.0618 -0.07432,0.23152 -0.1202975,0.37718 -0.045978,0.14566 -0.097376,0.30639 -0.1142203,0.35718 -0.016844,0.0508 -0.030625,0.10228 -0.030625,0.1144 0,0.0121 -0.00958,0.03 -0.021274,0.0397 -0.016487,0.0137 -0.027244,0.006 -0.047804,-0.0341 z"
         style="opacity:1;fill:#337ab7;fill-opacity:1;stroke:none;stroke-width:0.0606625;stroke-miterlimit:4;stroke-dasharray:none;stroke-opacity:1" />
      <path
         inkscape:connector-curvature="0"
         id="path5261"
         d="m 9.4250129,296.44651 c -0.0098,-0.0292 -0.033925,-0.10724 -0.053609,-0.17344 -0.019684,-0.0662 -0.044906,-0.14566 -0.056049,-0.17656 -0.011145,-0.0309 -0.0362,-0.11034 -0.055683,-0.17655 -0.019484,-0.0662 -0.041363,-0.13482 -0.048622,-0.15248 -0.00725,-0.0177 -0.023853,-0.0682 -0.036877,-0.11235 -0.046794,-0.15859 -0.1429336,-0.46806 -0.1869794,-0.60189 -0.024696,-0.075 -0.071987,-0.2231 -0.1050934,-0.32903 -0.033106,-0.10593 -0.08098,-0.25537 -0.1063865,-0.33209 -0.052809,-0.15947 -0.054261,-0.16807 -0.024183,-0.1431 0.012108,0.01 0.060494,0.0297 0.1075279,0.0437 0.079233,0.0235 0.092342,0.0233 0.1784252,-0.003 0.1111322,-0.0336 0.1812694,-0.0982 0.2530026,-0.23275 0.027954,-0.0524 0.053016,-0.0954 0.055691,-0.0954 0.00267,0 0.052651,0.0217 0.111059,0.0482 0.062425,0.0283 0.13321,0.0482 0.171742,0.0482 0.100071,0 0.230002,-0.069 0.291623,-0.15476 0.02933,-0.0408 0.05444,-0.0631 0.05759,-0.0511 0.0031,0.0117 0.01165,0.0357 0.01903,0.0534 0.0074,0.0177 0.03268,0.0971 0.0562,0.17655 0.02352,0.0795 0.04854,0.1589 0.0556,0.17655 0.0071,0.0177 0.0291,0.0863 0.04899,0.15248 0.01988,0.0662 0.05235,0.17094 0.07215,0.23273 0.0198,0.0618 0.063,0.19903 0.096,0.30496 0.033,0.10593 0.07996,0.25399 0.104362,0.32903 0.0244,0.075 0.07122,0.2231 0.104057,0.32903 0.03283,0.10593 0.08071,0.25515 0.106385,0.3316 0.02568,0.0765 0.04669,0.14655 0.04669,0.15578 0,0.017 -0.02511,0.009 -0.208654,-0.0622 -0.04855,-0.019 -0.113555,-0.0418 -0.144453,-0.0507 -0.0309,-0.009 -0.06304,-0.0228 -0.07142,-0.0308 -0.0084,-0.008 -0.02535,-0.0146 -0.0377,-0.0146 -0.01235,0 -0.04521,-0.0101 -0.07303,-0.0225 -0.08703,-0.0388 -0.2651839,-0.0973 -0.2721489,-0.0894 -0.0037,0.004 -0.06725,0.10365 -0.141318,0.22108 -0.07407,0.11744 -0.156334,0.24785 -0.182817,0.2898 -0.02648,0.042 -0.0628,0.0961 -0.08071,0.12042 l -0.032563,0.0442 z"
         style="opacity:1;fill:#337ab7;fill-opacity:1;stroke:none;stroke-width:0.0606625;stroke-miterlimit:4;stroke-dasharray:none;stroke-opacity:1" />
      <path
         inkscape:connector-curvature="0"
         id="path5263"
         d="m 7.8862501,292.79214 c 0.00957,-0.0301 0.03643,-0.1808 0.083357,-0.46744 0.045276,-0.27656 0.045212,-0.27058 0.00329,-0.30675 -0.048076,-0.0415 -0.5113416,-0.49811 -0.5113416,-0.50403 0,-0.002 0.027085,-0.008 0.060189,-0.0126 0.033103,-0.005 0.1432495,-0.0204 0.2447669,-0.0353 0.1015187,-0.0149 0.2459713,-0.0355 0.3210057,-0.0456 l 0.1364274,-0.0185 0.174527,-0.34978 c 0.09599,-0.19238 0.1776009,-0.34671 0.1813567,-0.34295 0.00376,0.004 0.084118,0.16116 0.1785793,0.34978 l 0.1717496,0.34295 0.1364275,0.0185 c 0.270134,0.0366 0.5067347,0.0709 0.5667817,0.0823 l 0.0612,0.0116 -0.273864,0.27098 c -0.1506249,0.14904 -0.2738641,0.28352 -0.2738641,0.29884 0,0.0153 0.011325,0.092 0.025182,0.1704 0.013849,0.0784 0.035443,0.20393 0.047984,0.27897 0.012545,0.075 0.028955,0.17073 0.036475,0.21267 0.01476,0.0823 0.00347,0.0937 -0.053907,0.0547 -0.027707,-0.0189 -0.1586141,-0.0886 -0.5307213,-0.28278 l -0.097805,-0.051 -0.1028233,0.0551 c -0.056552,0.0303 -0.1967175,0.10399 -0.311477,0.1638 -0.1147596,0.0598 -0.2155155,0.115 -0.2239015,0.12264 -0.028333,0.0258 -0.059667,0.0155 -0.049583,-0.0162 z"
         style="opacity:1;fill:#337ab7;fill-opacity:1;stroke:none;stroke-width:0.0606625;stroke-miterlimit:4;stroke-dasharray:none;stroke-opacity:1" />
      <path
         inkscape:connector-curvature="0"
         id="path5265"
         d="m 2.6625113,296.49626 c -0.088889,-0.0173 -0.1634345,-0.0539 -0.2536066,-0.12448 -0.1525346,-0.11943 -0.2285939,-0.23597 -0.2779148,-0.42582 -0.028481,-0.10963 -0.0297,-0.27105 -0.029964,-3.96906 -2.953e-4,-4.18913 -0.00527,-3.9436 0.083469,-4.12221 0.035522,-0.0715 2.2445807,-2.29749 2.3398487,-2.35778 0.030898,-0.0196 0.092289,-0.0496 0.1364275,-0.0667 0.078247,-0.0304 0.1434022,-0.0312 2.6081715,-0.0312 2.4583207,0 2.5301297,9e-4 2.6081717,0.031 0.1636977,0.0632 0.2967037,0.17432 0.3757947,0.3141 0.01248,0.0221 0.03583,0.0907 0.05189,0.15248 0.02747,0.10573 0.02922,0.23141 0.02947,2.12439 2.57e-4,1.82818 -0.002,2.01113 -0.02511,2.00228 -0.01396,-0.005 -0.05642,-0.01 -0.09436,-0.01 -0.07372,0 -0.08619,-0.015 -0.112841,-0.13581 -0.0058,-0.0261 -0.03164,-0.0789 -0.05748,-0.11717 l -0.04699,-0.0696 v -1.87371 -1.87372 l -0.05196,-0.0746 c -0.03032,-0.0436 -0.07952,-0.0884 -0.118123,-0.1077 -0.06593,-0.0329 -0.07502,-0.033 -2.5080649,-0.033 H 4.8774506 l -2.568e-4,0.90283 c -2.568e-4,0.83224 -0.00265,0.91194 -0.030548,1.01938 -0.054089,0.20824 -0.1717277,0.34759 -0.3700759,0.43838 -0.1535935,0.0703 -0.276011,0.0784 -1.1840661,0.0788 l -0.8546784,2.9e-4 1.541e-4,3.86411 1.541e-4,3.8641 0.047187,0.0823 c 0.047669,0.0831 0.1317149,0.15979 0.2140844,0.19531 0.034039,0.0147 0.4291398,0.0194 1.6341983,0.0194 h 1.5893045 l -0.010478,0.0361 c -0.00577,0.0199 -0.025073,0.0831 -0.042907,0.14044 -0.017834,0.0574 -0.035045,0.11335 -0.038247,0.12439 -0.00461,0.0159 -0.3274823,0.0197 -1.5511664,0.0183 -0.8499386,-9.6e-4 -1.5778451,-0.008 -1.6175696,-0.0158 z"
         style="opacity:1;fill:#337ab7;fill-opacity:1;stroke:none;stroke-width:0.0606625;stroke-miterlimit:4;stroke-dasharray:none;stroke-opacity:1" />
      <path
         inkscape:connector-curvature="0"
         id="path5267"
         d="m 5.5997135,287.66209 v -0.16853 h 1.8377578 1.8377578 v 0.16853 0.16853 H 7.4374713 5.5997135 Z"
         style="opacity:1;fill:#337ab7;fill-opacity:1;stroke:none;stroke-width:0.0606625;stroke-miterlimit:4;stroke-dasharray:none;stroke-opacity:1" />
      <path
         inkscape:connector-curvature="0"
         id="path5269"
         d="m 5.5997135,288.72141 v -0.16853 h 1.8377578 1.8377578 v 0.16853 0.16852 H 7.4374713 5.5997135 Z"
         style="opacity:1;fill:#337ab7;fill-opacity:1;stroke:none;stroke-width:0.0606625;stroke-miterlimit:4;stroke-dasharray:none;stroke-opacity:1" />
      <path
         inkscape:connector-curvature="0"
         id="path5271"
         d="m 3.1600701,289.7727 v -0.1605 h 2.0398732 2.0398745 l -0.07429,0.0826 c -0.04086,0.0454 -0.089365,0.11767 -0.1077912,0.1605 l -0.033501,0.0779 H 5.0921534 3.1600701 Z"
         style="opacity:1;fill:#337ab7;fill-opacity:1;stroke:none;stroke-width:0.0606625;stroke-miterlimit:4;stroke-dasharray:none;stroke-opacity:1" />
      <path
         inkscape:connector-curvature="0"
         id="path5273"
         d="m 3.1600701,290.82399 v -0.16852 l 1.657192,0.001 c 0.9114559,7.6e-4 1.6387971,0.007 1.6163151,0.0138 -0.1103771,0.0335 -0.2274312,0.13866 -0.2892467,0.25983 l -0.03166,0.0621 H 4.6363702 3.1600701 Z"
         style="opacity:1;fill:#337ab7;fill-opacity:1;stroke:none;stroke-width:0.0606625;stroke-miterlimit:4;stroke-dasharray:none;stroke-opacity:1" />
      <path
         inkscape:connector-curvature="0"
         id="path5275"
         d="m 3.1600701,291.88331 v -0.16853 l 1.4084125,-1e-5 1.4084126,-10e-6 v 0.13243 c 0,0.0728 0.00591,0.14868 0.013119,0.16854 l 0.01312,0.0361 H 4.5816015 3.1600701 Z"
         style="opacity:1;fill:#337ab7;fill-opacity:1;stroke:none;stroke-width:0.0606625;stroke-miterlimit:4;stroke-dasharray:none;stroke-opacity:1" />
      <path
         inkscape:connector-curvature="0"
         id="path5277"
         d="m 3.1600701,292.93452 v -0.16058 l 1.4841005,0.004 1.4841007,0.004 0.046272,0.073 c 0.052667,0.083 0.1435743,0.16042 0.2316968,0.1972 0.033103,0.0138 0.060189,0.0291 0.060189,0.034 0,0.005 -0.7439308,0.009 -1.6531795,0.009 H 3.1600701 Z"
         style="opacity:1;fill:#337ab7;fill-opacity:1;stroke:none;stroke-width:0.0606625;stroke-miterlimit:4;stroke-dasharray:none;stroke-opacity:1" />
      <path
         inkscape:connector-curvature="0"
         id="path5279"
         d="m 3.1600701,294.10635 v -0.16058 h 1.7334308 c 0.953387,0 1.7334309,0.006 1.7334309,0.0131 0,0.007 -0.020634,0.0777 -0.045854,0.15649 l -0.045854,0.14335 -1.6875772,0.004 -1.6875771,0.004 z"
         style="opacity:1;fill:#337ab7;fill-opacity:1;stroke:none;stroke-width:0.0606625;stroke-miterlimit:4;stroke-dasharray:none;stroke-opacity:1" />
    </g>
    <text
       id="text5315"
       y="294.98917"
       x="13.095704"
       style="font-style:normal;font-variant:normal;font-weight:normal;font-stretch:normal;font-size:5.12693071px;line-height:1.25;font-family:'Showcard Gothic';-inkscape-font-specification:'Showcard Gothic';letter-spacing:0px;word-spacing:0px;fill:#337ab7;fill-opacity:1;stroke:none;stroke-width:0.38451982"
       xml:space="preserve"><tspan
         id="tspan5313"
         style="font-style:normal;font-variant:normal;font-weight:normal;font-stretch:normal;font-family:Arial;-inkscape-font-specification:Arial;fill:#337ab7;fill-opacity:1;stroke-width:0.38451982"
         y="294.98917"
         x="13.095704"
         sodipodi:role="line">License</tspan></text>
  </g>
</svg>
