<?xml version="1.0" encoding="UTF-8" standalone="no"?>
<!-- Created with Inkscape (http://www.inkscape.org/) -->

<svg
   xmlns:dc="http://purl.org/dc/elements/1.1/"
   xmlns:cc="http://creativecommons.org/ns#"
   xmlns:rdf="http://www.w3.org/1999/02/22-rdf-syntax-ns#"
   xmlns:svg="http://www.w3.org/2000/svg"
   xmlns="http://www.w3.org/2000/svg"
   xmlns:sodipodi="http://sodipodi.sourceforge.net/DTD/sodipodi-0.dtd"
   xmlns:inkscape="http://www.inkscape.org/namespaces/inkscape"
   width="24mm"
   height="10mm"
   viewBox="0 0 24 10"
   version="1.1"
   id="svg4501"
   inkscape:version="0.92.1 r15371"
   sodipodi:docname="ogl-hover.svg">
  <defs
     id="defs4495" />
  <sodipodi:namedview
     id="base"
     pagecolor="#ffffff"
     bordercolor="#666666"
     borderopacity="1.0"
     inkscape:pageopacity="0.0"
     inkscape:pageshadow="2"
     inkscape:zoom="5.6"
     inkscape:cx="20.732313"
     inkscape:cy="34.021851"
     inkscape:document-units="mm"
     inkscape:current-layer="layer1"
     showgrid="false"
     inkscape:window-width="1842"
     inkscape:window-height="1051"
     inkscape:window-x="69"
     inkscape:window-y="-9"
     inkscape:window-maximized="1" />
  <metadata
     id="metadata4498">
    <rdf:RDF>
      <cc:Work
         rdf:about="">
        <dc:format>image/svg+xml</dc:format>
        <dc:type
           rdf:resource="http://purl.org/dc/dcmitype/StillImage" />
        <dc:title />
      </cc:Work>
    </rdf:RDF>
  </metadata>
  <g
     inkscape:label="Layer 1"
     inkscape:groupmode="layer"
     id="layer1"
     transform="translate(0,-287)">
    <g
       id="g5145"
       transform="matrix(0.8524307,0,0,0.8524307,-54.150753,232.9593)"
       style="fill:#23527c;fill-opacity:1">
      <path
         inkscape:connector-curvature="0"
         id="path5113"
         d="m 71.311897,64.994021 a 4.2676664,4.2676664 0 0 0 -4.26744,4.267441 4.2676664,4.2676664 0 0 0 4.26744,4.267951 4.2676664,4.2676664 0 0 0 4.26744,-4.267951 4.2676664,4.2676664 0 0 0 -4.26744,-4.267441 z m 0.0501,2.205032 a 2.1128058,2.1128058 0 0 1 2.11305,2.112534 2.1128058,2.1128058 0 0 1 -2.11305,2.113046 2.1128058,2.1128058 0 0 1 -2.11305,-2.113046 2.1128058,2.1128058 0 0 1 2.11305,-2.112534 z"
         style="opacity:1;fill:#23527c;fill-opacity:1;stroke:none;stroke-width:1;stroke-miterlimit:4;stroke-dasharray:none;stroke-opacity:1" />
      <path
         inkscape:connector-curvature="0"
         id="path5120"
         d="m 78.720295,64.993765 a 4.2676664,4.2676664 0 0 0 -4.267441,4.267441 4.2676664,4.2676664 0 0 0 4.267441,4.267954 4.2676664,4.2676664 0 0 0 2.933671,-1.180806 l 0.963763,1.080556 h 0.0021 v -3.875733 h -3.458705 l 1.109493,1.243851 a 2.1128057,2.1128057 0 0 1 -1.500166,0.627353 2.1128057,2.1128057 0 0 1 -2.11305,-2.113049 2.1128057,2.1128057 0 0 1 2.11305,-2.112534 2.1128057,2.1128057 0 0 1 1.796272,1.002524 l 1.797823,-1.150318 a 4.2676664,4.2676664 0 0 0 -3.64422,-2.057239 z"
         style="opacity:1;fill:#23527c;fill-opacity:1;stroke:none;stroke-width:1;stroke-miterlimit:4;stroke-dasharray:none;stroke-opacity:1" />
      <path
         inkscape:connector-curvature="0"
         id="rect5133"
         d="m 85.576204,65.035107 -2.021064,1.311547 v 5.061191 1.932696 5.19e-4 h 4.605403 v -1.933215 h -2.584339 z"
         style="opacity:1;fill:#23527c;fill-opacity:1;stroke:none;stroke-width:0.9481625;stroke-miterlimit:4;stroke-dasharray:none;stroke-opacity:1" />
    </g>
  </g>
</svg>
