<?xml version="1.0" encoding="UTF-8" standalone="no"?>
<!-- Created with Inkscape (http://www.inkscape.org/) -->

<svg
   xmlns:dc="http://purl.org/dc/elements/1.1/"
   xmlns:cc="http://creativecommons.org/ns#"
   xmlns:rdf="http://www.w3.org/1999/02/22-rdf-syntax-ns#"
   xmlns:svg="http://www.w3.org/2000/svg"
   xmlns="http://www.w3.org/2000/svg"
   xmlns:sodipodi="http://sodipodi.sourceforge.net/DTD/sodipodi-0.dtd"
   xmlns:inkscape="http://www.inkscape.org/namespaces/inkscape"
   version="1.1"
   id="svg4485"
   viewBox="0 0 210 210"
   sodipodi:docname="builder.svg"
   inkscape:version="0.92.1 r15371">
  <metadata
     id="metadata4491">
    <rdf:RDF>
      <cc:Work
         rdf:about="">
        <dc:format>image/svg+xml</dc:format>
        <dc:type
           rdf:resource="http://purl.org/dc/dcmitype/StillImage" />
        <dc:title />
      </cc:Work>
    </rdf:RDF>
  </metadata>
  <defs
     id="defs4489" />
  <sodipodi:namedview
     pagecolor="#ffffff"
     bordercolor="#666666"
     borderopacity="1"
     objecttolerance="10"
     gridtolerance="10"
     guidetolerance="10"
     inkscape:pageopacity="0"
     inkscape:pageshadow="2"
     inkscape:window-width="1837"
     inkscape:window-height="1051"
     id="namedview4487"
     showgrid="false"
     inkscape:zoom="1.7875"
     inkscape:cx="199.07095"
     inkscape:cy="67.471386"
     inkscape:window-x="1994"
     inkscape:window-y="-9"
     inkscape:window-maximized="1"
     inkscape:current-layer="svg4485" />
  <path
     style="opacity:1;fill:#000000;fill-opacity:1;fill-rule:nonzero;stroke:none;stroke-width:7.91168404;stroke-miterlimit:4;stroke-dasharray:none;stroke-opacity:1"
     d="m 21.327938,198.00101 c -1.663078,-1.16487 -1.758377,-1.7867 -1.758377,-11.47367 v -10.24206 l -2.678859,-2.56957 c -3.294867,-3.16044 -6.9211099,-9.59861 -9.2456143,-16.41501 -1.289041,-3.78 -1.820138,-7.44852 -2.004424,-13.84545 -0.137895,-4.78656 -0.478056,-9.82654 -0.755916,-11.19994 -0.374697,-1.85204 0.04324,-3.58921 1.617901,-6.72493 6.3778673,-12.70058 16.1417373,-19.75185 30.4173213,-21.96679 3.025546,-0.46943 16.82562,-0.89563 30.666832,-0.94711 13.841211,-0.0515 26.165638,-0.3185 27.387614,-0.59338 2.523431,-0.56762 10.065604,-6.43582 9.747354,-7.58394 -0.11508,-0.41515 -1.28205,-1.03281 -2.59327,-1.37258 -1.31123,-0.33977 -3.052988,-1.35694 -3.870569,-2.26036 -1.275506,-1.40942 -1.322525,-1.75289 -0.331239,-2.41952 1.44883,-0.97432 7.246028,-0.30047 10.048798,1.16804 1.83294,0.96038 2.35913,0.9496 3.93128,-0.0805 1.37759,-0.90263 3.10199,-1.0736 7.15386,-0.70929 2.93631,0.264 5.69477,0.50664 6.12992,0.5392 0.43514,0.0326 2.29495,-0.36097 4.13289,-0.8745 6.49046,-1.81347 10.04451,1.14836 4.53221,3.777 l -2.80684,1.33849 5.97151,5.74362 c 6.01479,5.78525 6.82973,7.45994 5.15389,10.59127 -1.20484,2.25128 -6.36216,4.59774 -11.40918,5.19092 -2.43772,0.2865 -4.6162,0.81861 -4.84107,1.18245 -0.22487,0.36384 -0.93453,3.96291 -1.57703,7.99793 -4.2137,26.46294 -7.78825,36.65287 -15.4351,44.00065 l -3.26825,3.14043 0.11729,11.00581 c 0.11446,10.73927 -0.55036,14.92561 -2.57474,16.21283 -1.70492,1.08408 -4.474778,0.64654 -6.082063,-0.96075 -1.415044,-1.41505 -1.582337,-2.63723 -1.582337,-11.55999 v -9.97765 l -2.960853,0.55545 c -1.628477,0.30551 -3.230594,0.72216 -3.560258,0.92591 -0.329672,0.20375 -0.599405,4.44374 -0.599405,9.4222 0,7.99685 -0.184405,9.23615 -1.582336,10.63408 -1.853249,1.85325 -4.606871,2.04111 -6.771508,0.46199 -1.324744,-0.96642 -1.590115,-2.39831 -1.931345,-10.4212 l -0.395584,-9.30085 -15.427785,0.13057 -15.427784,0.13058 -0.395584,9.16866 c -0.340448,7.89073 -0.60964,9.32505 -1.931345,10.29063 -1.957811,1.43029 -4.463226,1.43091 -6.4225,0.002 -1.326075,-0.96736 -1.589772,-2.39866 -1.931345,-10.48296 l -0.395584,-9.36263 -2.769089,0.12826 c -1.523,0.0706 -3.036109,0.15955 -3.362466,0.19779 -0.326357,0.0382 -0.593377,4.10866 -0.593377,9.04535 0,7.69085 -0.207128,9.16327 -1.446842,10.28519 -1.813401,1.6411 -4.017896,1.66837 -6.288802,0.0778 z M 121.95487,99.04955 c 0.628,-1.63654 -0.85806,-3.45998 -2.81979,-3.45998 -1.68891,0 -2.65821,1.75559 -1.96569,3.56026 0.61057,1.59112 4.16502,1.51664 4.78548,-0.10028 z"
     id="path4495"
     inkscape:connector-curvature="0"
     inkscape:export-filename="D:\templates.png"
     inkscape:export-xdpi="91.150002"
     inkscape:export-ydpi="91.150002" />
  <path
     style="opacity:1;fill:#000000;fill-opacity:1;fill-rule:nonzero;stroke:none;stroke-width:7.91168404;stroke-miterlimit:4;stroke-dasharray:none;stroke-opacity:1"
     d="m 143.34084,198.11228 c -1.32607,-0.96739 -1.58977,-2.39869 -1.93134,-10.48299 l -0.39558,-9.36262 -14.83441,-0.21526 c -17.2946,-0.25094 -17.35159,-0.28874 -11.20684,-7.43404 3.92078,-4.55919 7.14899,-10.26567 8.65228,-15.29459 l 0.94601,-3.16467 8.51456,-0.22553 c 7.58346,-0.20086 8.46069,-0.0851 8.02197,1.05813 -1.29421,3.37266 -1.40274,7.17932 -0.23239,8.15063 2.67548,2.22045 3.42611,1.8554 25.34966,-12.32811 2.9874,-1.93271 5.12356,-3.79249 4.74701,-4.13284 -1.88244,-1.7015 -26.53423,-16.65291 -27.4572,-16.65291 -0.58776,0 -1.71689,0.71628 -2.50917,1.59174 -1.23469,1.36432 -1.325,2.09654 -0.63208,5.12461 0.44463,1.94307 0.62232,3.71896 0.39486,3.94643 -0.7572,0.7572 -11.91612,0.4263 -12.40697,-0.36791 -0.26564,-0.42981 0.10151,-3.72305 0.81589,-7.3183 0.71437,-3.59526 1.43958,-7.29032 1.61158,-8.21125 0.23485,-1.25752 1.05427,-1.77443 3.29105,-2.07608 8.73557,-1.17807 14.79909,-7.00508 14.69178,-14.1187 l -0.0587,-3.88793 3.27104,-0.004 c 5.40207,-0.007 9.23262,-1.5171 13.08354,-5.15688 3.27714,-3.09743 3.48066,-3.48957 2.05503,-3.95948 -6.0171,-1.98332 -7.97774,-3.78272 -5.76276,-5.28884 1.41585,-0.96273 7.64846,-0.0738 9.92052,1.41489 1.71162,1.1215 2.06316,1.12104 3.78161,-0.005 2.1009,-1.37656 9.13954,-1.68365 11.35944,-0.49559 0.94007,0.50311 2.52395,0.35629 4.86778,-0.45122 3.39078,-1.16822 8.6669,-0.91872 8.6669,0.40984 0,0.90201 -2.72677,3.25144 -3.77365,3.25144 -2.43377,0 -1.31615,2.0333 3.7387,6.80178 5.76839,5.44162 6.73987,7.73673 4.80504,11.35197 -0.97145,1.81519 -5.79894,3.7661 -11.03926,4.46125 -2.22834,0.2956 -4.22786,0.82276 -4.44338,1.17148 -0.52316,0.8465 -1.65783,6.40457 -3.46209,16.95869 -1.93009,11.29029 -4.99236,22.02501 -7.68521,26.94037 -1.1797,2.15336 -3.8506,5.74848 -5.93533,7.98916 l -3.79043,4.07396 0.0321,10.56266 c 0.0424,13.90797 0.13245,13.10602 -1.67561,14.91408 -1.98696,1.98695 -4.04339,2.01015 -6.43618,0.0726 -1.7624,-1.4271 -1.87111,-2.04429 -1.98588,-11.27415 l -0.12141,-9.76436 -2.47502,0.11903 c -4.40843,0.21201 -4.80488,1.11943 -4.80488,10.99769 0,7.07697 -0.25964,9.20469 -1.24326,10.18831 -1.54524,1.54524 -4.29637,1.59875 -6.31942,0.12292 z m 41.18734,-100.1492 c 0,-1.58234 -0.39559,-1.97793 -1.97792,-1.97793 -1.58234,0 -2.02911,0.44678 -2.23388,2.23388 -0.23283,2.03206 -0.0541,2.21075 1.97792,1.97792 1.7871,-0.20476 2.23388,-0.65154 2.23388,-2.23387 z"
     id="path4497"
     inkscape:connector-curvature="0"
     inkscape:export-filename="D:\templates.png"
     inkscape:export-xdpi="91.150002"
     inkscape:export-ydpi="91.150002" />
</svg>
