<svg viewBox="0 0 128 128" xmlns="http://www.w3.org/2000/svg"><path d="M76 38H8c-4.4 0-8 3.6-8 8v44c0 4.4 3.6 8 8 8h4v13.934c0 2.2 1.273 2.73 2.83 1.172L29.933 98H76c4.4 0 8-3.6 8-8V46c0-4.4-3.6-8-8-8zM18 73c-3.313 0-6-2.687-6-6s2.687-6 6-6 6 2.687 6 6-2.687 6-6 6zm24 0c-3.313 0-6-2.687-6-6s2.687-6 6-6 6 2.687 6 6-2.687 6-6 6zm24 0c-3.313 0-6-2.687-6-6s2.687-6 6-6 6 2.687 6 6-2.687 6-6 6z"/><path d="M120 14H48c-4.4 0-8 3.6-8 8v10h36c7.72 0 14 6.28 14 14v28h8.066l15.104 15.105c1.556 1.557 2.828 1.027 2.828-1.172V74h4c4.4 0 8-3.6 8-8V22c.002-4.4-3.598-8-7.998-8z"/></svg>
