<svg viewBox="0 0 100 100" xmlns="http://www.w3.org/2000/svg"><path d="M85.562 13.84c-2.73-.473-5.125 1.42-6.01 4.95l-6.54 26.69s-.472 2.05-1.616 2.05c-.98 0-.85-.987-.68-2.095l8.56-38.184c.762-3.38-.78-6.428-3.704-6.94-3.092-.54-5.786 1.532-6.408 4.71l-9.622 40.235c-.267 1.124-.942 2.182-2.433 2.277-1.632.02-2.063-1.1-2.378-2.438L48.11 4.86c-.92-3.81-3.463-5.227-6.47-4.55-2.896.65-4.465 3.56-3.706 6.94l6 37.843c.27 1.458.07 2.423-.834 2.423-.964 0-1.23-.556-1.635-2.42L35.498 8.767c-.692-3.65-2.475-5.013-5.013-5.013-2.77 0-5.213 2.335-4.904 5.927l5.86 48.466c0 3.006-2.434 5.438-5.436 5.438-2.996 0-5.432-2.433-5.432-5.438v-10.15c0-2.766-2.24-5.008-5.008-5.008-2.77 0-5.012 2.242-5.012 5.01v12.393l.054 3.198c1.034 20.2 15.75 36.264 36.21 36.264 19.07 0 30.124-13.47 33.79-32.218l8.71-47.438c.557-3.178-.628-5.814-3.754-6.357z"/></svg>