<?xml version="1.0" encoding="UTF-8" standalone="no"?>
<!-- Created with Inkscape (http://www.inkscape.org/) -->

<svg
   xmlns:dc="http://purl.org/dc/elements/1.1/"
   xmlns:cc="http://creativecommons.org/ns#"
   xmlns:rdf="http://www.w3.org/1999/02/22-rdf-syntax-ns#"
   xmlns:svg="http://www.w3.org/2000/svg"
   xmlns="http://www.w3.org/2000/svg"
   xmlns:sodipodi="http://sodipodi.sourceforge.net/DTD/sodipodi-0.dtd"
   xmlns:inkscape="http://www.inkscape.org/namespaces/inkscape"
   version="1.1"
   id="svg4499"
   viewBox="0 0 266.66666 266.66666"
   sodipodi:docname="hosting.svg"
   inkscape:version="0.92.1 r15371">
  <metadata
     id="metadata4505">
    <rdf:RDF>
      <cc:Work
         rdf:about="">
        <dc:format>image/svg+xml</dc:format>
        <dc:type
           rdf:resource="http://purl.org/dc/dcmitype/StillImage" />
        <dc:title />
      </cc:Work>
    </rdf:RDF>
  </metadata>
  <defs
     id="defs4503" />
  <sodipodi:namedview
     pagecolor="#ffffff"
     bordercolor="#666666"
     borderopacity="1"
     objecttolerance="10"
     gridtolerance="10"
     guidetolerance="10"
     inkscape:pageopacity="0"
     inkscape:pageshadow="2"
     inkscape:window-width="1837"
     inkscape:window-height="1051"
     id="namedview4501"
     showgrid="false"
     inkscape:zoom="2.1197604"
     inkscape:cx="65.498795"
     inkscape:cy="135.53668"
     inkscape:window-x="1994"
     inkscape:window-y="-9"
     inkscape:window-maximized="1"
     inkscape:current-layer="svg4499" />
  <path
     style="opacity:1;fill:#000000;fill-opacity:1;fill-rule:nonzero;stroke:#ffffff;stroke-width:1.75653827;stroke-miterlimit:4;stroke-dasharray:none;stroke-opacity:1"
     d="m 66.219348,245.34621 c -1.367271,-0.21287 -4.350409,-0.98012 -6.629202,-1.70499 -19.058862,-6.06254 -34.300582,-22.45719 -41.070367,-44.17706 -2.509593,-12.79723 -3.533477,-24.63099 -0.05311,-36.75311 5.873398,-20.14643 21.003858,-37.58299 41.123476,-47.39129 9.144636,-4.45801 15.785413,-6.53008 26.300701,-8.20641 10.121701,-1.61359 14.341304,-1.61359 24.462994,0 9.46659,1.50914 16.06764,3.427 23.68807,6.88226 17.80514,8.07324 37.06136,27.11728 46.20249,45.69338 0.78497,1.59516 3.87449,7.97022 6.8656,14.16683 4.50789,9.33883 6.3037,12.13455 10.49553,16.3394 4.91427,4.92955 5.59478,6.78299 2.49045,6.78299 -2.25388,0 -12.26395,3.90208 -17.4514,6.80281 -7.32939,4.0985 -13.144,8.98352 -21.54488,18.10054 -14.62307,15.86962 -25.53248,22.60594 -38.36711,23.69086 -7.50425,0.63434 -15.4951,-0.2396 -15.4951,-1.69466 0,-0.57358 1.59729,-2.18997 3.54955,-3.59197 16.65018,-11.95727 25.22818,-32.81911 20.95052,-50.95215 -4.48399,-19.00775 -18.27618,-32.93308 -35.894001,-36.24049 -15.813297,-2.96865 -33.733229,6.30029 -40.83198,21.12001 -3.274643,8.17947 -4.356435,15.91207 -1.24795,24.00802 8.471635,21.51628 31.973345,27.09141 46.428431,11.01386 9.10609,-10.12816 6.19917,-27.04206 -5.695704,-33.14062 -6.743368,-3.45734 -16.767537,-1.59286 -21.108857,3.92624 -3.285534,4.17689 0.680106,6.91842 4.887032,3.37853 4.450585,-3.74492 12.133104,-3.87159 16.000993,-0.26382 2.903136,2.70789 5.506598,8.37683 5.485924,11.94537 -0.03741,6.45532 -4.799899,12.95166 -11.576167,15.79063 -6.642116,1.85873 -14.826262,1.06104 -19.36075,-2.35891 -7.791688,-5.92976 -11.405774,-14.75952 -10.20186,-24.92469 1.029445,-8.69204 7.604194,-17.01338 17.126143,-21.67576 9.636234,-3.91629 20.240056,-3.89343 28.229116,0.0946 8.80359,4.42013 15.67837,11.95084 19.76712,21.65311 2.33195,5.5335 3.24952,18.16131 1.80804,24.88266 -3.211,14.97244 -16.72053,28.94949 -33.728754,34.89604 -4.869203,1.70241 -19.785533,2.81378 -25.604989,1.90775 z"
     id="path5052"
     inkscape:connector-curvature="0"
     sodipodi:nodetypes="ccccssscscsscssssssccscscccccsccsssc"
     inkscape:export-filename="D:\slow.png"
     inkscape:export-xdpi="91.150002"
     inkscape:export-ydpi="91.150002" />
  <path
     style="opacity:1;fill:#000000;fill-opacity:1;fill-rule:nonzero;stroke:none;stroke-width:8.28649426;stroke-miterlimit:4;stroke-dasharray:none;stroke-opacity:1"
     d="m 146.82023,247.70417 -4.55758,-0.54239 4.9719,-2.80671 c 3.41608,-1.92843 9.12074,-7.00189 18.23029,-16.21317 7.29212,-7.37356 15.3093,-14.71871 17.81596,-16.32257 6.58378,-4.21253 15.08946,-7.84985 21.95922,-9.39048 5.70425,-1.27926 10.54255,-7.29472 11.70271,-14.55 0.30792,-1.92563 0.0693,-8.3122 -0.53021,-14.19237 -1.21728,-11.93897 -0.45426,-19.23774 2.52133,-24.11797 1.38679,-2.27447 1.63044,-4.19214 1.63308,-12.85343 0.003,-8.04816 -0.28183,-10.61496 -1.35742,-12.25652 -2.81994,-4.30376 2.08797,-8.5282 5.02927,-4.32891 1.1326,1.61701 1.1379,2.03482 0.047,3.69976 -0.89961,1.37298 -1.22979,4.33205 -1.22979,11.02121 0,5.02936 0.2221,9.1443 0.49357,9.1443 0.27145,0 1.59443,-0.78389 2.93994,-1.74199 l 2.44639,-1.74197 -0.38232,-12.55223 c -0.21026,-6.90372 -0.50779,-13.85734 -0.66116,-15.45249 -0.24005,-2.49679 -0.0131,-2.93794 1.63122,-3.17104 3.65564,-0.51822 5.7779,3.40284 3.06182,5.65699 -0.9994,0.82943 -1.24297,3.36625 -1.24297,12.94553 v 11.91395 h 2.03045 c 3.02221,0 3.73744,2.0475 2.43017,6.95686 -0.6195,2.32644 -1.13048,7.58594 -1.13553,11.68776 -0.008,6.59566 0.28147,8.07224 2.505,12.77241 1.38281,2.92301 3.76551,7.02483 5.2949,9.11514 3.70407,5.06262 6.68227,12.42706 7.95772,19.67771 1.92471,10.9416 -2.21835,21.80604 -11.95729,31.35589 -9.62171,9.43486 -20.57297,14.07483 -36.12203,15.30461 -12.72822,1.00668 -49.80822,1.66254 -55.52563,0.98212 z"
     id="path5054"
     inkscape:connector-curvature="0"
     inkscape:export-filename="D:\slow.png"
     inkscape:export-xdpi="91.150002"
     inkscape:export-ydpi="91.150002" />
</svg>
