<?xml version="1.0" encoding="UTF-8" standalone="no"?>
<svg
   xmlns="http://www.w3.org/2000/svg"
   version="1.1"
   id="svg4485"
   viewBox="0 0 300 300">
  <path
     style="fill-rule:nonzero;stroke:none;stroke-width:10;stroke-miterlimit:4;stroke-dasharray:none;stroke-opacity:1"
     d="M 150 7.2675781 A 142.9048 142.9048 0 0 0 7.0957031 150.17188 A 142.9048 142.9048 0 0 0 150 293.07812 A 142.9048 142.9048 0 0 0 292.9043 150.17188 A 142.9048 142.9048 0 0 0 150 7.2675781 z M 150 27.046875 A 123.12559 123.12559 0 0 1 197.16016 36.478516 L 174.29688 80.070312 L 70.628906 80.070312 L 70.628906 116.7832 L 155.04102 116.7832 L 146.65625 132.76953 L 70.628906 132.76953 L 70.628906 169.48242 L 127.40234 169.48242 L 119.25195 185.02148 L 70.628906 185.02148 L 70.628906 221.73438 L 99.996094 221.73438 L 83.318359 253.5332 A 123.12559 123.12559 0 0 1 26.875 150.17188 A 123.12559 123.12559 0 0 1 150 27.046875 z M 219.35742 48.451172 A 123.12559 123.12559 0 0 1 273.125 150.17188 A 123.12559 123.12559 0 0 1 150 273.29883 A 123.12559 123.12559 0 0 1 105.80664 264.94922 L 128.47266 221.73438 L 232.16797 221.73438 L 232.16797 185.02148 L 147.72852 185.02148 L 155.87891 169.48242 L 232.16797 169.48242 L 232.16797 132.76953 L 175.13477 132.76953 L 183.51953 116.7832 L 232.16797 116.7832 L 232.16797 80.070312 L 202.77344 80.070312 L 219.35742 48.451172 z M 205.47852 102.80469 A 4.4503226 4.4503226 0 0 1 209.92969 107.25586 A 4.4503226 4.4503226 0 0 1 205.47852 111.70508 A 4.4503226 4.4503226 0 0 1 201.02734 107.25586 A 4.4503226 4.4503226 0 0 1 205.47852 102.80469 z M 219.47852 102.80469 A 4.4503226 4.4503226 0 0 1 223.92969 107.25586 A 4.4503226 4.4503226 0 0 1 219.47852 111.70508 A 4.4503226 4.4503226 0 0 1 215.02734 107.25586 A 4.4503226 4.4503226 0 0 1 219.47852 102.80469 z M 205.47852 155.50391 A 4.4503226 4.4503226 0 0 1 209.92969 159.95508 A 4.4503226 4.4503226 0 0 1 205.47852 164.4043 A 4.4503226 4.4503226 0 0 1 201.02734 159.95508 A 4.4503226 4.4503226 0 0 1 205.47852 155.50391 z M 219.47852 155.50391 A 4.4503226 4.4503226 0 0 1 223.92969 159.95508 A 4.4503226 4.4503226 0 0 1 219.47852 164.4043 A 4.4503226 4.4503226 0 0 1 215.02734 159.95508 A 4.4503226 4.4503226 0 0 1 219.47852 155.50391 z M 205.47852 207.75586 A 4.4503226 4.4503226 0 0 1 209.92969 212.20703 A 4.4503226 4.4503226 0 0 1 205.47852 216.65625 A 4.4503226 4.4503226 0 0 1 201.02734 212.20703 A 4.4503226 4.4503226 0 0 1 205.47852 207.75586 z M 219.47852 207.75586 A 4.4503226 4.4503226 0 0 1 223.92969 212.20703 A 4.4503226 4.4503226 0 0 1 219.47852 216.65625 A 4.4503226 4.4503226 0 0 1 215.02734 212.20703 A 4.4503226 4.4503226 0 0 1 219.47852 207.75586 z "
     id="rect4507" />
</svg>
