<?xml version="1.0" encoding="UTF-8" standalone="no"?>
<svg
   xmlns="http://www.w3.org/2000/svg"
   version="1.1"
   viewBox="0 0 225 225">
  <path
     style="fill-rule:nonzero;stroke:none;stroke-width:4.53744507;stroke-miterlimit:4;stroke-dasharray:none;stroke-opacity:1"
     d="m 107.42344,130.45571 c -0.41278,-0.52422 -0.66469,-1.78165 -1.42221,-7.09914 -0.31215,-2.19119 -0.51504,-2.36132 -4.12562,-3.45936 l -2.480243,-0.75428 -1.37658,1.72482 c -0.75712,0.94866 -2.295414,2.71345 -3.418431,3.92179 l -2.041851,2.19696 -4.197136,-2.3454 c -2.308426,-1.28996 -4.200777,-2.57676 -4.205226,-2.85955 -0.0044,-0.2828 0.652633,-2.5038 1.460184,-4.93557 l 1.468273,-4.42139 -2.254237,-2.29255 c -1.33294,-1.35559 -2.532402,-2.20492 -2.934854,-2.07815 -0.374339,0.11791 -2.400845,0.82199 -4.503346,1.56462 -2.1025,0.74263 -4.042258,1.2646 -4.310572,1.15992 -0.463242,-0.18073 -1.077537,-1.17637 -3.832309,-6.2113 l -1.192981,-2.18043 2.041851,-1.90623 c 1.123018,-1.04843 2.85201,-2.545127 3.842207,-3.325993 l 1.800356,-1.419763 -0.892867,-3.100314 -0.892868,-3.100313 -4.668491,-0.9219 c -2.823236,-0.557512 -4.838131,-1.190921 -5.097678,-1.602517 -0.659903,-1.046494 -0.556694,-8.87403 0.124098,-9.411797 0.31195,-0.246413 1.486013,-0.592999 2.609031,-0.770191 1.123018,-0.177193 3.016582,-0.475062 4.207922,-0.661933 1.191339,-0.186871 2.342798,-0.528887 2.558795,-0.760037 0.630221,-0.674428 1.881244,-5.500545 1.598245,-6.165606 C 75.144821,68.906207 73.62306,67.509999 71.905213,66.137422 70.187366,64.764845 68.65491,63.28141 68.499755,62.8409 c -0.165189,-0.469 0.154267,-1.503246 0.770835,-2.495594 1.915905,-3.083598 2.664384,-4.408363 2.926537,-5.1798 0.142545,-0.419467 0.501749,-0.855751 0.798232,-0.969522 0.510662,-0.19596 3.525666,0.625433 5.497066,1.497593 0.499119,0.220814 1.674296,0.660583 2.611504,0.977264 1.690872,0.571342 1.719745,0.560346 3.743393,-1.425715 1.121657,-1.100823 2.039377,-2.353425 2.039377,-2.783559 0,-0.430134 -0.612555,-2.4434 -1.361233,-4.473926 -0.748679,-2.030525 -1.356498,-4.035258 -1.350707,-4.454963 0.0067,-0.4843 1.540102,-1.625849 4.197137,-3.12454 l 4.186609,-2.361442 1.365287,1.453953 c 0.750908,0.799673 2.263204,2.541382 3.36066,3.870462 1.600025,1.937721 2.183581,2.358077 2.945288,2.121596 0.52245,-0.162203 1.83089,-0.503288 2.90765,-0.757968 2.26925,-0.536735 2.49302,-0.936772 3.25665,-5.821988 0.29257,-1.871697 0.69007,-3.709361 0.88332,-4.083701 0.27189,-0.52668 1.4382,-0.709689 5.15674,-0.80916 5.67742,-0.15187 5.35208,-0.448836 6.23962,5.695465 l 0.60751,4.205687 1.83908,0.496127 c 1.01149,0.27287 2.43003,0.714359 3.15231,0.981087 1.15576,0.426815 1.41805,0.352706 2.18767,-0.618114 0.48095,-0.606691 2.00055,-2.38021 3.37689,-3.941155 l 2.50242,-2.838082 2.34294,1.28596 c 3.557,1.952324 6.19976,3.682365 6.19976,4.058582 0,0.567533 -0.76062,2.899711 -2.00045,6.133697 l -1.18064,3.07961 2.13893,2.286692 c 2.4066,2.572838 2.00926,2.548527 7.83757,0.479551 2.11535,-0.750921 3.98749,-1.27791 4.16034,-1.171088 0.7441,0.459883 4.97473,8.02403 4.7766,8.540336 -0.12008,0.312919 -1.6506,1.777156 -3.40117,3.253858 -1.75057,1.476703 -3.29779,2.947255 -3.43826,3.267894 -0.34001,0.776058 0.53901,4.78313 1.26794,5.779998 0.54681,0.747806 2.12126,1.153155 7.2346,1.862578 1.49695,0.207684 2.29063,0.560327 2.4956,1.108824 0.16531,0.442358 0.19848,2.810973 0.0737,5.263589 l -0.22687,4.459301 -4.8422,0.872124 -4.8422,0.872125 -0.71617,2.85108 c -0.39389,1.568101 -0.71617,3.031785 -0.71617,3.252636 0,0.220851 1.63348,1.768886 3.62996,3.440078 1.99647,1.67119 3.62995,3.24944 3.62995,3.50721 0,0.25777 -0.91883,1.98231 -2.04185,3.8323 -1.12302,1.84999 -2.04185,3.57127 -2.04185,3.82508 0,0.71625 -2.20845,0.73742 -3.85683,0.0369 -2.74231,-1.16529 -5.8566,-2.29684 -6.29949,-2.28887 -0.27867,0.005 -1.40001,0.90878 -2.49187,2.00837 -1.82208,1.83499 -1.95991,2.13399 -1.67753,3.63923 0.16922,0.90201 0.67959,2.50765 1.13415,3.56811 0.45457,1.06046 0.96724,2.56897 1.13927,3.35224 0.29562,1.34588 0.17562,1.51188 -2.18405,3.02134 -3.69957,2.36659 -6.24759,3.5808 -6.62142,3.15532 -0.18221,-0.20739 -1.51918,-1.80636 -2.97103,-3.55328 -1.45185,-1.74691 -2.82021,-3.29675 -3.04081,-3.44409 -0.45861,-0.30629 -4.35452,0.62865 -5.76487,1.38345 -0.51844,0.27745 -0.94261,0.9444 -0.94261,1.48211 0,1.32817 -0.91887,6.23895 -1.403,7.49813 -0.37223,0.96813 -0.63657,1.02093 -5.11101,1.02093 -3.2341,0 -4.85899,-0.17843 -5.16511,-0.56718 z m 10.07557,-25.52115 c 7.23176,-1.72659 14.00926,-7.421054 16.26371,-13.6648 1.44503,-4.002005 1.67464,-5.162987 1.67464,-8.467305 0,-9.007463 -4.89049,-16.970292 -12.81386,-20.863825 -15.35663,-7.546242 -33.014334,3.436139 -33.014334,20.533595 0,6.743782 2.749941,12.97796 7.612818,17.258435 2.184269,1.92267 7.386296,4.60892 10.310096,5.32398 2.69976,0.66026 6.91098,0.60953 9.96693,-0.12008 z"
     id="path5050" />
  <path
     style="fill-rule:nonzero;stroke:none;stroke-width:4.53744507;stroke-miterlimit:4;stroke-dasharray:none;stroke-opacity:1"
     d="M 97.549695,208.79915 C 67.357716,207.8073 42.978164,204.0481 26.606928,197.86014 c -5.396125,-2.03961 -5.78885,-2.71289 -5.053858,-8.66415 1.686816,-13.65821 5.423598,-24.66803 11.369436,-33.49818 4.728243,-7.02191 10.542385,-11.86449 19.252737,-16.03555 7.117148,-3.40812 26.961259,-11.92254 28.774526,-12.34614 0.397281,-0.0928 0.768222,0.3693 0.972239,1.21117 0.181429,0.74869 0.642575,2.68844 1.024768,4.31058 0.608027,2.58066 1.817628,7.22031 3.016521,11.57048 1.697068,6.15778 6.942436,21.24659 9.306459,26.77093 2.917274,6.81719 5.443234,11.97664 10.440764,21.32599 5.22954,9.78339 6.74597,11.00354 9.19642,7.39964 5.3936,-7.93238 14.91312,-27.76759 18.68605,-38.93488 0.54804,-1.62214 1.16672,-3.35771 1.37483,-3.85683 0.37828,-0.90724 2.39261,-7.3711 4.02991,-12.93172 0.47763,-1.62213 1.64282,-6.06316 2.5893,-9.86895 1.18954,-4.78305 1.91579,-6.9196 2.35213,-6.9196 0.34718,0 1.74723,0.51047 3.1112,1.13436 1.36399,0.6239 2.73936,1.13437 3.0564,1.13437 0.31703,0 0.77039,0.17234 1.00748,0.38299 0.23708,0.21065 1.65617,0.85823 3.15352,1.43907 4.48933,1.74146 14.5951,6.24848 19.4744,8.68529 9.84139,4.91495 15.82885,10.60427 21.05384,20.00549 1.5156,2.72699 4.90489,10.85081 5.58507,13.38694 0.21753,0.81107 0.60138,2.24036 0.85299,3.17621 1.57537,5.85925 2.70413,15.54428 2.09464,17.97264 -0.31378,1.2502 -2.19315,2.31082 -7.08957,4.00097 -3.20233,1.10539 -10.84913,3.25695 -14.06608,3.95774 -1.37258,0.299 -3.31234,0.72713 -4.31058,0.9514 -0.99823,0.22427 -3.24427,0.63061 -4.99119,0.90298 -1.74691,0.27238 -4.29922,0.68121 -5.6718,0.90851 -2.26897,0.37577 -6.46339,0.88946 -13.13477,1.60865 -11.78865,1.27084 -42.3832,2.22286 -56.515015,1.75861 z"
     id="path5052" />
  <path
     style="fill-rule:nonzero;stroke:none;stroke-width:4.53744507;stroke-miterlimit:4;stroke-dasharray:none;stroke-opacity:1"
     d="m 111.89236,192.64313 c -1.23867,-1.98343 -2.54385,-4.41628 -5.37649,-10.02177 l -2.93104,-5.80021 0.75785,-3.27468 c 0.41682,-1.80107 0.97062,-4.29561 1.23067,-5.5434 0.95641,-4.58921 0.50954,-4.31058 6.91341,-4.31058 3.11011,0 5.75627,0.16427 5.88036,0.36504 0.12408,0.20077 0.84845,3.20002 1.60971,6.66499 l 1.38411,6.29995 -3.34962,6.38017 c -1.84229,3.50909 -3.84024,7.23587 -4.43989,8.28173 -1.0486,1.82888 -1.11279,1.86552 -1.67907,0.95876 z"
     id="path5054" />
  <path
     style="fill-rule:nonzero;stroke:none;stroke-width:4.53744507;stroke-miterlimit:4;stroke-dasharray:none;stroke-opacity:1"
     d="m 107.53662,160.06254 c -1.15414,-0.20225 -1.35185,-0.49768 -1.82197,-2.72247 -1.82528,-8.63789 -1.98232,-10.64056 -0.86793,-11.06819 0.92922,-0.35658 13.7134,-0.3476 15.04989,0.0105 0.73956,0.1982 1.01493,0.6029 0.99916,1.46847 -0.0254,1.39001 -2.00065,11.76282 -2.29634,12.05851 -0.30099,0.30099 -9.57835,0.51325 -11.06281,0.25311 z"
     id="path5056" />
</svg>
